<?xml version="1.0" encoding="utf-8"?>
<!-- Generator: Adobe Illustrator 24.3.0, SVG Export Plug-In . SVG Version: 6.00 Build 0)  -->
<svg version="1.1" id="katman_1" xmlns="http://www.w3.org/2000/svg" xmlns:xlink="http://www.w3.org/1999/xlink" x="0px" y="0px"
	 viewBox="0 0 841.9 595.3" style="enable-background:new 0 0 841.9 595.3;" xml:space="preserve">
<style type="text/css">
	.st0{fill:#FFFFFF;}
</style>
<path class="st0" d="M410,355.2l-1.1,4.1h-11.6l-2.1,5.3c6.2,3.1,12.2,6.5,12.2,14.2s-5.8,12.7-13,12.7c-7.3,0-7.3-1.5-7.3-4.1
	c0-2.6,0.8-1.6,1.6-1.6c2.2,0,2,4,6.8,4s7.8-4,7.8-8.7c0-7-5.7-10.1-11.3-12.8l5-13.3L410,355.2L410,355.2z M429.5,354.4
	c4.2,0,7.4,3,7.4,7.3s-3.6,7.6-7.5,9.1l0.1,0.1c2.8-0.3,9.4,1,9.4,8.2c0,7.2-4.1,12.3-14,12.3s-7.9-2.7-7.9-4.3
	c0-1.6,0.8-1.7,1.7-1.7c1.9,0,1.9,4.3,7.3,4.3s8.2-3.8,8.2-8.6c0-4.9-4.6-8.4-10.4-8v-1.3h-0.1c4.4-0.4,9.1-3.2,9.1-8.1
	c0-4.9-2.3-6.3-6-6.3s-4.6,1.7-6.5,3.5l-0.8-1C422.3,356.7,425,354.3,429.5,354.4L429.5,354.4L429.5,354.4z M460.9,357.1
	c7.3,0,13.4,6.2,13.4,13.5c0,6.6-5.2,13.7-13.6,13.7s-13.4-6.2-13.4-13.4C447.3,363.7,452.5,357.1,460.9,357.1L460.9,357.1z
	 M374.7,357.2l1.1,0.5v23.1c0,0.5,0.1,0.8,1.7,0.8v-0.1h2.3v2.2h-0.7c-0.9,0-1.9,0-2.8,0c-3,0-5.9,0-8.7,0h-0.7v-2.2h2.6
	c1.7,0,1.7-0.4,1.7-0.9v-18.4c-1.4,0.8-2.8,1.6-4.2,2.2l-0.5,0.3l-1.1-2l0.6-0.3c2.5-1.3,5.2-2.9,8.5-5.1L374.7,357.2L374.7,357.2z
	 M460.4,359.5c-4.8,0-7.9,4-7.9,10.4c0,6.4,2.8,12.1,8.6,12.1c5.9,0,7.9-4.1,7.9-10.4S466.3,359.5,460.4,359.5z M344.5,369.1v3.8
	H204.1v-3.8H344.5L344.5,369.1z M638.3,369.1v3.8H497.8v-3.8H638.3z M490.1,281.7c0.2,0,0.5,0,0.8,0c2.3,2.3,4.6,4.6,6.8,7.1
	c1.7,2,8.1,8.9,19.1,20.8v-0.7l-0.1-3.4c0-2-0.2-3.5-0.2-4.7c-0.1-1.1-0.2-2.5-0.2-4.1s0-3.1-0.2-4.4c-0.2-2.6-0.4-4-0.4-4.4
	c0-1.3-0.2-2-0.4-2.3c-0.4-0.5-1.3-0.7-2.6-1c-1-0.2-1.7-0.4-2.2-0.7v-1.7h0.8l5.3-0.2l5.9-0.2h1.1v1.9c-0.4,0.2-0.8,0.4-1.3,0.5
	c-1.1,0.3-1.9,0.5-2,0.7c-0.9,0.6-1.4,0.9-1.5,1c-0.2,0.2-0.2,0.7-0.2,1.1c0,0.4,0,0.5,0,1.2v2.5c0,2.8,0.1,5.1,0.2,6.7
	c0,0.5,0,1.1,0,1.8l0.3,10.3v6.7v1.6c0,0.8,0.1,1.3,0.1,1.4v1.6l-3.1,0.1l-3.2-3.6l-6.6-7.1l-4.6-5l-3.4-3.7c-2-2.1-4-4.2-6-6.2
	l-4.4-4.3l0.2,10.9v4.1l0.2,3.8c0,1.6,0.1,3.4,0.3,5.2c0,0.5,0,0.8,0.1,1.1c0,0.2,0.2,0.5,0.4,0.8c0.8,0.3,2.3,0.5,4.6,0.7
	c0.2,0,0.4,0.1,0.7,0.2l0.1,2.3h-1.1c-0.7,0-2.5-0.2-5.3-0.5c-1.9,0-3.8,0.1-5.7,0.2c-0.9,0-1.4,0.1-1.6,0.1c-0.3,0-0.6,0-0.8-0.1
	c0-0.4,0-0.8,0-1.1v-1c0.5-0.1,0.9-0.2,1.3-0.2s0.5,0,1,0c1.6,0,2.4-0.1,2.7-0.4c0.3-0.2,0.4-0.8,0.5-2c0.1-3.1,0.2-5,0.2-5.7v-11.2
	v-6c0-2.2-0.2-3.8-0.4-4.7c-0.1-0.4-0.4-0.8-0.7-1.1c-0.6-0.7-1.3-1.3-2.2-1.6c-0.5-0.2-1.7-0.5-3.7-1l-0.1-2.1h3.1
	c1.1-0.1,1.9-0.1,2.3-0.1h0.1c0.3,0,0.9,0,1.8,0h0.6c0.1,0,0.7,0,1.7,0c0.7,0,1.3,0,1.5,0L490.1,281.7L490.1,281.7z M554,281
	c2.2,0,4.3,0.1,6.3,0.4c2,0.2,3.8,0.7,5.6,1.2c0.2,0.6,0.8,2.2,1.4,5c0.4,1.2,0.5,2.5,0.5,4h-2.5c-1.7-2.7-3.5-4.6-5.4-5.8
	c-1.9-1.1-4-1.7-6.2-1.7c-2.8,0-5,1.2-6.8,3.5c-2.3,3.2-3.5,7.7-3.5,13.4c0,5.7,0.2,5.6,0.6,7.1c0.7,2.2,1.5,4.1,2.5,5.6
	c0.8,1.1,1.7,2,2.9,2.6c1.6,0.8,3.3,1.3,5.1,1.3s3.8-0.7,5.7-2c1.9-1.3,3.7-3.4,5.3-6c0.7-0.1,1.5-0.2,2.6-0.2
	c-0.1,0.8-0.2,1.6-0.4,2.3c0,0.4-0.3,1.6-0.7,3.7l-0.2,0.8l-0.4,1.4c-1.1,0.9-2.6,1.6-4.6,2.1c-2,0.5-4.4,0.7-7.3,0.7
	s-4.3-0.2-6.3-0.7c-1.8-0.4-3.5-1.1-5.1-2.1c-2.1-1.4-3.7-2.9-4.9-4.6c-1.1-1.6-2-3.4-2.6-5.3c-0.6-1.9-0.8-4.1-0.8-6.5
	c0-5.8,1.8-10.6,5.3-14.5c3.6-3.8,8.1-5.7,13.6-5.7l0,0L554,281z M281.9,281.9c1,0.1,1.9,0.2,2.6,0.3c1.4,0.2,3.1,0.4,5,0.4
	c1.9,0,2.3,0,5-0.2c3.7-0.2,7.3-0.3,10.9-0.3h4.9c1.1,0,2.7,0.1,4.9,0.4c0.3,0.4,0.5,0.9,0.5,1.6v7.3c0,0.1,0,0.3,0,0.5h-1.1
	c-0.2,0-0.5,0-0.9,0c-0.2-0.4-0.4-1-0.7-1.7l-1.1-2.1c-0.5-1-1-1.9-1.7-2.7c-0.5-0.1-1.1-0.2-1.7-0.2c-0.2,0-0.8-0.1-1.7-0.2
	c-1.8-0.2-3.6-0.2-5.4-0.2c-2.2,0-4.1,0-5.9,0.1c0,0.4,0,1.3,0,2.9v2.9v8.6c0.5,0,0.8,0.1,1.1,0.1c3.2,0,5.5-0.1,6.9-0.2
	c1.4-0.1,2.2-0.4,2.5-0.6c0.4-0.2,0.7-0.7,0.8-1.3c0.1-0.5,0.5-1.9,0.9-4.3h0.4h1.6c0,1.7,0.1,3.1,0.1,4c0,2.1,0,3.4,0,4
	c0,0.6,0,1,0,1.4v0.5c0,0.5,0,1.2,0,2c0,1.1,0,2,0,2.6v0.7H308c0-0.4-0.2-1-0.4-2c-0.4-1.8-0.7-2.9-1-3.4c-0.2-0.4-0.7-0.7-1.1-0.8
	c-0.4-0.2-1.7-0.2-4-0.2s-4.8,0-6.2,0.2v1c0,2.3,0,4.3,0.1,5.8v6.3c0,0.7,0.2,1.3,0.7,1.6c0.7,0.4,3,0.7,6.8,0.7
	c3.8,0,4.6-0.2,6.4-0.7c1.2-0.3,2.3-0.9,3.2-2c1.2-1.3,2.3-3.2,3.1-5.5c0.6-0.1,1-0.1,1.4-0.1h0.8c0,0.5,0,0.9-0.1,1.3l-0.2,0.8
	l-1,5.5l-0.5,3.4c-1.1,0-2.1,0.1-2.8,0.1c-1,0-3.7-0.1-8.1-0.3c-3.1-0.2-6.8-0.2-11.2-0.2s-4.8,0.1-7.9,0.3h-1.1l-3.3,0.1v-2
	c0.4-0.1,1-0.2,2.1-0.4c1.9-0.2,3.2-0.5,3.8-0.9c0.2-0.6,0.3-1.3,0.3-2.1v-13.7v-3.4l-0.1-4.7v-3.4l-0.2-3.6c0-0.1,0-0.3,0-0.6
	c-0.2-0.2-0.5-0.4-0.8-0.4c-0.2-0.1-0.5-0.1-0.8-0.2c-1-0.2-2-0.4-2.9-0.4c-0.4,0-0.7,0-1.2-0.1l0.3-2.3L281.9,281.9z M578.5,281.8
	c1,0.1,1.9,0.2,2.6,0.3c1.4,0.2,3.1,0.4,5,0.4s2.3,0,5-0.2c3.7-0.2,7.3-0.3,10.9-0.3h4.9c1.1,0,2.7,0.1,4.9,0.4
	c0.3,0.4,0.5,0.9,0.5,1.6v7.3c0,0.1,0,0.3,0,0.5h-1.1c-0.2,0-0.5,0-0.9,0c-0.2-0.4-0.4-1-0.7-1.7l-1.1-2.1c-0.5-1-1-1.9-1.7-2.7
	c-0.5-0.1-1.1-0.2-1.7-0.2c-0.2,0-0.7-0.1-1.6-0.2c-1.8-0.2-3.6-0.2-5.4-0.2c-2.2,0-4.1,0-5.9,0.1c0,0.4,0,1.7,0,4v10.5
	c0.5,0,0.8,0.1,1.1,0.1c3.2,0,5.5-0.1,6.9-0.2c1.4-0.1,2.2-0.4,2.5-0.6c0.4-0.2,0.7-0.7,0.8-1.3c0.1-0.5,0.5-1.9,0.9-4.3h0.4h1.6
	c0,1.7,0.1,3.1,0.1,4c0,2.1,0,3.4,0,4c0,0.6,0,1,0,1.4c0,0.5,0,1.4,0,2.5s0,2,0,2.6v0.7h-1.9c-0.1-0.7-0.2-1.3-0.4-2
	c-0.4-1.8-0.7-2.9-1-3.4c-0.2-0.4-0.7-0.7-1.1-0.8c-0.4-0.2-1.7-0.2-4-0.2c-2.3,0-4.8,0-6.2,0.2v1c0,2.3,0,4.3,0.1,5.8v6.3
	c0,0.7,0.2,1.3,0.7,1.6c0.7,0.4,3,0.7,6.8,0.7c3.8,0,4.6-0.2,6.4-0.7c1.2-0.3,2.3-0.9,3.2-2c1.2-1.3,2.3-3.2,3.1-5.5
	c0.6-0.1,1-0.1,1.4-0.1h0.8c0,0.5,0,0.9-0.1,1.3l-0.2,0.8l-1,5.5l-0.5,3.4c-1.1,0-2.1,0.1-2.8,0.1s-3.7-0.1-8.1-0.3
	c-3.1-0.2-6.8-0.2-11.2-0.2c-4.3,0-4.8,0.1-8,0.3h-1.1l-3.3,0.1v-2c0.4-0.1,1-0.2,2.1-0.4c1.9-0.2,3.2-0.5,3.8-0.9
	c0.2-0.6,0.3-1.3,0.3-2.1v-13.7v-3.4l-0.1-4.7v-3.4l-0.2-3.6c0-0.1,0-0.3,0-0.6c-0.2-0.2-0.5-0.4-0.8-0.4c-0.2-0.1-0.5-0.1-0.8-0.2
	c-1-0.2-2-0.4-2.9-0.4c-0.4,0-0.8,0-1.2-0.1l0.2-2.3L578.5,281.8z M410.5,281.6c3.7,0,6.7,1,8.8,3.1c2.2,2,3.3,4.4,3.3,7
	s-0.7,3.8-1.8,5.4c-1.1,1.6-3,2.9-5.4,3.7c0.2,0.4,0.5,0.8,0.8,1.4c0.7,1.1,1.4,2.2,1.9,3l4.3,7.6c1.1,2,1.8,3.2,2.2,3.5
	c0.4,0.4,1,0.7,2.1,1.1c0.8,0.3,1.4,0.7,1.9,1c0.1,0.3,0.2,0.5,0.2,0.8v0.7h-1.3l-1.4-0.2H425c-0.7-0.1-1.4-0.2-2.2-0.2h-2.7
	c-0.2,0-0.8,0.1-1.9,0.2c-0.5,0-0.8,0-1.1,0.1l-0.9-2c-0.8-1.4-1.3-2.5-1.6-3.3c-0.8-1.9-2.2-4.9-4.1-9.1c-0.9-2-1.6-3.1-1.9-3.3
	c-0.5-0.4-1.4-0.7-2.8-0.7s-1,0-1.9,0c0,0.6,0,1.2,0,2l0.1,6.5l-0.2,5.5c0.5,0.3,1.1,0.6,2,0.7c1.4,0.3,2.6,0.7,3.7,1.1
	c0,1,0,1.7-0.1,2.2h-1.7c-3.8-0.4-6.2-0.5-6.9-0.5h-1l-3.8,0.3c-1.1,0.1-2.2,0.2-3.1,0.2h-1.1c0-0.5,0-0.8,0-0.9
	c0-0.2,0-0.5-0.1-0.7c0.5-0.2,1.1-0.5,2.1-0.6c0.8-0.1,1.7-0.3,2.5-0.7c0.1-0.4,0.2-0.7,0.2-0.8s0-0.7,0-1.4v-7.9l0.1-3.5v-2.7v-1.6
	c0-2.1,0-4.1,0-6V292c0-2.3,0-4.7-0.1-7l-1.6-0.4c-1.5-0.1-2.5-0.2-2.9-0.3v-1.8v-0.4c0.9-0.2,1.7-0.2,2.5-0.2c0.7,0,1.3,0,2.5,0
	c1.3,0.1,2,0.2,2.2,0.2h1.4l3.4-0.2c2.2-0.2,4.4-0.4,6.7-0.4L410.5,281.6z M379.9,281.6c0.1,0.7,0.2,1.2,0.2,1.8l0.4,5.5
	c0,0.7,0,1-0.2,1.4c-0.7,0-1.1,0.1-1.4,0.1c-0.3,0-0.6-0.1-0.8-0.3c-0.1-0.1-0.4-0.6-0.7-1.3c-0.8-2-1.4-3.2-1.9-3.5
	c-0.5-0.4-2-0.5-4.4-0.5l-3.8,0.1c-1.6,0-2.8,0.1-3.8,0.3c-0.2,0-0.5,0.1-0.8,0.3c-0.2,0.5-0.4,1.1-0.4,1.7v3.5v4c0,2,0,3.3,0.2,3.7
	c0.2,0.2,0.3,0.2,0.4,0.2h1.9h3.2c0.7,0,1.8-0.1,3.3-0.3c1-0.1,1.7-0.3,1.9-0.5c0.4-0.4,0.8-0.8,0.9-1.2c0.2-0.5,0.4-1.7,0.4-3.5
	c0.1,0,0.4,0,0.8,0h0.7c0.2,0,0.6,0,1.1,0l-0.2,4.7c0,1,0,1.9,0,2.6v0.7v5.2c-0.4,0-0.7,0.1-0.8,0.1s-0.5,0-1.1-0.2
	c-0.1-0.4-0.4-0.9-0.5-1.6c-0.4-1.6-0.8-2.5-1.3-2.7c-0.8-0.5-3.6-0.7-8.2-0.7s-1.4,0.1-2.3,0.2c-0.1,0.8-0.2,1.8-0.2,2.9l0.1,8.8
	c0,1.6,0.2,2.6,0.5,3c0.2,0.2,0.8,0.5,2,0.7h0.5c0.8,0.1,1.5,0.3,2.2,0.5l0.8,0.2c0,0.5,0.1,0.9,0.1,1.2s0,0.7,0,1.1h-0.5h-0.8
	l-3.8-0.2c-0.3,0-1.4,0-3.2,0h-2.9c-1,0-1.9,0-2.8,0.2c-1.4,0.2-2.2,0.3-2.3,0.3c-1.1,0-2,0-2.4,0v-2.1c0.5-0.1,1.1-0.2,2-0.5
	l2.8-0.7l0.5-0.4c0.2-0.8,0.3-1.6,0.3-2.4V314l-0.1-6.7v-2.9l-0.2-4.3v-5l-0.3-9.8c-0.2-0.2-1.1-0.5-2.6-0.8c-0.4,0-0.8-0.2-1.6-0.5
	l-0.7-0.2v-2.1l3.6,0.1c2.2,0.2,5.3,0.4,9.5,0.4c4.2,0,4.3,0,6.6-0.2h3.5l4.9-0.2c0.2,0,0.5,0,0.8,0c0.4,0,0.7,0,1,0L379.9,281.6z
	 M248.2,281.1c4,0,6.9,0.3,8.8,0.7c2.8,0.7,5.1,1.9,6.9,3.4c2.3,1.9,4.1,4.3,5.3,7c1.2,2.6,1.8,5.6,1.8,8.7s-0.8,7.4-2.3,10.2
	s-3.8,5-6.8,6.8c-2.1,1.3-4.9,1.9-8.5,1.9l-5.5-0.2h-1.7h-2.2h-0.7h-2.3h-3c-0.1,0-1,0-2.8,0.2c-0.6,0-1.3,0-2.3,0h-1.3
	c0-0.5,0-1.2-0.1-2.4c0.3,0,0.8-0.2,1.7-0.4c1.7-0.4,2.8-0.7,3.3-1.3c0.4-0.4,0.5-1,0.7-1.9v-0.1c0-0.7,0.1-3.6,0.2-8.8v-17.2v-1.1
	c0-0.4-0.1-0.8-0.4-1.1c-0.1-0.2-0.5-0.2-1-0.2c-0.5,0-1,0-1.6,0.2c-0.8,0-1.5,0.1-2.2,0.2c-0.1,0-0.3,0-0.5,0V283
	c1-0.4,2.5-0.7,4.5-1.1C239.3,281.3,243.4,281.1,248.2,281.1L248.2,281.1z M454.7,281l0.2,0.5l4.7,12.1c1.1,2.6,2,5,2.9,7.5
	c0.8,2.5,1.6,4.4,2.2,5.9c0.4,0.9,0.8,2.3,1.5,4.1c0.4,1,0.8,2.2,1.5,3.7c0.4,0.8,0.7,1.3,0.8,1.4c0.3,0.3,0.8,0.5,1.6,0.6
	c0.8,0.1,1.5,0.4,2.3,0.7c0,0.7,0.1,1.1,0.1,1.4v0.7c-1.3,0-2.8-0.1-4.4-0.2c-1.6-0.2-3.1-0.2-4.3-0.2s-2.4,0-3.1,0l-4.6,0.3h-1.3
	c0-0.7,0-1.3,0-1.9l3-0.7c0.9-0.2,1.4-0.5,1.6-0.6c0.2-0.2,0.3-0.4,0.3-0.7s0-0.5-0.1-0.8l-1.1-2.9l-2.2-5.8H446
	c-0.8,2.3-1.6,4.6-2.3,6.9c-0.4,1-0.5,1.7-0.5,2.1c0,0.4,0.2,0.8,0.4,1.1c0.4,0.4,1.2,0.7,2.3,0.8c0.2,0,0.8,0.2,1.9,0.4
	c0,0.7,0,1.2,0,1.5c0,0.3,0,0.5,0,0.7c-1.1,0-3.8-0.2-8-0.5l-1.1,0.2c-1.3,0.2-2.5,0.4-3.8,0.4h-0.5v-2c0.4-0.1,1-0.3,1.9-0.5
	c1.4-0.3,2.3-0.6,2.5-0.8c0.3-0.2,0.7-0.8,1.1-1.7l5.4-15.5l6.4-18.2h2.9L454.7,281z M249.5,283.9c-1.9,0-3.4,0.3-4.7,0.8
	c0,0.7,0,1,0,1.3v5v4.3c0,1.4,0,2.6,0,3.7v2.8v4.7v2.9c0,2.7,0.4,4.5,1.3,5.5c1.3,1.4,3.2,2.1,5.5,2.1s3.1-0.2,3.9-0.6
	c1.6-0.6,3.1-1.6,4.2-2.9c1-1.3,1.9-3,2.3-5.2c0.5-2.3,0.8-4.6,0.8-7c0-4-0.6-7.2-1.7-9.7c-1.2-2.5-2.8-4.4-4.8-5.6
	c-2-1.3-4.3-1.9-6.9-1.9L249.5,283.9z M451.1,292l-3.9,11.3c4.2,0,6.7,0.1,7.4,0.1h0.7c-0.6-1.8-1.3-3.8-2.2-6.2
	C452.4,295,451.6,293.2,451.1,292L451.1,292z M406,284.3c-0.8,0-1.6,0-2.2,0.2v0.6v4v2.4v3.2c0,0.9,0,2.1,0,3.5h-0.1v0.7
	c0.8,0,1.5,0,1.9,0c3.1,0,5.3-0.6,6.5-1.8c1.3-1.2,1.9-2.8,1.9-4.8c0-2-0.2-2.3-0.5-3.5c-0.3-1.1-0.7-1.9-1.1-2.4
	c-0.7-0.7-1.5-1.3-2.6-1.7c-0.8-0.3-2.1-0.5-3.8-0.5L406,284.3z M332.5,215.7c3.8,0,7,0.8,9.8,2.3c2.7,1.5,4.9,3.6,6.5,6.2
	c2,3.4,3.1,6.9,3.1,10.6c0,5.5-1.7,10.3-5.2,14.2c-3.5,4-8.3,5.9-14.5,5.9c-1.4,0-2.9-0.1-4.3-0.4c-0.9-0.1-1.8-0.3-2.6-0.7
	l-0.8-0.3l-0.7-0.2c-0.3-0.1-0.5-0.2-0.8-0.3c-1.7-1-3.3-2.3-4.7-3.7c-1.2-1.3-2.2-2.8-3-4.3c-0.5-0.9-1-2.5-1.6-4.9
	c-0.4-1.5-0.5-3.3-0.5-5.2s0.4-4.9,1.3-7.3c0.7-1.7,1.5-3.4,2.6-4.9c1.2-1.5,2.6-2.8,4.3-3.9c1.6-1.1,3.4-1.9,5.3-2.5
	C328.3,215.9,330.3,215.7,332.5,215.7L332.5,215.7z M287.4,215.6c2.3,0,4.3,0.1,6.3,0.4c2,0.2,3.8,0.7,5.6,1.2
	c0.2,0.6,0.8,2.2,1.4,5c0.4,1.2,0.5,2.5,0.5,4h-2.5c-1.7-2.7-3.5-4.6-5.4-5.8c-1.9-1.1-4-1.7-6.2-1.7c-2.8,0-5,1.2-6.8,3.5
	c-2.3,3.2-3.5,7.7-3.5,13.4c0,5.7,0.2,5.6,0.6,7.1c0.7,2.2,1.5,4.1,2.5,5.6c0.8,1.1,1.7,2,2.9,2.6c1.6,0.8,3.3,1.3,5.1,1.3
	c1.8,0,3.8-0.7,5.7-2c1.9-1.3,3.7-3.4,5.3-6c0.7-0.1,1.5-0.2,2.6-0.2c-0.1,0.8-0.2,1.6-0.4,2.3c0,0.4-0.3,1.6-0.7,3.7l-0.2,0.8
	l-0.4,1.4c-1.1,0.9-2.6,1.6-4.6,2.1c-2,0.5-4.4,0.7-7.3,0.7c-2.9,0-4.3-0.2-6.3-0.7c-2-0.5-3.7-1.1-5.1-2.1
	c-2.1-1.4-3.7-2.9-4.9-4.6c-1.1-1.6-2-3.4-2.6-5.3c-0.6-1.9-0.8-4.1-0.8-6.5c0-5.8,1.7-10.6,5.3-14.5c3.6-3.8,8.1-5.7,13.6-5.7
	L287.4,215.6z M515.1,215.6c0.4,0,0.9,0,1.7,0.2c2.2,0,4.3,0.4,6.2,0.9c1.9,0.7,3.5,1.3,4.7,2.1c0.1,0.6,0.3,1.7,0.5,3.4
	c0.2,1.7,0.2,2.9,0.2,3.7c0,0.3,0,0.6-0.2,0.9c-0.8,0-1.4-0.1-2-0.2c-1.4-2.3-2.3-3.7-2.9-4.3c-1-1.1-2.4-2.1-4-2.8
	c-1.2-0.6-2.6-0.8-4.1-0.8c-3,0-5.6,1.4-8,4.4c-2.3,2.9-3.5,7.3-3.5,13.1s0.5,5.4,1.3,7.9c0.8,2.6,2.2,4.6,4,6.1
	c1.8,1.4,4,2.2,6.3,2.2c1.2,0,2.4-0.2,3.8-0.5c0.7-0.1,1.2-0.5,1.6-0.9c0.3-0.3,0.5-0.7,0.6-1.4c0.2-1.1,0.2-2.8,0.2-4.9v-1.9
	c0-1.1,0-1.9,0-2.3c-0.1-0.3-0.2-0.5-0.4-0.6c-0.4-0.2-0.7-0.3-1.1-0.4l-2.4-0.7c-0.5-0.2-0.8-0.4-1-0.5c0-0.3,0-0.5,0-0.6
	c0-0.3,0-0.7,0.2-1.1c0.4-0.1,0.6-0.2,0.7-0.2c2,0,3.7,0.1,5.1,0.2c0.5,0,1.1,0,1.7,0h4.3l1.8-0.1c0.2,0,0.8,0,1.8,0
	c0,0.5,0,1,0,1.3c0,0.2-0.1,0.5-0.2,0.7c-0.3,0.2-0.8,0.5-1.6,0.7c-0.7,0.3-1.2,0.5-1.3,0.6c-0.2,0.2-0.2,0.5-0.3,0.7
	c0,0.5-0.1,1.1,0,1.7v1.9v0.5c0,2,0,3.2,0,3.6c0,1.4-0.1,2.3-0.1,2.5c0,0.7-0.1,1.1-0.3,1.3c-0.5,0.5-2.1,1.1-4.7,1.9
	c-2.6,0.7-5.6,1-9.1,1c-3.5,0-4.6-0.2-6.4-0.7c-1.6-0.4-3.2-1-4.6-1.9c-1.7-1.1-3.1-2.4-4.3-4c-1.2-1.5-2.1-3.2-2.7-5
	c-0.8-2.5-1.3-5.1-1.3-7.7c0-2.9,0.7-5.8,1.9-8.8c0.9-2.1,2.2-4.1,3.8-5.8c1.6-1.7,3.7-3.1,6.1-4.1c2.6-1,5.3-1.5,8-1.5l0,0
	L515.1,215.6z M541.4,216.4c1,0,1.9,0.2,2.6,0.3c1.4,0.2,3.1,0.4,5,0.4s2.3,0,5-0.2c3.7-0.2,7.3-0.3,10.9-0.3l5-0.1
	c1.1,0,2.7,0.2,4.9,0.5c0.3,0.4,0.5,0.9,0.5,1.6v6.1l0.1,1.2v0.5h-1.1c-0.2,0-0.5,0-0.9,0c-0.2-0.4-0.4-1-0.7-1.7l-1.1-2.1
	c-0.5-1-1-1.9-1.7-2.7c-0.5-0.1-1.1-0.2-1.7-0.2c-0.2,0-0.8,0-1.7-0.1c-1.8-0.2-3.6-0.2-5.4-0.2c-2.2,0-4.1,0-5.9,0.1
	c0,0.3,0,1.3,0,2.9v1.6v9.9c0.5,0,0.8,0,1.1,0h0.8c2.8,0,4.9-0.1,6.1-0.2c1.4-0.1,2.2-0.4,2.5-0.6c0.4-0.2,0.7-0.7,0.8-1.3
	c0.1-0.4,0.5-1.9,0.9-4.3h0.4h1.6c0,1.7,0.1,3.1,0.1,4v1.7c0,1.1,0,1.9,0,2.3c0,0.6,0,1,0,1.4c0,0.5,0,1.4,0,2.5c0,0.8,0,1.4,0,1.9
	v1.3h-1.9c0-0.4-0.2-1-0.4-2c-0.4-1.8-0.7-2.9-1-3.4c-0.2-0.4-0.7-0.7-1.1-0.8c-0.4-0.1-1.7-0.2-4-0.2c-2.3,0-4.8,0-6.2,0.2v1
	c0,2.3,0,4.3,0.1,5.8v6.3c0,0.7,0.2,1.3,0.7,1.6c0.7,0.5,3.1,0.7,6.8,0.7s4.6-0.2,6.4-0.7c1.2-0.3,2.3-0.9,3.2-2
	c1.2-1.3,2.3-3.2,3.1-5.5c0.6,0,1,0,1.4,0h0.9c0,0.5,0,0.8-0.1,1.2l-0.2,0.9l-1,5.5l-0.5,3.4c-1.1,0-2.1,0.1-2.8,0.1
	c-1,0-3.7-0.1-8.1-0.3c-3.1-0.2-6.8-0.2-11.2-0.2c-4.3,0-4.8,0.1-8,0.3h-1.1l-3.3,0.1v-2c0.4-0.1,1-0.2,2.1-0.4
	c1.9-0.2,3.2-0.5,3.8-0.9c0.2-0.6,0.3-1.3,0.3-2.1v-13.7V232v-4.7v-3.4l-0.2-3.6c0,0,0-0.3,0-0.6c-0.2-0.2-0.5-0.4-0.8-0.4
	c-0.2-0.1-0.5-0.1-0.8-0.2c-1-0.2-2-0.4-3-0.4c-0.4,0-0.8,0-1.2-0.1v-2.3L541.4,216.4z M447.4,216.4c1,0,1.9,0.2,2.6,0.3
	c1.4,0.2,3.1,0.4,5,0.4s2.3,0,5-0.2c3.7-0.2,7.3-0.3,10.9-0.3l4.9-0.1c1.1,0,2.7,0.2,4.9,0.5c0.3,0.4,0.5,0.9,0.5,1.6v7.3v0.5h-1.1
	c-0.2,0-0.5,0-0.9,0c-0.2-0.4-0.4-1-0.7-1.7l-1.1-2.1c-0.5-1-1-1.9-1.7-2.7c-0.5-0.1-1.1-0.2-1.7-0.2c-0.2,0-0.8,0-1.7-0.1
	c-1.8-0.2-3.6-0.2-5.4-0.2c-2.2,0-4.1,0-5.9,0.1c0,0.5,0,2.4,0,5.8v4.9v3.7c0.5,0,0.8,0,1.1,0h0.8c2.8,0,4.9-0.1,6.1-0.2
	c1.4-0.1,2.2-0.4,2.5-0.6c0.4-0.2,0.7-0.7,0.8-1.3c0.2-0.4,0.5-1.9,1-4.3h0.4h1.6c0,1.7,0.1,3.1,0.1,4c0,2.1,0,3.4,0,4
	c0,0.6,0,1,0,1.4c0,0.5,0,1.4,0,2.5c0,1.1,0,2,0,2.6v0.7h-1.9c0-0.4-0.2-1-0.4-2c-0.4-1.8-0.7-2.9-1-3.4c-0.2-0.4-0.7-0.7-1.1-0.8
	c-0.4-0.1-1.7-0.2-4-0.2c-2.3,0-4.7,0-6.1,0.2v1c0,2.3,0,4.3,0.1,5.8v6.3c0,0.7,0.2,1.3,0.7,1.6c0.7,0.5,3,0.7,6.8,0.7
	c3.8,0,4.7-0.2,6.4-0.7c1.2-0.3,2.3-0.9,3.2-2c1.2-1.3,2.3-3.2,3.1-5.5c0.6,0,1,0,1.4,0h0.8c0,0.5,0,0.8-0.1,1.2l-0.2,0.9l-1,5.5
	l-0.5,3.4c-1.1,0-2.1,0.1-2.8,0.1c-0.7,0-3.7-0.1-8.1-0.3c-3.1-0.2-6.8-0.2-11.2-0.2s-4.8,0.1-8,0.3h-1.1l-3.3,0.1v-2
	c0.4-0.1,1-0.2,2.1-0.4c1.9-0.2,3.2-0.5,3.8-0.9c0.2-0.6,0.3-1.3,0.3-2.1s0-0.9,0-1.7v-0.9v-11V232l-0.1-4.7v-3.4l-0.2-3.6
	c0,0,0-0.3,0-0.6c-0.2-0.2-0.5-0.4-0.8-0.4c-0.2-0.1-0.5-0.1-0.8-0.2c-1-0.2-2-0.4-2.9-0.4c-0.4,0-0.8,0-1.2-0.1v-2.3L447.4,216.4z
	 M423.4,216.1c0.3,0,0.5,0,0.6,0.2c0.2,0.2,0.2,0.6,0.2,1.1s-0.1,0.8-0.3,1c-0.1,0.1-0.5,0.2-1.2,0.4l-3.4,0.8l-0.5,0.2l-0.2,0.4
	v0.8l-0.1,1.9v1c0,0.2,0,0.7,0,1.4v1c0,0.4,0,0.8,0,1.4c0,1.2,0,2.2,0,3.1c0,0.9,0,2.2,0,3.5c0,0.5,0,1.1,0,1.9l-0.1,13.9
	c0,0.6,0.1,1,0.3,1.1l2.6,0.1h3.3c2.9,0,5.2-0.4,6.8-1.1c1.2-0.5,2-1.1,2.4-1.6c0.6-0.5,1.1-1.2,1.5-1.9c0.4-0.7,0.8-1.9,1.3-3.4
	h0.8c0.4,0,0.9,0,1.4,0.1v0.8c0,1.4-0.1,3.8-0.5,7.4c-0.2,1.4-0.3,2.2-0.4,2.6c-0.5,0-0.7,0.1-0.8,0.1h-2.3c-0.2,0-1.3,0-3.2-0.2
	c-0.4,0-2.1,0-5.2-0.2c-3-0.1-6.1-0.2-9.1-0.2l-5.5,0.2c-2.1,0-4.1,0.2-5.9,0.4h-0.4c-0.1,0-0.3,0-0.5,0c0-0.2,0-0.4,0-0.6
	c0-0.8,0-1.4,0.1-1.9c0.8-0.2,1.6-0.4,2.3-0.5c1-0.2,1.6-0.2,1.8-0.2c0.7,0,1.1-0.1,1.4-0.4c0.1-0.5,0.2-0.8,0.2-1.1v-3.7l0.1-3.8
	v-5.3v-3.1l0.1-6.5v-3v-0.4c-0.1-2-0.2-3.2-0.4-3.4c-0.1-0.2-0.7-0.5-1.6-0.8c-0.1,0-0.5-0.2-1-0.5c-0.5-0.2-0.8-0.4-1.2-0.4
	c-0.7-0.2-1.1-0.4-1.3-0.7c0-0.5,0-0.8,0-1.1c0-0.3,0-0.4,0-0.7c0.2-0.1,0.4-0.2,0.5-0.2c0.4,0,2,0,4.7,0.2h3.8h2.9
	c1.3,0,2.8,0,4.8-0.2C423.1,216.1,423.4,216.1,423.4,216.1L423.4,216.1z M381,216.1c0.3,0,0.5,0,0.6,0.2c0.2,0.2,0.2,0.6,0.2,1.1
	s-0.1,0.8-0.3,1c-0.1,0.1-0.5,0.2-1.2,0.4l-3.4,0.8l-0.5,0.2l-0.2,0.4v0.8l-0.1,1.9v1c0,0.2,0,0.7,0,1.4v1c0,0.4,0,0.8,0,1.4
	c0,1.2,0,2.2,0,3.1v0.7c0,0.8,0,1.8,0,2.9v1.9l-0.1,13.9c0,0.6,0.1,1,0.3,1.1l2.5,0.1h3.3c2.9,0,5.2-0.4,6.8-1.1
	c1.2-0.5,2.1-1.1,2.4-1.6c0.6-0.5,1.1-1.2,1.5-1.9c0.4-0.7,0.8-1.9,1.3-3.4h0.8c0.4,0,0.9,0,1.4,0.1v0.8c0,1.4-0.1,3.8-0.5,7.4
	c-0.1,1.4-0.2,2.2-0.4,2.6c-0.5,0-0.7,0.1-0.8,0.1h-2.3c-0.2,0-1.3,0-3.2-0.2c-0.4,0-2.1,0-5.2-0.2c-3-0.1-6.1-0.2-9.1-0.2l-5.5,0.2
	c-2.1,0-4.1,0.2-5.9,0.4h-0.4c-0.1,0-0.3,0-0.5,0c0-0.2,0-0.4,0-0.6c0-0.8,0-1.4,0-1.9c0.8-0.2,1.6-0.4,2.3-0.5
	c1-0.2,1.6-0.2,1.8-0.2c0.7,0,1.1-0.1,1.4-0.4c0.1-0.5,0.2-0.8,0.2-1.1v-3.7l0.1-3.8v-5.3v-3.1l0.1-6.5v-3v-0.4
	c-0.1-2.1-0.2-3.2-0.4-3.4c-0.1-0.2-0.7-0.5-1.6-0.8c-0.4-0.2-0.7-0.3-1-0.5c-0.5-0.2-0.8-0.4-1.2-0.4c-0.7-0.2-1.1-0.4-1.3-0.7
	c0-0.5,0-0.8,0-1.1v-0.7c0.2-0.1,0.4-0.2,0.5-0.2c0.4,0,2,0,4.7,0.2h3.9h2.9c1.3,0,2.8,0,4.8-0.2C380.6,216.1,380.9,216.1,381,216.1
	L381,216.1z M331.4,218.6c-1.6,0-2.9,0.4-4.1,1.2c-1.2,0.8-2.1,1.7-2.7,2.6c-1,1.6-1.8,3.5-2.2,5.3c-0.4,1.9-0.7,4.3-0.7,7
	s0,2.9,0.2,3.6c0,0.2,0.1,0.7,0.2,1.2c0.2,1.4,0.4,2.5,0.6,3.2c0.8,2.5,1.3,4,1.7,4.6c0.6,1,1.4,2,2.4,3c0.6,0.5,1.3,1,2.3,1.4
	s2,0.7,3.1,0.7c1.9,0,3.8-0.5,5.4-1.5c1.7-1,3-2.7,4-5c1-2.3,1.5-5.5,1.5-9.2c0-3.8-0.1-3.7-0.3-6.4l-0.1-0.6
	c-0.1-0.4-0.2-0.8-0.3-1.2c-0.7-3.2-1.9-5.7-3.8-7.4C336.7,219.4,334.3,218.6,331.4,218.6L331.4,218.6L331.4,218.6z M467.4,204.2
	c0.2,0.6,0.4,1.1,0.6,1.8c0.2,0.9,0.5,1.7,0.7,2.4c0.8,2.6,1.3,4.4,1.5,5.2l-2.2-0.1l-8-9.3H467.4z"/>
</svg>
