<?xml version="1.0" encoding="utf-8"?>
<!-- Generator: Adobe Illustrator 24.3.0, SVG Export Plug-In . SVG Version: 6.00 Build 0)  -->
<svg version="1.1" id="Layer_1" xmlns="http://www.w3.org/2000/svg" xmlns:xlink="http://www.w3.org/1999/xlink" x="0px" y="0px"
	 viewBox="0 0 1024 512" style="enable-background:new 0 0 1024 512;" xml:space="preserve">
<style type="text/css">
	.st0{fill-rule:evenodd;clip-rule:evenodd;fill:#FFFFFF;}
	.st1{fill:#6E1E6F;}
	.st2{fill:#E5A823;}
	.st3{fill:#F1DEAE;}
</style>
<g transform="matrix(.541667 0 0 .541667 -44.9999 -16.6667)">
	<g>
		<path class="st0" d="M662.8,441.9c-0.4-0.4-1-0.8-2.1-0.8c-11-1.2-20.7-3.9-28.3-7.6c-7.2-3.5-14.7-8.8-22.4-15.3
			c4.7-0.7,10-0.8,16.4-1c10.2-0.2,12.3-0.4,12.9-0.7c1.6-0.4,2.1-1.4,2.1-2.2c0-1.6-1-3.1-2.9-4.1c-1.7-1-3.6-1.4-5.7-1.4
			c-1.6,0-5,0.7-10.5,2.1c0,0-11.4,2.2-15.2,3.1c0.2-1.6,0.8-5.5,0.8-5.5l0.4-0.8l0.8-1.9c0-1.6-1.7-2.9-5-4.3
			c7.6-1.9,14.3-3.3,19.8-4.3c1.7,0,1.7-1.2,1.7-1.4c0-0.8-0.4-1.9-5.1-5.1c-3.3-2.4-5.7-3.5-7.4-3.5c-0.2,0-1,0-1.4,0.7
			c0,0.2-0.7,2.1-0.8,2.6c-2.9,2.6-11.9,6.9-27,12.9l-1,0.1l1.4,1.9h0.4c4.5-0.2,9.5-1,14.1-2.4l0,0c0,0.2,1.2,5.7,1.2,5.7
			c0.4,1.9,0.7,3.9,0.7,5.7c0,0,0,0,0,0.2c-1.4,0.2-16.2,2.6-16.2,2.6c-7.6,1.4-14.1,2.2-19,2.6l-2.1,0.2l1.4,1.4
			c2.9,2.9,5.5,4.3,7.8,4.3c0.7,0,2.1-0.2,8-1.4c0,0,7.6-1.6,11.7-2.4c-9.5,13.3-22.7,24-39.7,31.5l-0.7,0.2v1.2
			c0,0.2,0,1.2,1.4,1.2c2.9,0,6.4-0.8,11-2.9c4.5-1.9,8.6-3.9,12.1-6.4c3.5-2.2,6.7-5,9.8-7.8c3.1-2.9,5.9-5.9,8.6-9.2
			c0,0,3.8-5.1,5.9-8c-0.2,3.5-0.7,6.7-1.2,9.5c-1,3.6-1.4,5.7-1.4,6.9c0,2.1,0.8,4.3,2.4,6.7v0.2l0.4,0.2l0.2,0.2l1.2,0.4
			c1.2,0,2.1-1.2,3.1-4.7c0.8-2.9,1.4-6.2,1.4-10.2c0,0-0.2-6.5-0.4-10.2c2.4,3.1,6.9,7.6,14.1,14.1c8.8,8.1,14.7,12.3,18,12.3
			c3.5,0,11.2-1.2,23.5-3.6h0.7l0.2-0.7c0-0.2,0-0.4,0-0.7C663.2,442.4,663.1,442.1,662.8,441.9 M622.5,445
			c-3.5-1.4-5.9-2.2-7.6-2.2c-0.2,0-6.4,2.2-6.4,2.2c-4.7,1.4-9,2.4-12.9,2.9l-6.4,0.8l-2.1-0.4l-3.6-0.7c-2.2,0-2.6,1.2-2.6,1.9
			c0,0.4,1.9,4.3,1.9,4.3c0.4,1.2,0.8,3.3,1,5.9l0.4,9.5c0,3.6-0.2,6.4-0.7,8l-0.7,4.3c0,2.4,0.4,4.9,1.4,7.4
			c1.2,2.9,2.1,3.9,3.1,3.9c1,0,1.9-0.8,2.6-9.6c0.7,0,1.6,0.2,1.6,0.2l8.6-1l7.4-1c1,0,1.9,0.4,2.4,1c0.8,0.8,1.4,1.9,2.1,3.3
			l2.1,5.1l1.6,4.7h0.4l1.9,0.4l0.4-0.2c5-3.9,7.4-10.9,7.4-20.5l-0.4-14.1c0-6.2,0.8-8,1.2-8.6c1.2-1.9,1.4-2.4,1.4-2.9
			C628.1,447.9,626.4,446.5,622.5,445 M616.2,478.8l-1.4-1.4c-1.4-1.6-2.9-2.2-4.5-2.2c-1.9,0-5.1,0.7-10.2,1.7
			c-4.3,1-7.4,1.4-9.5,1.6c0-1.6-0.2-9.2-0.2-10.7c3.9,0,8.4-0.4,13.1-1.2c8-1.2,8.1-1.4,8.4-1.9l0.4-1.2c0-1-0.8-2.1-2.4-2.9
			c-1.4-0.8-2.9-1-4.5-1c-1.9,0-3.8,0.4-6.7,1.4l-5.1,1.6c0,0-2.1,0.4-3.3,0.8c0-0.8,0-1.6,0-2.6c0-2.2-0.2-4.7-0.2-7.6
			c2.6,0,5.3-0.2,8-0.8c7.4-1.6,12.3-2.4,14.7-2.4c0.8,0,1.6,0.2,2.2,0.8c0.7,0.4,0.8,1,1,1.6l0.4,6.5l0.4,9.6
			C616.8,475,616.4,477.6,616.2,478.8 M818.4,456c-12.3-3.6-21.2-7.1-26.4-10.2c-5-2.9-11.7-8.1-20.2-15.3
			c5.7-0.8,11.4-1.6,16.9-1.6l11.2-0.4c2.2-0.2,2.6-1.2,2.6-1.9c0-1-0.8-2.1-2.6-3.6c-1.6-1.4-3.6-2.2-5.7-2.2
			c-4.1,0-10.4,1.2-19,3.5c0.7-2.2,3.1-10.7,3.5-11.4c0.8-0.2,3.5-0.4,3.5-0.4l6.5-0.7c2.4-0.2,5.5-0.8,5.5-3.1c0-1.7-1-3.5-5.5-3.5
			c-1.4,0-4.1,0.4-7.4,1.2c1.2-2.4,5.5-12.3,5.5-12.3l-0.2-0.2c-0.4-1.2-2.1-2.4-5.3-3.9c-2.9-1.2-5.1-1.9-6.5-1.9h-0.3l-0.2,0.2
			c-0.8,0.7-1,1.4-1,2.1l1,3.1c0.7,1.2,0.8,2.9,0.8,4.7c0,1.2-0.4,4.7-1.4,10c-1,0.2-13.1,2.6-15,2.9c0-1.4,0.2-4.9,0.2-4.9l0.7-6.9
			l-0.4-0.2c-3.3-2.2-6.5-3.5-9.8-3.5c-2.2,0-2.2,1.2-2.2,1.6c0,0.2,0,0.4,1.9,3.6c1,1.9,1.9,4.3,2.4,6.9c0,0,0.7,2.9,1,4.5
			c-1.4,0.2-13.3,2.6-13.3,2.6l1.4,1.2c1.9,1.6,4.1,2.4,6.5,2.4c1.2,0,3.3-0.4,5.7-1c0.2,1.6,1.2,9.2,1.4,10.7
			c-7.8,1.6-15.2,2.6-22.1,3.3l-1.7,0.2l1,1.2c1.9,2.4,4.5,3.6,8.1,3.6c2.1,0,4.3-0.4,6.7-1c0,0,2.2-0.7,4.1-1
			c-4.5,12.4-13.8,24.3-28.3,34.8l-0.4,0.4c0.4-1.4,1-2.9,1.7-4.3l11-23.5h-2.6l-7.8,9.8c-3.3,4.5-5.7,7.6-7.2,8.6
			c-1.2,1-2.6,1.7-3.8,1.7c-2.1,0.2-3.1,0.8-3.1,1.9c0,1.6,0.7,4.7,2.1,9c1.4,5,3.1,6.9,4.9,6.9c2.4,0,2.9-3.5,3.1-4.5
			c0.2-1.4,0.8-3.1,1.4-5l1.4,1l0.4-0.2c9.8-2.9,17.8-9,24-18c0.7,3.1,1,6.5,1,10.7l-0.4,9.8c0,3.6,1.4,7.1,3.9,10.2
			c2.9,3.3,8.4,5,17.2,5c5.5,0,10.9-0.7,15.7-1.9c5.5-1.2,8.1-3.1,8.1-5.7c0-1.2-0.8-2.2-2.6-3.1l-3.6-1c-1,0-2.2,0.4-3.5,1.2
			c-1,0.7-3.3,1.2-6.4,1.9c-3.1,0.7-6.5,1-10.2,1c-3.8,0-6.9-0.4-8.8-1c-1.6-0.7-2.6-2.2-2.9-4.7c0,0-0.4-5.1-0.7-7.2
			c1,0,2.2,0.2,2.2,0.2c1.2,0,4.3-0.4,9.8-1.2c8.1-1.4,8.8-2.2,9.2-2.6l0.8-2.1c0-1.4-1.4-2.2-2.4-2.9c0.7-1.2,2.1-4.5,2.1-4.5
			c0.4-1,1.2-2.1,2.2-2.6c1.6-1,2.2-1.9,2.2-2.6c0-1.2-1.4-2.6-4.5-4.3c-2.9-1.6-5-2.4-6.2-2.4c-0.4,0-5.3,2.2-5.3,2.2l-5.5,1.9
			c-2.1,0.7-4.1,0.8-5.9,0.8c0,0-0.8-0.2-1.7-0.2c1.2-1.6,4.1-5.1,4.1-5.1c4.3-5.5,4.3-5.7,4.3-6.2c0-0.8-0.7-1.7-3.1-3.5
			c2.6-0.7,9.2-1.9,9.8-2.1c0.7,0.8,11.9,13.3,11.9,13.3c4.3,4.7,8,8.4,11,11.2c3.5,2.9,5.5,4.7,6.7,5.1l4.1,0.7
			c1.2,0,4.5-0.4,10.2-1.2c8.6-1.2,9-1.9,9-2.9C819.7,456.7,819.5,456.4,818.4,456 M723.3,470.7c0.2-0.2,0.4-0.4,0.8-0.7h0.2l0,0
			L723.3,470.7z M754.6,452.4c1.7,0,3.8-0.4,6.9-1l6.7-1c0.2,0,0.4,0,0.4,0.4l0.2,2.6l-0.4,3.8l-0.8,2.4c0,0-0.4,0.7-3.3,1.2
			l-5.5,1.2c0,0-3.1,0.4-4.5,0.7L754.6,452.4L754.6,452.4z M758.9,427.1c0-3.6-0.2-7.4-0.2-11c1.2-0.2,11.7-2.2,13.8-2.6
			c-0.4,2.1-2.4,10.7-2.6,11.7C769,425.3,760.5,426.9,758.9,427.1 M734.8,414.6c1.2,0,3.5-0.7,3.5-4.3c0-3.1-1.4-5.5-4.1-7.4
			c-2.6-1.9-6.2-2.6-10.2-2.6l-4.1,0.4l1,1.2C729.5,413.4,732.9,414.6,734.8,414.6 M724,437.4c1.4,0,4.1-0.7,4.1-4.7
			c0-2.6-1-4.9-3.1-6.7c-1.9-1.9-5.9-3.1-12.4-3.6l-1.6-0.2l0.7,1.4C716,432.9,720,437.4,724,437.4 M948.8,413.8
			c-3.8-2.9-6.7-4.3-8.8-4.3c-0.4,0-1,0.2-4.5,1.4c-2.2,0.8-9,2.1-19.8,3.5c0.4-8.6,0.8-14.5,1.6-17.6l0.7-2.9c0-1.9-1.2-3.3-3.8-5
			c-2.4-1.4-5.3-2.4-8.6-2.9h-0.2h-0.2c-1.9,0.8-2.2,2.1-2.2,2.9l0.2,1c1.6,2.4,2.9,5.1,3.6,8.4c0.8,3.3,1.2,9,1.4,16.7
			c-8.4,1.2-14.3,2.1-17.6,2.1l-7.8-0.8l-8.1-0.8l-0.2,0.2c-0.4,0.2-0.8,0.8-0.8,1.9l0.4,1.9c1.9,1.9,3.1,3.6,4.1,6.2
			c1,2.4,2.1,7.8,2.9,16c0.8,9,2.6,13.3,5.9,13.3c1.4,0,2.2-2.1,2.4-7.1c1.2-0.2,17.2-1.6,19-1.6c0,1.9-0.4,17.8-0.4,17.8l-0.7,18.6
			c0,1.4,0.4,4.5,1.4,9.5c1.4,6.7,2.2,8,3.3,8h0.4l0.7-0.4c1.4-1.2,3.1-4.7,3.1-20.5c0,0-0.4-29.3-0.4-33.6
			c11.2-0.8,19.5-1.2,24.3-1.2c1.4,0,4.5,0,4.5-1.9c0-1.6-0.8-3.6-3.8-4.5c5.1-8,8.8-12.9,10.9-14.3c3.1-2.2,3.6-3.3,3.6-4.1
			C955,419,954.6,417.9,948.8,413.8 M939.1,421.4c0,1.4-0.4,4.5-1.4,8.8c-0.8,4.1-2.2,6.7-4.3,7.8c-2.1,1-8,1.9-17.8,2.9
			c0-1.9,0-19.6,0-21c9.2-1.4,15.5-2.2,19.2-2.2c2.2,0,3.1,0.7,3.3,0.8C938.8,419,939.1,420,939.1,421.4 M908,420.5v20.7
			c-1.4,0.2-17.4,1.7-19,1.9c0-7.8-0.4-14.3-1.2-19.8C889.2,423.3,906.4,420.8,908,420.5 M1058.5,401.9c5.3,4.3,9.5,6.4,12.1,6.4
			c1.7,0,3.6-1,3.6-6.2c0-2.1-1.2-3.9-3.5-5.7c-2.2-1.7-4.5-2.9-7.2-3.1c-2.2-0.4-6.4-0.7-12.1-0.8h-1l-0.2,1
			C1050.5,394.4,1051.1,395.8,1058.5,401.9 M1120.4,478.1c-13.8-1.4-24.8-3.9-32.9-7.8c-8-3.6-15.2-8.8-21.5-15.3
			c1.2-2.6,2.4-6.4,3.9-11.4l2.9-10c0.4-1.2,1-2.2,1.7-2.9l1.4-2.4c0-1-0.8-2.1-3.1-3.6c-1.2-1-2.4-1.4-3.6-2.1
			c9.5-1.6,19.5-3.1,29.8-4.1c2.2-1.4,3.1-2.4,3.1-3.6c0-1.4-1.2-2.6-3.6-3.6c-2.2-1-4.7-1.4-7.2-1.4c-4.1,0-8,1-12.1,3.3
			c-14.1,6.2-31.9,9.2-52.9,9.6h-1.7l0.8,1.4c2.2,3.3,5.5,5,10.2,5c5,0,14.3-1.6,27.8-5c0,0.2-0.4,0.4-0.4,0.8l0.4,4.3
			c0,4.1-1.4,10.9-4.1,19.5c-1.4-1.6-5.9-6.9-5.9-6.9c-3.3-4.1-5.7-6.7-7.8-7.8c-1.9-1.2-3.6-1.9-5.5-1.9c-1.2,0-5.3,0-5.3,2.6
			l0.4,1.4h0.4c6.9,3.3,14.1,9.5,21.2,18.6c-7.2,9.5-20.9,15.7-41.1,18.6l-0.2,1.9c3.3,1,6.5,1.4,9.2,1.4c3.6,0,9.8-1.2,17.6-3.5
			c7.8-2.2,14.3-6.5,19.5-12.3c6.2,6.9,12.1,12.6,17.6,17.4c5.9,5,10.2,7.1,13.1,7.1c2.2,0,6.7-0.8,13.8-2.2l13.9-2.6L1120.4,478.1z
			 M1257.8,475.4c-5.3-1.2-10.2-3.5-15-6.5c-4.7-3.1-9.2-7.4-13.5-12.3c-4.3-4.9-8.4-10.9-12.3-17.6c0-0.4,0.2-5,0.2-5.9
			c4.7-0.8,11.4-1.9,20-2.6l15.9-1.6c2.6-0.4,3.1-1.9,3.1-2.6c0-1.4-1.4-2.9-4.1-4.3c-2.4-1.4-5.7-2.1-9.2-2.1c-0.2,0-0.8,0-8.6,2.9
			c-4.7,1.6-10.4,3.1-16.6,3.8c0.2-11.4,0.8-19,1.9-22.1c1.2-3.6,1.6-5.9,1.6-6.9c0-1.6-0.8-3.1-2.1-3.9c-1.3-0.8-3.1-1.6-5.5-2.4
			s-4.9-1.2-7.4-1.2c-1.4,0-2.4,0.8-2.4,2.2c0,0.7,0.4,1.4,1.2,2.1c3.3,3.9,5,10.9,5,21c0,0-0.2,11.7-0.4,12.9
			c-1.4,0.2-30.9,4.3-30.9,4.3l1,1.2c2.2,2.9,5.7,4.3,10.2,4.3c2.6,0,6.4-0.7,11.2-1.6c0,0,5.9-1.2,8.4-1.9
			c-1.9,22.4-13.3,38.1-34.1,46l0.2,1.7c6.7,0.4,14.5-2.6,22.7-8.8c8-5.9,13.5-15,17.2-26.8c4.9,9,10.7,17.6,16.7,25.4
			c9.2,11.4,12.9,12.9,14.7,12.9c6.5,0,16.2-1.2,28.6-3.5v-1.6L1257.8,475.4z M1367.7,398.3c1.4,1,2.4,1.9,3.1,2.6
			c-0.8,1-7.6,9.8-7.6,9.8l2.4-0.7c3.5-0.8,6.5-2.9,9.2-5.9c0.7,0.8,1.9,2.2,1.9,2.2c1.4,1.6,2.9,2.6,4.1,3.3l0.4,0.2l0.4-0.2
			c1.2-0.8,1.7-1.9,1.7-3.1c0-2.1-1.7-4.5-4.5-6.9c0.7-0.8,2.2-2.4,2.2-2.4c1.7-1.9,2.4-3.6,2.4-5.5c0-1.9-2.2-2.9-6.9-3.6l-1.2-0.2
			l0.2,1.2c0,0.4,0.2,0.8,0.2,1.4c0,2.1-0.8,4.3-2.2,6.5c-1-0.4-3.1-1.4-3.1-1.4c-2.1-1-4.1-1.6-5.5-1.6h-1.4l0.8,1.2
			C1364.6,395.8,1365.9,396.9,1367.7,398.3 M1361.3,429.8l2.4-0.4c3.1-0.7,6.7-3.3,11.4-7.8c0.8,1,4.5,4.7,4.5,4.7l2.4,0.7l0.2-0.8
			l0.4-1.9c0-1.9-1.4-4.1-4.3-6.7c0.4-0.7,1.4-1.9,1.4-1.9c1-1.2,1.4-2.4,1.4-3.6c0-0.2,0-0.4,0-0.7V411l-0.4-0.2
			c-1.7-1-2.6-1.6-3.6-1.6s-2.2,0.7-2.6,3.3c-0.2,1.2-0.4,1.9-0.7,2.2c-2.1-1.2-3.8-2.1-5.5-2.1l-3.8,0.4l2.1,1.2
			c2.2,1.6,3.6,2.9,4.7,4.1c-0.8,1-3.5,4.3-3.5,4.3L1361.3,429.8z M1422.5,428.8c-2.6-2.9-5.1-4.1-7.2-4.1l-5.5,1
			c-2.4,0.7-5.9,1-9.8,1c0.4-2.1,3.1-14.7,3.1-14.7c1.4-6.7,2.2-9,2.9-9.8c0.7-1.2,1.4-2.1,2.2-2.6c1.2-0.8,1.9-1.7,1.9-2.2
			c0-0.7-0.4-1.6-4.9-4.3c-4.3-2.6-5.1-2.9-5.7-2.9c-0.2,0-0.7,0-4.1,1.6c-2.2,1-5.3,1.9-9.2,2.6l-1.9,0.4l1.4,1.2
			c1.9,1.4,3.8,2.2,5.7,2.2l3.3-0.4l2.9-0.4c0.4,0,1.4,0,1.4,2.4c0,1.2-0.4,2.6-0.8,4.3c-3.1,0-7.4,0.4-12.4,1.2l-1.4,0.2l0.8,1.2
			c1.2,1.9,3.3,2.6,5.7,2.6l5.9-0.4c0,0,0.2,0,0.7,0c-0.2,1.4-1,5.1-1.2,6.2c-1.2,0-12.4,1-12.4,1l0.2,1c0.4,1.4,1.7,3.3,5.1,3.3
			l3.8-0.4c0,0,1.2-0.2,2.2-0.2c-0.2,1.6-1,6.7-1.2,7.8c-1.2,0.2-34.8,3.9-36.4,4.1c-0.2-1.2-0.8-5.9-1-6.9c1.2-0.2,3.6-0.8,3.6-0.8
			l4.3-1l0.4-0.4l0.4-0.2c0.7-0.4,1-0.8,1-1.7c0-0.2,0-0.4-0.2-0.8v-0.2l-0.2-0.2c-1-0.8-2.1-1.2-3.3-1.2c-1,0-2.4,0.4-4.3,1.2
			c-1.4,0.7-2.2,0.8-2.9,0.8c-0.2-1.2-0.8-5-1-5.9c1-0.4,4.1-1.2,4.1-1.2c2.1-0.7,4.7-1.6,4.7-3.6c0-0.8-0.4-2.4-3.1-2.4
			c-1.2,0-2.6,0.4-4.7,1.2c0,0-1.4,0.7-2.4,0.8c-0.2-1-0.4-2.4-0.4-2.4s-0.2-2.6-0.4-3.5c0.8-0.4,9.6-5.7,9.6-5.7v-0.7
			c-0.2-1.4-1-2.6-2.9-3.6c-1.6-1-3.3-1.4-4.7-1.4c-2.2,0-2.4,1.2-2.4,1.6c0,2.4-1,5-3.1,7.1c-5.1,0-7.2,0.7-7.2,2.2l1.4,2.1
			c3.1,2.6,5.9,12.1,8.8,27.6c-1.4,0.2-10.9,2.1-11.9,2.2c-1.9-3.1-3.5-5-5.3-5.3l-1-0.2v1.2c0.2,4.5-0.7,8-2.1,10.5
			c-1.9,2.9-2.6,5-2.6,6.7c0,4.1,2.1,4.7,3.3,4.7c1.9,0,3.6-1.4,5.7-4.3c1.9-2.6,2.9-5.5,2.9-8.8c4.1-1,15.2-2.6,32.9-4.7
			c18.4-2.1,29.7-3.1,33.1-3.1l4.3,0.2l0.8,0.2c0,0.2-0.4,1.9-5.5,6.5l0.8,1.4l9-2.6l3.9-0.4c3.1,0,6.5-0.2,6.5-2.4
			C1426.6,433.4,1426.1,432.4,1422.5,428.8 M1410.2,455.5c-2.2-1.4-5.1-2.2-8.4-2.2c-2.2,0-5.7,0.4-10.4,1.4c-4.5,1-7.8,1.4-9.8,1.4
			l-2.1,0.2c-0.2,0-0.4-0.2-0.7-0.4c3.8-3.5,8-6.5,12.3-9c2.6-1,3.3-2.4,3.3-3.6c0-0.2,0-0.4,0-0.7v-0.4l-0.2-0.2
			c-4.3-3.5-8.4-5.3-11.9-5.3c-0.2,0-9.2,2.9-9.2,2.9l-9.5,2.2c-3.3,0.4-6.5,0.8-9.8,0.7h-1.9l1.2,1.4c2.6,2.9,5.7,4.3,9.2,4.1
			c0.2,0,16.9-5.3,17.8-5.5h1.4c0.2,0,0.4,0.8,0.4,1.2c0,0.4-0.7,2.4-5.7,8.8c-1.9-1.4-3.9-2.2-5.9-2.2c-2.1,0-2.2,1.2-2.2,1.6
			c0,0.7,0.4,1.2,2.4,3.1c0.8,0.8,1.4,1.2,1.7,1.9c-18.4,2.2-31.5,3.6-39.1,4.1h-0.8l-0.2,1c0,0.7,0.4,1.6,3.5,3.9
			c2.2,1.4,4.1,2.2,5.7,2.2c0.8,0,3.1-0.2,14.5-2.9c8-1.9,13.8-2.6,17.8-3.1c0.7,3.3,0.8,6.5,0.8,10c0,9-1.9,13.8-5.3,13.8
			c-1.7,0-5.3-0.7-11.4-2.1l-0.7,1.6c6.4,4.1,10.5,8,11.9,11.4l0.4,0.8l0.8-0.4c7.4-3.1,11.2-10.9,11.2-22.7c0-3.5-0.4-7.8-1.2-12.9
			c1.6,0,14.1-0.4,14.1-0.4l16.7,0.7c2.4,0,2.6-1.4,2.6-2.2C1413.9,458.6,1412.7,457.2,1410.2,455.5 M574.3,582.3
			c0,3.5-0.2,5.7-0.8,6.7c-0.7,0.8-1.6,1.2-3.8,1.4l-4.3,0.2v2.6c4.7-0.2,9-0.2,13.5-0.2c4.1,0,8.4,0,13.3,0.2v-2.6l-4.3-0.2
			c-2.2,0-3.3-0.4-3.8-1.4c-0.5-1-0.8-3.3-0.8-6.7V544c0-3.5,0-6.4,0.4-9h14.1c2.6,0,3.5,0.8,3.6,3.1l0.4,7.2h2.9
			c0-5,0.2-9.8,0.7-14.5c-3.3,0-6.5,0-9.8,0s-6.5,0.2-9.8,0.2h-13.1c-6.5,0-13.1-0.2-19.6-0.2c0.4,4.7,0.7,9.8,0.7,14.5h2.9l0.4-7.2
			c0.2-2.2,0.8-3.1,3.6-3.1h14.1c0.2,2.6,0.4,5.7,0.4,9L574.3,582.3L574.3,582.3z"/>
		<path class="st0" d="M609.1,584c0,2.4,0,4.3-0.4,5.3c-0.4,0.8-1.4,1.2-2.9,1.2l-4.1,0.2v2.6c3.3,0,6.7-0.2,11.2-0.2
			s8.1,0.2,11.2,0.2v-2.6l-4.1-0.2c-1.7,0-2.4-0.4-2.9-1.2c-0.4-1-0.4-2.9-0.4-5.3v-19.2c0-3.6,5.7-8.6,11.2-8.6
			c6.2,0,10.5,4.1,10.5,11.4v25.7c2.1,0,4.7-0.2,7.2-0.2c2.4,0,5.1,0.2,7.4,0.2v-2.6l-3.6-0.2c-1.6,0-2.4-0.4-2.9-1.2
			c-0.4-1-0.4-2.9-0.4-5.3v-17.6c0-9.8-4.3-15.7-15-15.7c-3.6,0-5.3,0.7-7.4,2.2l-6.7,5.7h-0.2v-30.7l-0.8-0.8
			c-4.5,1.9-9.5,2.6-14.1,3.3v2.4h5.1c2.1,0,2.2,1.7,2.2,3.6L609.1,584L609.1,584z M674.1,553.7c6.5,0,9.6,6.9,9.6,15.3
			c-6.5,0.4-14.1,0.7-21.7-0.2C661.6,558.8,667.1,553.7,674.1,553.7 M674.5,550.7c-3.1,0-5.7,1-9,2.4c-2.1,0.8-3.9,2.2-5.7,3.6
			c-4.1,3.3-6.5,8.6-6.5,17.4c0,12.3,7.2,21,21,21c6.2,0,13.9-4.1,14.5-5.1l1.9-3.1l-1.2-0.8c-3.5,2.1-6.9,4.3-11.2,4.3
			c-11.2,0-16.4-7.4-16.4-18h13.3c5.5,0,11-0.4,16.6-1.2c0.2-1.2,0.2-2.4,0.2-3.8C691.9,556.9,684.5,550.7,674.5,550.7 M770,585.6
			l-0.8-1c-4.1,3.1-11.9,5.5-18.4,5.5c-18,0-29.8-11.7-29.8-29.7c0-15.5,9-27.8,26-27.8c3.3,0,7.4,0.7,10.2,1.4
			c4.1,1.7,7.8,3.1,7.8,5.7v6.5h2.9c0-4.7,0.8-9.6,1.6-13.9c-4.3-1.7-12.4-3.6-21-3.6c-10.2,0-19.5,3.1-26.2,8.8
			c-6.9,5.7-11,13.9-11,24.5c0,20.7,14.7,33.1,36.6,33.1c5.5,0,14.5-1.7,19.8-5L770,585.6z M778.8,584c0,2.4,0,4.3-0.4,5.3
			c-0.4,0.8-1.4,1.2-2.9,1.2l-4.1,0.2v2.6c3.3,0,6.7-0.2,11.2-0.2s8.1,0.2,11.2,0.2v-2.6l-4.1-0.2c-1.7,0-2.4-0.4-2.9-1.2
			c-0.4-1-0.4-2.9-0.4-5.3v-19.2c0-3.6,5.5-8.6,11.2-8.6c6.2,0,10.5,4.1,10.5,11.4v25.7c2.1,0,4.7-0.2,7.4-0.2
			c2.4,0,5.1,0.2,7.4,0.2v-2.6l-3.6-0.2c-1.7,0-2.4-0.4-2.9-1.2c-0.4-1-0.4-2.9-0.4-5.3v-17.6c0-9.8-4.3-15.7-15-15.7
			c-3.6,0-5.3,0.7-7.4,2.2l-6.7,5.7h-0.2v-30.7l-0.8-0.8c-4.5,1.9-9.5,2.6-14.1,3.3v2.4h5.1c2.1,0,2.2,1.7,2.2,3.6L778.8,584
			L778.8,584z M838.1,551l-0.8-0.4c-3.3,1.4-8.8,3.3-14.1,3.6v2.4h3.3c1.9,0,2.9,0.2,3.5,1c0.4,0.8,0.7,2.6,0.7,5.5v20.5
			c0,2.4,0,4.3-0.4,5.3c-0.4,0.8-1.4,1.2-2.9,1.2l-4.1,0.2v2.6c3.3,0,6.9-0.2,11.4-0.2s8.1,0.2,11.2,0.2v-2.6l-4.1-0.2
			c-1.4,0-2.4-0.4-2.9-1.2c-0.4-1-0.4-2.9-0.4-5.3L838.1,551z M833.8,530.8c-2.6,0-5,2.4-5,5.1s2.4,5.1,5,5.1c2.6,0,5.1-2.4,5.1-5.1
			C838.8,533.3,836.4,530.8,833.8,530.8"/>
		<path class="st0" d="M860.3,564.7c0-3.6,5.7-8.6,11.2-8.6c6.2,0,10.5,4.1,10.5,11.4v25.7c2.1,0,4.7-0.2,7.1-0.2
			c2.6,0,5.1,0.2,7.6,0.2v-2.6l-3.6-0.2c-1.7,0-2.4-0.4-2.9-1.2c-0.4-1-0.4-2.9-0.4-5.3v-17.6c0-9.8-4.3-15.7-15-15.7
			c-3.6,0-5.3,0.7-7.4,2.2l-6.7,5.7h-0.2v-7.8l-0.8-0.4c-3.3,1.4-8.8,3.1-14.1,3.6v2.4h3.3c1.9,0,2.9,0.2,3.3,1s0.7,2.6,0.7,5.5
			v20.5c0,2.4,0,4.3-0.4,5.3c-0.4,0.8-1.4,1.2-2.9,1.2l-4.1,0.2v2.6c3.3,0,6.7-0.2,11.2-0.2s8.1,0.2,11.2,0.2V590l-4.1-0.2
			c-1.7,0-2.4-0.4-2.9-1.2c-0.4-1-0.4-2.9-0.4-5.3L860.3,564.7L860.3,564.7z M917.8,553.7c6.5,0,9.6,6.9,9.6,15.3
			c-6.5,0.4-14.1,0.7-21.7-0.2C905.3,558.8,910.9,553.7,917.8,553.7 M918.3,550.7c-3.1,0-5.7,1-9,2.4c-2.1,0.8-3.8,2.2-5.7,3.6
			c-4.1,3.3-6.5,8.6-6.5,17.4c0,12.3,7.4,21,21,21c6.2,0,13.9-4.1,14.5-5.1l1.9-3.1l-1.2-0.8c-3.5,2.1-6.9,4.3-11.2,4.3
			c-11.2,0-16.4-7.4-16.4-18h13.3c5.5,0,11-0.4,16.4-1.2c0.2-1.2,0.2-2.4,0.2-3.8C935.4,556.9,928.3,550.7,918.3,550.7 M939.3,580.3
			c0,4.3,0,8.6-1,12.6c4.5,1.7,8.4,2.2,12.6,2.2c10,0,20-5.3,20-15.3c0-7.1-5.1-9.8-16-11.7c-6.9-1.2-9.8-3.3-9.8-7.1
			c0-3.1,1.2-7.4,9-7.4c5.1,0,10.7,2.6,10.7,7.4v2.1h2.4c0-3.6,0.2-6.9,0.4-10.2c-3.5-1.2-7.4-2.2-11.7-2.2
			c-8.6,0-16.9,3.5-16.9,13.3c0,5.5,3.3,8.1,7.8,9.8c4.3,1.7,9.5,2.6,13.3,3.6c2.9,0.7,4.3,3.1,4.3,5.9c0,5-5,8.1-10.7,8.1
			c-5.3,0-11.7-2.1-11.7-7.8v-3.5h-3V580.3z M994.3,553.7c6.5,0,9.6,6.9,9.6,15.3c-6.5,0.4-14.1,0.7-21.7-0.2
			C981.8,558.8,987.3,553.7,994.3,553.7 M994.7,550.7c-3.1,0-5.7,1-9,2.4c-2.1,0.8-3.9,2.2-5.7,3.6c-4.1,3.3-6.5,8.6-6.5,17.4
			c0,12.3,7.4,21,21,21c6.2,0,13.9-4.1,14.5-5.1l1.9-3.1l-1.2-0.8c-3.5,2.1-6.9,4.3-11.2,4.3c-11.2,0-16.4-7.4-16.4-18h13.3
			c5.5,0,11-0.4,16.4-1.2c0.2-1.2,0.2-2.4,0.2-3.8C1012.1,556.9,1004.7,550.7,994.7,550.7 M1038.7,573.8c0,16.6,9,21.2,24.5,21.2
			c18.4,0,25.7-7.8,25.7-27.2v-26.2c0-3.5,0.2-5.7,0.8-6.7c0.7-0.8,1.7-1.2,3.8-1.4l4.1-0.2v-2.6c-4.1,0-7.1,0.2-10.9,0.2
			c-3.3,0-6.9-0.2-10.7-0.2v2.6l4.1,0.2c2.2,0.2,3.3,0.4,3.8,1.4c0.7,1,0.8,3.3,0.8,6.7v29c0,15.2-8.8,18.8-18.8,18.8
			c-12.1,0-18.6-3.6-18.6-16.6v-31.2c0-3.5,0.2-5.7,0.8-6.7c0.7-0.8,1.7-1.2,3.9-1.4l4.3-0.2v-2.6c-4.7,0.2-9,0.2-13.1,0.2
			c-4.5,0-8.8,0-13.5-0.2v2.6l4.3,0.2c2.2,0,3.3,0.4,3.8,1.4c0.7,1,0.8,3.3,0.8,6.7L1038.7,573.8z M1109.4,564.7
			c0-3.6,5.5-8.6,11.2-8.6c6.2,0,10.4,4.1,10.4,11.4v25.7c2.1,0,4.7-0.2,7.4-0.2c2.4,0,5.1,0.2,7.4,0.2v-2.6l-3.6-0.2
			c-1.7,0-2.4-0.4-2.9-1.2c-0.4-1-0.4-2.9-0.4-5.3v-17.6c0-9.8-4.3-15.7-15-15.7c-3.6,0-5.3,0.7-7.4,2.2l-6.7,5.7h-0.2v-7.8
			l-0.8-0.4c-3.3,1.4-8.8,3.1-14.1,3.6v2.4h3.3c1.9,0,2.9,0.2,3.3,1c0.4,0.8,0.7,2.6,0.7,5.5v20.5c0,2.4,0,4.3-0.4,5.3
			c-0.4,0.8-1.4,1.2-2.9,1.2l-4.1,0.2v2.6c3.3,0,6.7-0.2,11.2-0.2c4.5,0,8.1,0.2,11.2,0.2V590l-4.1-0.2c-1.7,0-2.4-0.4-2.9-1.2
			c-0.4-1-0.4-2.9-0.4-5.3L1109.4,564.7z M1160.9,551l-0.8-0.4c-3.3,1.4-8.8,3.3-14.1,3.6v2.4h3.3c1.9,0,2.9,0.2,3.3,1
			c0.4,0.8,0.7,2.6,0.7,5.5v20.5c0,2.4,0,4.3-0.4,5.3c-0.4,0.8-1.4,1.2-2.9,1.2l-4.1,0.2v2.6c3.3,0,6.9-0.2,11.4-0.2s8,0.2,11.2,0.2
			v-2.6l-4.1-0.2c-1.7,0-2.4-0.4-2.9-1.2c-0.4-1-0.4-2.9-0.4-5.3L1160.9,551z M1156.6,530.8c-2.6,0-5,2.4-5,5.1s2.4,5.1,5,5.1
			c2.6,0,5.1-2.4,5.1-5.1C1161.8,533.3,1159.3,530.8,1156.6,530.8 M1207.6,560.5c1.2-2.6,2.9-5.9,5.1-6.2l2.9-0.2v-2.6
			c-2.9,0-5.7,0.2-8.6,0.2s-5.7-0.2-8.6-0.2v2.6l3.6,0.2c2.6,0,2.9,2.6,0.4,9l-3.8,9.6c-1.7,4.3-3.6,8.6-5.7,12.6l-10.9-26.2
			c-1.7-3.8-0.8-5.1,1.4-5.1l4.5-0.2v-2.6c-3.5,0-6.9,0.2-10.7,0.2c-3.5,0-7.2-0.2-10.7-0.2v2.6l3.1,0.2c1.7,0,2.2,1.6,2.9,3.1
			L1188,594h4.5c1.2-3.1,2.2-6.5,3.6-9.8L1207.6,560.5z M1237,553.7c6.5,0,9.6,6.9,9.6,15.3c-6.5,0.4-14.1,0.7-21.7-0.2
			C1224.5,558.8,1230.1,553.7,1237,553.7 M1237.4,550.7c-3.1,0-5.7,1-9,2.4c-2.1,0.8-3.8,2.2-5.7,3.6c-4.1,3.3-6.5,8.6-6.5,17.4
			c0,12.3,7.4,21,21,21c6.2,0,13.9-4.1,14.5-5.1l1.9-3.1l-1.2-0.8c-3.5,2.1-6.9,4.3-11.2,4.3c-11.2,0-16.4-7.4-16.4-18h13.3
			c5.5,0,11-0.4,16.6-1.2c0.2-1.2,0.2-2.4,0.2-3.8C1254.6,556.9,1247.3,550.7,1237.4,550.7 M1264.2,584c0,2.4,0,4.3-0.4,5.3
			c-0.4,0.8-1.4,1.2-2.9,1.2l-4.1,0.2v2.6c3.3,0,6.9-0.2,11.2-0.2c4.5,0,8.1,0.2,12.9,0.2v-2.6l-4.9-0.2c-2.1,0-3.5-0.4-3.8-1.2
			c-0.4-1-0.4-2.9-0.4-5.3v-15.5c0-5.7,4.1-10,8-10c3.3,0,5.1,2.1,6.2,4.1h1.9l0.8-11c-0.7-0.4-2.6-0.8-4.1-0.8
			c-2.2,0-5.5,1-7.6,3.6l-4.9,5.7h-0.2v-9.2l-0.8-0.4c-3.3,1.4-8.8,3.3-14.1,3.6v2.4h3.3c1.9,0,2.9,0.2,3.3,1s0.7,2.6,0.7,5.5
			L1264.2,584z M1291.6,580.3c0,4.3,0,8.6-1,12.6c4.5,1.7,8.4,2.2,12.7,2.2c10,0,20-5.3,20-15.3c0-7.1-5.1-9.8-15.9-11.7
			c-6.9-1.2-9.8-3.3-9.8-7.1c0-3.1,1.2-7.4,8.8-7.4c5.1,0,10.7,2.6,10.7,7.4v2.1h2.4c0-3.6,0.2-6.9,0.4-10.2
			c-3.5-1.2-7.4-2.2-11.7-2.2c-8.6,0-16.9,3.5-16.9,13.3c0,5.5,3.3,8.1,7.8,9.8c4.3,1.7,9.5,2.6,13.3,3.6c2.9,0.7,4.3,3.1,4.3,5.9
			c0,5-4.9,8.1-10.7,8.1c-5.3,0-11.7-2.1-11.7-7.8v-3.5h-2.8L1291.6,580.3L1291.6,580.3z M1340.7,551l-0.8-0.4
			c-3.3,1.4-8.8,3.3-14.1,3.6v2.4h3.3c1.9,0,2.9,0.2,3.3,1c0.4,0.8,0.7,2.6,0.7,5.5v20.5c0,2.4,0,4.3-0.4,5.3
			c-0.4,0.8-1.4,1.2-2.9,1.2l-4.1,0.2v2.6c3.3,0,6.9-0.2,11.4-0.2c4.5,0,8.1,0.2,11.2,0.2v-2.6l-4.1-0.2c-1.7,0-2.4-0.4-2.9-1.2
			c-0.4-1-0.4-2.9-0.4-5.3L1340.7,551z M1336.4,530.8c-2.6,0-5,2.4-5,5.1s2.4,5.1,5,5.1c2.6,0,5.1-2.4,5.1-5.1
			C1341.5,533.3,1339,530.8,1336.4,530.8 M1356.3,558.6v26.2c0,7.4,4.1,9.6,8.8,9.6c1.9,0,5.1-0.2,5.9-1l4.3-5l-1.2-1.7
			c-1.2,0.7-3.1,1.7-5.3,1.7c-3.8,0-4.9-2.1-4.9-6.4v-23.8h11.7l0.8-5l-12.4,0.7v-3.5c0-3.8,0.4-8.8,1-12.9l-1-1
			c-1.7,1-4.5,2.4-7.8,3.5c0.2,2.4,0.4,5,0.4,7.2v6.4l-7.2,3.3v1.9L1356.3,558.6z"/>
		<path class="st0" d="M1401.3,585.4l-10.5-25.4c-1.9-4.9-0.4-5.7,2.2-5.9l3.5-0.2v-2.4c-3.5,0-6.9,0.2-10.4,0.2
			c-3.5,0-6.9-0.2-10.7-0.2v2.4l1.7,0.2c2.1,0.2,3.3,1,4.7,4.5l15,36.9l-2.1,5.5c-1.6,4.1-4.7,11.4-9.8,11.9c-1.2,0-3.5-1-4.7-2.1
			h-1.2l-2.2,6.7c1,0.7,3.1,1.4,4.5,1.4c7.6,0,10.9-4.5,13.9-11.2l18.4-42.6c3.5-8,5.5-10.9,7.6-11l2.4-0.2v-2.4
			c-2.9,0-5.7,0.2-8.6,0.2s-5.7-0.2-8.6-0.2v2.4l2.4,0.2c3.3,0.2,4.7,1.2,3.3,4.7L1401.3,585.4z M1458.5,595
			c13.9,0,23.8-9.8,23.8-23.8c0-11.7-9-20.7-20.7-20.7c-14.5,0-23.1,9.6-23.1,23.1C1438.7,586.4,1447,595.4,1458.5,595
			 M1459.7,553.7c8.8,0,14.3,10,14.3,21.7c0,8.4-3.5,16.7-11.9,16.7c-11.7,0-15.2-12.7-15.2-22.1
			C1447,561.4,1450.1,553.7,1459.7,553.7 M1513.5,528.1c-1.2-0.7-2.6-1-4.1-1c-2.4,0-5.7,1-8.1,3.9l-5.3,5.9
			c-2.6,3.1-3.9,7.2-3.9,13.1v3.8l-6.4,2.9v2.1l6.4-0.4v25.7c0,2.4,0,4.3-0.4,5.3c-0.4,0.8-1.4,1.2-2.9,1.2l-4.1,0.2v2.6
			c3.3,0,6.9-0.2,11.4-0.2c4.5,0,8.1,0.2,11.4,0.2v-2.6l-4.1-0.2c-1.7,0-2.4-0.4-2.9-1.2c-0.4-1-0.4-2.9-0.4-5.3v-25.7h11.2l0.7-5
			l-11.9,0.4V546c0-10.5,1-13.1,6.5-13.1c2.2,0,4.3,1,5.9,2.4l1-0.7L1513.5,528.1z M1594.7,541.6c0-3.5,0.2-5.7,0.8-6.7
			c0.7-0.8,1.7-1.2,3.8-1.4l4.3-0.2v-2.6c-4.7,0.2-9,0.2-13.1,0.2c-4.5,0-8.8,0-13.5-0.2v2.6l4.3,0.2c2.2,0,3.3,0.4,3.8,1.4
			c0.7,1,0.8,3.3,0.8,6.7v16.2c-1,0.2-3.5,0.2-7.6,0.2H1557c-4.1,0-6.5,0-7.6-0.2v-16.2c0-3.5,0.2-5.7,0.8-6.7
			c0.7-0.8,1.7-1.2,3.8-1.4l4.3-0.2v-2.6c-4.7,0.2-9,0.2-13.1,0.2c-4.5,0-8.8,0-13.5-0.2v2.6l4.3,0.2c2.2,0,3.3,0.4,3.9,1.4
			c0.7,1,0.8,3.3,0.8,6.7v40.7c0,3.5-0.2,5.7-0.8,6.7c-0.7,0.8-1.7,1.2-3.9,1.4l-4.3,0.2v2.9c4.7-0.2,9-0.2,13.5-0.2
			c4.1,0,8.4,0,13.1,0.2v-2.9l-4.3-0.2c-2.2,0-3.3-0.4-3.8-1.4c-0.7-1-0.8-3.3-0.8-6.7v-20.2c1,0,3.5-0.2,7.6-0.2h21.2
			c4.1,0,6.5,0.2,7.6,0.2v20.2c0,3.5-0.2,5.7-0.8,6.7c-0.7,0.8-1.7,1.2-3.8,1.4l-4.3,0.2v2.9c4.7-0.2,9-0.2,13.5-0.2
			c4.1,0,8.4,0,13.1,0.2v-2.9l-4.5-0.2c-2.2,0-3.3-0.4-3.8-1.4c-0.7-1-0.8-3.3-0.8-6.7v-40.7H1594.7z M1625.8,595
			c13.9,0,23.8-9.8,23.8-23.8c0-11.7-9-20.7-20.7-20.7c-14.7,0-23.1,9.6-23.1,23.1C1605.8,586.4,1614.3,595.4,1625.8,595
			 M1626.8,553.7c8.8,0,14.3,10,14.3,21.7c0,8.4-3.5,16.7-11.9,16.7c-11.7,0-15.2-12.7-15.2-22.1
			C1614.3,561.4,1617.2,553.7,1626.8,553.7 M1665.4,564.7c0-3.6,5.7-8.6,11.2-8.6c6.2,0,10.5,4.1,10.5,11.4v25.7
			c2.1,0,4.7-0.2,7.1-0.2c2.4,0,5.1,0.2,7.6,0.2v-2.6l-3.6-0.2c-1.4,0-2.4-0.4-2.9-1.2c-0.4-1-0.4-2.9-0.4-5.3v-17.6
			c0-9.8-4.3-15.7-15-15.7c-3.6,0-5.3,0.7-7.4,2.2l-6.7,5.7h-0.2v-7.8l-0.8-0.4c-3.3,1.4-8.8,3.1-14.1,3.6v2.4h3.3
			c1.9,0,2.9,0.2,3.3,1c0.4,0.8,0.7,2.6,0.7,5.5v20.5c0,2.4,0,4.3-0.4,5.3c-0.4,0.8-1.4,1.2-2.9,1.2l-4.1,0.2v2.6
			c3.3,0,6.7-0.2,11.2-0.2s8.1,0.2,11.2,0.2V590l-4.1-0.2c-1.7,0-2.4-0.4-2.9-1.2c-0.4-1-0.4-2.9-0.4-5.3L1665.4,564.7z M1747,558.8
			l2.2-3.6l-0.4-1l-12.9,0.4c-2.9-2.6-7.2-3.8-11-3.8c-3.5,0-9,1.2-13.3,3.8c-4.1,2.6-6.9,6.5-6.9,12.3c0,9.5,7.8,12.1,10.7,12.3
			v0.2l-6.9,5.3c-0.8,1-1.4,2.4-1.4,3.9c0,2.6,2.1,4.3,5.9,5.3l-8,4.3c-1.9,1.6-2.4,4.7-2.4,7.1c0,8.1,8.6,13.8,19.6,13.8
			c15.3,0,24.5-9.8,24.5-19.6c0-4.5-2.4-11.2-10.7-11.2h-14.5c-2.6,0-6.9-0.2-6.9-3.6c0-2.1,2.9-3.9,4.1-5.1c0.7,0,1.2,0.2,1.9,0.2
			c4.1,0,8.8-1.7,12.7-4.3c3.6-2.4,6.2-6.4,6.2-11.2c0-1.6-0.2-3.5-1-5.1L1747,558.8L1747,558.8z M1732,566.9c0,5.5-3.8,9.6-9.2,9.6
			c-5.7,0-10.2-4.1-10.2-12.1c0-5.9,3.1-10.7,9-10.7C1729.2,553.7,1732,560.2,1732,566.9 M1722.9,616.1c-7.4,0-13.3-3.9-13.3-11.7
			c0-5.7,5.1-9.2,7.6-9.6c4.1-0.4,7.4-0.4,9.6-0.4c10.2,0,12.9,2.9,12.9,8.1C1739.9,610,1732.9,616.1,1722.9,616.1 M1784.6,563.8
			l0.8-0.7l31.7,30.5c2.9,0,4.9-0.2,7.2-0.2c2.1,0,4.3,0.2,5.9,0.2v-2.6l-1.9-0.2c-1.7-0.2-3.3-1.7-5.5-3.6l-30-28.3l24.1-21.7
			c2.2-2.1,4.7-3.3,7.2-3.5l3.8-0.2v-2.6c-2.2,0-4.7,0.2-7.4,0.2c-2.6,0-5.1-0.2-8.1-0.2v2.4c0,0.7-1.2,2.2-2.6,3.5l-25.2,24.5
			v-19.5c0-3.5,0.2-5.7,0.8-6.7c0.7-0.8,1.7-1.2,3.8-1.4l4.3-0.2v-2.6c-4.7,0.2-9,0.2-13.1,0.2c-4.5,0-8.8,0-13.5-0.2v2.6l4.3,0.2
			c2.2,0,3.3,0.4,3.9,1.4c0.7,1,0.8,3.3,0.8,6.7v40.5c0,3.5-0.2,5.7-0.8,6.7c-0.7,0.8-1.7,1.2-3.9,1.4l-4.3,0.2v2.6
			c4.7-0.2,9-0.2,13.5-0.2c4.1,0,8.4,0,13.1,0.2v-2.6l-4.3-0.2c-2.1,0-3.3-0.4-3.8-1.4c-0.7-1-0.8-3.3-0.8-6.7L1784.6,563.8
			L1784.6,563.8z"/>
		<path class="st0" d="M1848.9,595c13.9,0,23.8-9.8,23.8-23.8c0-11.7-9-20.7-20.7-20.7c-14.5,0-23.1,9.6-23.1,23.1
			C1829.1,586.4,1837.4,595.4,1848.9,595 M1850.1,553.7c8.8,0,14.3,10,14.3,21.7c0,8.4-3.5,16.7-11.9,16.7
			c-11.7,0-15.2-12.7-15.2-22.1C1837.4,561.4,1840.3,553.7,1850.1,553.7 M1888.6,564.7c0-3.6,5.7-8.6,11.2-8.6
			c6.2,0,10.4,4.1,10.4,11.4v25.7c2.1,0,4.7-0.2,7.4-0.2c2.4,0,5.1,0.2,7.6,0.2v-2.6l-3.6-0.2c-1.7,0-2.4-0.4-2.9-1.2
			c-0.4-1-0.4-2.9-0.4-5.3v-17.6c0-9.8-4.3-15.7-15-15.7c-3.6,0-5.3,0.7-7.4,2.2l-6.7,5.7h-0.2v-7.8l-0.8-0.4
			c-3.3,1.4-8.8,3.1-14.1,3.6v2.4h3.3c1.9,0,2.9,0.2,3.3,1c0.4,0.8,0.7,2.6,0.7,5.5v20.5c0,2.4,0,4.3-0.4,5.3
			c-0.4,0.8-1.4,1.2-2.9,1.2l-4.1,0.2v2.6c3.3,0,6.7-0.2,11.2-0.2c4.5,0,8,0.2,11.2,0.2V590l-4.1-0.2c-1.7,0-2.4-0.4-2.9-1.2
			c-0.4-1-0.4-2.9-0.4-5.3L1888.6,564.7z M1970.1,558.8l2.2-3.6l-0.4-1l-12.9,0.4c-2.9-2.6-7.2-3.8-11-3.8c-3.5,0-9,1.2-13.3,3.8
			c-4.1,2.6-6.9,6.5-6.9,12.3c0,9.5,7.8,12.1,10.7,12.3v0.2l-6.9,5.3c-0.8,1-1.4,2.4-1.4,3.9c0,2.6,2.1,4.3,5.9,5.3l-8,4.3
			c-1.9,1.6-2.4,4.7-2.4,7.1c0,8.1,8.6,13.8,19.6,13.8c15.3,0,24.5-9.8,24.5-19.6c0-4.5-2.4-11.2-10.7-11.2h-14.5
			c-2.6,0-6.9-0.2-6.9-3.6c0-2.1,2.9-3.9,4.1-5.1c0.7,0,1.2,0.2,1.9,0.2c4.1,0,8.8-1.7,12.7-4.3c3.6-2.4,6.2-6.4,6.2-11.2
			c0-1.6-0.2-3.5-1-5.1L1970.1,558.8L1970.1,558.8z M1955.2,566.9c0,5.5-3.9,9.6-9.2,9.6c-5.7,0-10.2-4.1-10.2-12.1
			c0-5.9,3.1-10.7,9-10.7C1952.4,553.7,1955.2,560.2,1955.2,566.9 M1946,616.1c-7.4,0-13.3-3.9-13.3-11.7c0-5.7,5.1-9.2,7.6-9.6
			c4.1-0.4,7.4-0.4,9.6-0.4c10.2,0,12.9,2.9,12.9,8.1C1962.9,610,1956,616.1,1946,616.1"/>
	</g>
	<path class="st1" d="M294.7,600.7c3.1,0,16.9-5,22.4-8c29.3-15.5,54.8-36.4,71.6-65.5c13.3-23.3,14.3-51.9,16.4-78.1
		c2.9-33.8,2.6-67.4,2.1-101.2c0-2.4-48.5-7.8-53.4-8.1c-19.6-1.9-45.8-3.1-59.1-3.1c-13.1,0-39.5,1.2-59.1,3.1
		c-4.9,0.4-53.4,5.7-53.4,8.1c-0.7,33.8-0.8,67.6,2.1,101.2c2.2,26.2,3.1,54.8,16.4,78.1c16.7,29,42.3,49.9,71.6,65.5
		C277.7,595.9,291.8,600.7,294.7,600.7"/>
	<path class="st2" d="M361,476.6c0.2,0,0.2,0,0.4,0C361.2,476.6,361,476.6,361,476.6L361,476.6z M354.6,480.7c0.2,0,0.4,0.2,0.7,0.2
		C355.1,480.7,354.8,480.7,354.6,480.7L354.6,480.7z M392.5,419c0,0,0.2-1.6,0.2-1.9c1.2-0.4,6.7-2.6,7.8-9.6c0.2-1,0.2-2.2,0-3.5
		l-0.2,0.2c-1,1-4.3,4.1-6.2,3.6c-0.4,0-0.8-0.4-1-1c0-6.9-0.7-12.4-1.2-19.6c2.1-1,6.2-4.1,6.2-10.7c0-0.8-0.2-1.9-0.2-2.9
		l-0.4,0.4c-1,1.2-3.8,4.5-5.5,4.3c-0.4,0-0.8-0.2-1-0.8l-0.2-1c-1.4-14.7-4.3-21.9-10.5-25l-0.4-0.2c0,0.2,0.4,0.7,0.7,1
		c0.8,1.2,2.4,3.5,2.9,6.2c1,4.3,1.2,8,1.2,10.9c0,3.3-0.4,5.7-1,7.8c-0.8,1.4-1.9,2.4-3.3,2.6c-3.3,0.8-7.1-2.9-8.4-5.9l-0.2-0.2
		c-0.2,0-0.7,0.8-1,1.4c-1,3.9,0.2,8.8,2.9,10.9c1,0.7,2.4,1.2,4.5,0c1-0.7,1.6-0.8,2.2-0.8c0.2,0,0.4,0.2,0.7,0.7
		c-1.2,3.5-2.6,7.2-4.3,10.5c-0.8,0.8-1.9,1.2-3.1,1.2c-3.6,0.2-6.9-4.3-7.6-7.6c0-0.2,0-0.2-0.2-0.2c-0.2,0-0.8,0.7-1.2,1.2
		c-1.9,3.8-1.4,9.2,1,11.7c0.8,0.8,2.4,1.9,4.7,0.8c1.2-0.7,1.9-0.7,2.4-0.4c0.2,0.2,0.4,0.2,0.4,0.7c-1.9,3.5-3.8,6.9-5.9,10.2
		c-0.8,0.7-1.7,0.8-2.6,0.8c-3.8,0-6.5-4.5-6.9-7.8c0-0.2,0-0.2-0.2-0.2c-0.2,0-1,0.7-1.4,1.2c-2.4,3.6-2.9,8.8-0.8,11.4
		c1,1.4,2.9,1.9,4.9,1c1.2-0.4,2.1-0.7,2.2-0.4c0.2,0,0.2,0.2,0.2,0.4c-2.1,2.9-4.3,5.7-6.7,8.4c-1.7,1-3.1,1.4-4.7,1.2
		c-4.3-0.7-6.7-6.5-6.7-10.7c0-0.2,0-0.2-0.2-0.4c-0.4-0.2-1.2,0.7-1.9,1c-3.1,4.1-4.1,10.2-1.9,13.8c0.8,1.2,2.2,2.6,5.1,2.1
		c1.4-0.4,2.4-0.2,2.6,0.2c0.2,0.2,0.2,0.7-0.2,1l-6.9,6.4c-1.6,1-4.3,2.2-7.1,1.2c-4.5-1.6-6.4-9-5.3-13.5c0-0.2,0-0.4,0-0.4
		c-0.4-0.2-1.6,0.4-2.2,0.8c-4.5,3.9-6.7,10.9-5.1,15.2c0.7,1.6,2.1,3.6,5.5,3.5c1.9,0,2.9,0.2,3.1,0.8c0.2,0.4-0.2,1-1.2,1.9
		c-1,0.7-2.1,1.2-2.9,2.2c-2.1,2.4-3.1,4.5-3.3,6.9l-0.2,2.4c-0.2,2.1-0.2,4.1-0.7,5.9c-0.4,1.9-1,3.5-1.6,5
		c-4.3,7.8-14.3,11.9-24.8,13.3V474c12.6-0.4,18.1-5.9,18.1-18.4c0-10.7-3.9-15.3-12.9-15.5c-1.9,0-3.6,0.2-5.5,0.8v-8.1
		c6.4-2.9,13.8-6.2,21.2-8.1c17.4-4.5,31.2-14.1,36.2-24.3c0.7-1.4,1.2-3.1,1.4-4.5c-1,0.7-12.4,8-21.2,9.8l-1.2,0.2
		c-1.2,0.2-2.4,0.4-3.1,0c-0.2-0.2-0.4-0.7-0.4-1.2c0-4.7,2.6-8.4,7.4-10.5l0.4-0.2c10.5-4.5,18.6-8,22.7-13.5
		c1-1.4,1.9-3.1,2.2-4.9c-0.8,0.4-13.1,6.9-20.9,8h-0.4c-1,0.2-2.4,0.4-3.3-0.4c-0.4-0.4-0.7-1.2-0.2-2.2c0.8-3.5,2.4-5.7,5.3-7.4
		c3.1-1.9,6.4-3.3,9.6-4.7c5.5-2.4,10.2-4.5,12.6-7.6c0.2-0.2,0.2-0.4,0.4-0.4c0,0,0,0,0-0.2c0.4-0.7,0.8-1.4,1-2.1l-11.4,3.6
		l-2.2,0.7c-3.3,1-6.7,2.1-7.8,1c-0.4-0.4-0.4-1-0.2-2.1c0.7-2.1,1-3.1,2.1-4.3c4.3-6.2,12.9-12.4,23.3-10.7c1.6,0.4,2.6,0.2,2.6,0
		c0-0.2-0.2-0.4-1.6-1c-7.8-2.9-15.2-2.6-21.7,0.8c-12.1,6.2-21.9,22.7-29.5,49.3c-4.3,15.2-13.8,20.7-23.3,25v-34
		c3.5-1.4,6.5-3.3,9.2-5.9c7.4-7.4,10-16.4,6.9-24.5c-2.4-6.5-8.1-10.9-14.5-11.4c-0.7,0-1,0-1.7,0v-5c-12.1,0-37,1-56.4,2.9
		c-6.9,0.7-51.1,5.7-51.1,7.8c-0.2,11.4-0.4,22.9-0.4,34.1c0,21,0.7,42.1,2.2,63.1l0.7,8.1c1.9,23.1,3.6,46.9,15.2,66.9
		c14.5,25.4,37.4,46.4,68.5,62.8c1.9,1,10.9,5.5,18.1,7.2c0,0,0,0,0.2,0c0.4,0,0.7,0.2,1,0.2c0.7,0.2,1.4,0.2,2.1,0.2v-36.4
		c10.2,0.2,26.4,0.2,30.7-1.2c4.1-1.4,6.7-4.5,7.4-8.8c0.8-5-1.2-10.5-4.7-13.3c-0.4-0.4-1.2-0.4-1.4-0.2c-0.2,0.2,0,0.4,0.2,0.8
		c0.4,0.7,1,1.9,1,4.1c0,2.2-0.8,3.9-2.2,5.3c-4.1,3.6-12.1,3.3-12.3,3.3l-9.5-0.2h-9.2c0.2,0,0.2,0,0.4,0h-0.4
		c5.3-1.2,9-5.1,10.7-8c4.1-7.4,0.7-12.3-0.4-13.8c-0.7,2.1-0.7,2.1-0.7,2.1l0,0l0,0c0.7,0,1.2,0,1.9,0c-0.7,0-1.2,0-1.9,0l0,0
		c2.4,0,4.5-0.2,6.5-0.7c-1.4,0.4-3.1,0.4-4.7,0.7c19.6-1,23.8-18.8,26-28.4l0.4-1.6c0.7-2.9,2.4-8,6.7-9.2c2.6-0.8,4.5-1.9,5.9-2.6
		l1.7-0.8l0.7-0.2c2.4,0,2.4,2.2,2.4,3.5c0,0.7,0,1,0.2,1.2c0,0,0.2,0,0.7-0.2c2.1-1.2,3.1-5.3,3.5-7.6c0-0.2,0-0.4,0-0.4l0,0V480
		c2.6,1,2.9,2.4,3.1,3.5c0,0.2,0,0.4,0.2,0.4c0,0,0.4,0,0.7-0.4c2.1-1.6,2.4-5.1,2.4-7.4l0,0l0,0c3.3,0.2,3.6,2.1,3.6,2.9
		c0,0.2,0,0.4,0.2,0.4c0,0,0.2,0,0.7-0.4c1.7-1.9,1.7-5.7,1.7-7.4v-0.2l0,0l0,0c2.1,0.2,2.6,1.9,2.9,2.6c0,0.4,0.2,0.7,0.4,0.7
		c0,0,0.2,0,0.4-0.4c2.1-2.4,1.9-6.2,1.6-7.6c0-0.2,0-0.2-0.2-0.4l0,0l0,0c2.2,0.2,2.6,1.4,2.9,2.2c0,0.2,0.2,0.7,0.2,0.7
		s0.2,0,0.7-0.4c1.6-2.1,1.4-5.7,1-7.8c2.9-3.5,4.7-6.4,5.1-8.4c0.4-1.7,0.7-1.9,0.8-1.9c0.4,0,0.4,1,0.4,1.4
		c-0.4,5.1-1.4,11.7-3.1,18.6c0,0,0,0,0,0.2v0.2c-0.2,1-0.4,1.9-0.7,2.9l0,0c0,0,0,0,0,0.2c-1-0.8-3.5-1.2-3.8-0.7
		c-0.2,0.2,0,0.7,0.4,1c1,1,1.6,3.1,1.6,5.1c0,0.2,0,0.7,0,0.8l0,0l0,0c-1.2-0.7-3.1-0.8-3.5-0.2c-0.2,0.2,0,0.7,0.4,1
		c1.2,1.2,1.7,3.9,1.4,5.9c0,0.4,0,0.7-0.2,1l0,0c0,0,0,0,0,0.2c-1-0.8-3.5-1.2-3.9-0.7c-0.2,0.2,0,0.7,0.4,1c1,1,1.4,4.1,1.2,6.2
		c0,0.4,0,0.7,0,1l0,0c0,0,0,0,0,0.2c-1-1-3.1-1.6-3.5-1.2c-0.2,0.2,0,0.7,0.2,1c1.4,2.1,1,5.9,0.7,7.4c-6.4,13.9-13.3,21-20.9,21.2
		c-6.2,0.2-9.5-5.3-9.8-9.2c-0.7-5.7,5-9.5,8.1-10.9c2.4-1,3.8,0.4,4.3,1c1.9,2.2,1.6,3.9,1.2,5c-0.8,1.2-2.4,1.9-3.5,1.6
		c-1.9-0.4-3.3,0.4-3.9,1.9c-0.7,1.4-0.2,3.1,0.8,3.8c1.9,1.2,4.1,1.4,6.5,0.2c3.1-1.4,5.7-4.3,5.9-6.9c0.7-2.2-0.4-6.5-2.1-8.4
		c-3.9-5.3-8.6-6.7-12.9-4.1c-7.6,4.7-11.9,10-12.3,15.5c-0.4,4.9,2.2,10,8,15c6.7,5.9,17.8,2.2,22.7-3.1l0.7-0.4
		c1.2,0.4,7.4,2.2,12.6-2.9c0.7-0.7,1.2-1.4,1.9-2.2l0,0c-1.6,0.2-5.9,0.7-6.9-0.8c-0.2-0.4-0.2-0.8,0-1.4c3.1-4.3,5.9-9.6,8.6-16.2
		c1.2,0,7.1-0.8,9.8-7.4c0.4-1,0.8-2.1,1-3.5l-0.4,0.2c-1.4,0.8-5.5,3.1-6.7,2.1c-0.4-0.4-0.7-1-0.2-1.9c1.4-5.1,2.9-11,4.1-17.4
		c1.9-0.2,7.4-1.9,9.2-9c0.2-0.8,0.4-1.9,0.4-2.9l-0.4,0.2c-1.4,1-5.1,3.5-6.7,2.6c-0.4-0.2-0.7-0.7-0.8-1c0.8-5.5,1.6-11.7,2.2-18
		c0.8-0.2,8.1-2.6,8.1-11.9c0-0.4,0-0.7,0-1c-0.2,0-0.2,0.2-0.2,0.2c-1.2,1-4.5,4.1-6.2,3.6c-0.4,0-0.8-0.4-0.8-1l0.8-15L392.5,419z
		 M294.7,351.9c5.7,2.1,8.8,6.7,8.4,12.6c-0.4,5.7-4.3,11-8.4,11.7V351.9z M294.7,446.7c0.7,0,1.4-0.2,2.2-0.2
		c5.7,0,8.1,2.6,8.1,8.6c0,4.3-1.2,8.6-10.4,9v-17.4H294.7z M321.7,493.1L321.7,493.1c-3.6,6.2-8.4,10-20,10c0,0-3.1,0-6.9,0v-6.4
		h6.4c9.6,0,16.2-1.2,18.8-3.6c1.2-1,1.6-1,1.9-1C322.2,492.1,321.7,492.9,321.7,493.1 M385.5,400l-0.2,2.9
		c-2.6,40-15.2,54.6-27,63.6l-0.4,0.4c-3.6,2.9-8,5.9-15.7,8.6H342c-1.4,0.4-5.9,1.9-7.1,3.8c-1.2,2.1-1.4,2.1-1.7,2.1
		c-0.4-0.2,0.4-2.9,0.8-3.5c0.8-1.7,2.2-2.4,5.1-3.9c5.3-2.4,5.9-5.7,5.9-7.4c0-2.4-1.6-4.7-3.9-5.5c-1.6-0.7-3.5-0.2-4.5,0.8
		c0.4,0.2,1.6,0.8,1.9,2.6c0.2,3.1-1.2,4.3-2.6,4.5c-1.6,0.2-3.6-1-3.9-3.3c-0.7-4.3,1.6-6.9,3.1-8c1.9-1.2,2.9-1.6,4.1-2.1l2.2-0.8
		c3.5-0.7,5.9,1.2,7.4,2.2c0.4,0.4,0.8,0.8,1,0.7l0.2-0.2c0.4-1-0.2-5.1-1-7.4v-0.2h0.2c3.3-0.4,5,1.9,5.9,3.1
		c0.4,0.4,0.7,0.8,0.8,0.8l0.2-0.2c0.4-1.2-0.8-5.7-1.6-8v-0.2l0,0l0,0c3.3-1,5.3,0.8,6.4,1.9c0.4,0.4,0.8,0.7,0.8,0.7l0.2-0.2
		c0.4-1.2-1.2-5.5-2.4-7.6l0.7-0.7c3.3-1.2,5.3,0,6.5,0.8c0.4,0.2,0.8,0.4,1,0.4l0.2-0.2c0.2-1.2-1.2-5.1-2.4-6.9l0.7-0.8
		c2.4-0.8,4.5-0.2,5.7,0.2c0.4,0.2,0.8,0.2,1,0.2l0.2-0.2c0.2-1-1.4-4.5-2.4-5.9l0.7-0.8c2.4-0.8,4.1-0.2,5.3,0.2l1,0.3
		c0,0,0.2-0.2,0.2-0.4c0-1.4-1.4-4.7-2.2-5.5l0,0l0,0l0,0c2.2-1.9,4.5-1.9,5.5-1.7h0.8V419c0-0.8-1.7-3.3-2.9-4.3
		c2.6-5.1,4.7-9.8,5.7-14.1c1.4-5.5,1.6-5.3,1.9-5.3C386,394.6,386,395.7,385.5,400 M354.1,445.7c0.2,0,0.4,0,0.4-0.2
		C354.4,445.5,354.2,445.5,354.1,445.7L354.1,445.7z M374.5,420.4c0.4-0.2,0.7-0.4,1-0.7C375.1,420,374.6,420.2,374.5,420.4
		L374.5,420.4z M375.3,487.9c0.2,0,0.2,0.2,0.4,0.2l0,0C375.5,488.1,375.5,488.1,375.3,487.9 M360.3,376.6c0,0-0.4,0.2-0.8,0.4
		C360,377,360.1,376.9,360.3,376.6C360.3,376.9,360.3,376.6,360.3,376.6 M364.4,360L364.4,360c0,0-0.2,0-0.4,0
		C364.3,360,364.4,360,364.4,360 M353.6,396.7c0,0-0.4,0.2-0.8,0.7C353.2,396.9,353.4,396.9,353.6,396.7L353.6,396.7 M297.8,548.1
		c-0.8,0.4-1.9,0.7-2.9,1h0.4C296,548.8,297,548.6,297.8,548.1 M373,467c-0.2,0-0.4-0.2-0.8-0.2l0,0C372.4,467,372.7,467,373,467
		 M372.7,495.4c0.2,0.2,0.2,0.2,0.4,0.4l0,0C372.9,495.7,372.7,495.4,372.7,495.4 M377.2,480.3c0.2,0,0.2,0.2,0.4,0.2l0,0
		C377.4,480.5,377.2,480.3,377.2,480.3 M379.2,474c0.2,0,0.2,0.2,0.2,0.2l0,0C379.4,474.1,379.2,474.1,379.2,474 M366.9,471.9
		L366.9,471.9c0.2,0,0.2,0,0.4,0C367.3,471.9,367.2,471.9,366.9,471.9"/>
	<path class="st1" d="M291.3,375.2c-1-1-1-5.9-1-5.9c0-6.2-5.3-8.4-9.6-8.4c-4.7,0-9.6,2.4-9.6,6.7v16c0,0.8-0.2,1.4-0.8,2.1
		c-0.4,0.4-1.2,0.7-1.9,0.7c-1.4,0-3.1-0.8-3.1-2.4v-8.6c0-9.8-10.9-11.2-17.4-11.2c-9.2,0-19.2,4.1-19.2,11.9v4.3v35
		c0,2.1-1.2,3.6-2.4,4.3c-1,0.7-2.1,0.7-2.9,0.2c-0.7-0.4-1.4-1.4-1.2-3.9c0-0.4-0.2-0.7-0.4-0.7c-0.4,0-0.8,0.2-1.2,1.2
		c-1,2.9-1,5.5,0.2,8c1.7,3.1,4.7,4.7,6.5,5.1v5.5l0,0c-6.2-0.2-13.7-2.4-13.7-13.8v-54.2c0-8.1-3.5-11-6.4-11.9
		c-5.3-1.7-12.3,1.9-15.2,6.2c-3.1,4.5-2.2,8.4-0.2,10.9c2.1,2.6,5.5,3.5,8.8,2.1c0,0,0.7-0.4,0.7-0.8c0-0.2-0.2-0.4-0.8-0.4
		c-2.1-0.4-3.5-1.9-3.5-3.8c0-2.2,2.1-4.1,4.3-4.1s4.3,1.9,4.3,4.1v8v46.1c-6.4-0.2-8,5.1-8,8c0,4.7,3.3,6.5,3.5,6.5
		c0.2,0,0.4,0,0.7-0.2c0.2-0.2,0.2-0.4,0-1c-0.8-1.6-0.8-2.9,0-3.9c1-1.2,3.1-1.9,4.5-1.6c1,0.2,1.6,0.7,1.9,1
		c2.2,6.5,8.4,9.8,18.4,10.2c0.2,0,0.7,0.2,1,0.7v3.1c-3.1,1.2-10,5.7-9.6,18.8c0.2,9.8,2.2,23.8,4.1,25c0.2,0.2,0.4,0.2,0.4,0.2
		c8.4-2.2,20.9-2.4,27,1.2c0.8,0.4,1.4,1.2,1.2,1.6c0,0.4-0.2,0.7-0.7,0.7c-0.4,0.2-0.7,0-0.8-0.2c-2.6-2.6-10.4-3.1-12.9-3.1
		c-8.8-0.2-26.6,2.4-31.7,13.8c-3.1,6.4,3.1,19.3,6.4,23.3c0.2,0.2,0.7,0.2,1,0.2c0.2-0.2,0.4-0.2,0.4-0.4
		c-1.2-6.4,1.2-12.7,7.1-17.8c7.1-6.2,17.6-9,24.1-6.5c0.8,0.4,1.4,0.8,1.6,1.4c0,0.2,0,0.7-0.2,0.7c-0.2,0.2-0.4,0.2-0.7,0
		c-8.6-3.6-17.6,2.1-17.6,2.1c3.6,22.4,31.2,22.1,51.4,21.7h6.9c0,0,7.8,7.6,6.5,13.9c-0.4,2.4-2.2,4.7-5.3,6.2
		c-3.1,1.4-15.3,0.8-16.6-0.2c-0.7-0.7-1-2.2-0.7-4.1c0.4-3.1,2.2-7.2,5.9-8.8c0.4-0.2,0.7-0.2,0.7-0.4c0-0.4-1.4-0.8-2.2-0.8
		c-6.9,0.8-12.1,4.3-13.8,9.6c-0.4,1.2-0.7,1.7-0.7,3.1c-0.2,2.2-0.7,2.2-3.6,2.6l-1.6,0.2c-5.5,0.7-8.6,3.3-9.5,7.8
		c-0.4,3.5,0.7,7.2,3.1,9.8c2.1,2.2,4.7,3.5,7.1,3.5c0.2,0,0.4-0.2,0.4-0.4c0-0.2,0-0.7-0.7-0.8c-3.1-1.9-3.8-4.7-3.3-6.7
		c0.7-2.2,2.9-3.6,5.7-3.6c0,0,1.2,0,1.2,0.8v0.8l0.2,2.4c1.2,6.7,6.4,12.7,12.6,14.5c0.2,0,0.8-0.2,0.8-0.4c0.2-0.2,0-0.7-1-1.2
		c-3.3-2.4-4.5-7.4-4.5-11c0-2.4,0.4-4.5,1.2-5.1c1.4-1,6.5-1.9,9,0.8c2.4,2.4,3.6,4.9,3.3,6.5c-0.2,1-1.2,1.9-2.9,2.2
		c-0.2,0-0.4,0.4-0.2,0.7c0,0.2,0.2,0.7,0.8,0.4c6.7-1,9-6.4,9-10.4c0,0,0-0.2,0-0.4c0.2-0.2,0.4-0.2,0.8-0.2h5c0.8,0,1.9,0,2.6,0
		v-56.7h-18.8c-4.3,0-6.2,1.9-6.2,3.6c-0.2,2.2,2.2,5.1,7.1,5.7c0.2,0,1,0.4,1,0.8c0,0-0.2,0.4-1.2,0.4c-3.3,0-10,0.2-12.4-3.9
		c-1.4-2.4-1.6-5.5-0.2-8c1.6-3.1,5.7-4.7,11-4.7h19.5v-7.6c-9.8,1.4-20,0.7-26.4-1.4c-12.1-3.9-22.3-15.2-18.2-28.6
		c0.7-1.9,1.9-3.9,4.1-5.9c2.6-2.6,5.3-2.6,6.2-2.6c0.4,0,0.7,0,0.7-0.2c0.2-0.4-0.7-1.2-0.7-1.2c-4.3-4.9-21.7-6.5-25.4-5.1
		l-0.2-0.2c-1.4-2.6-1.9-19.2,4.3-23.5c2.6-1.9,5.3-2.4,7.4-1.9c1.6,0.7,2.6,2.1,3.5,4.3c0.8,2.6,0,5.5-1.7,6.7
		c-1.2,0.8-2.9,0.7-4.5-0.8c-0.4-0.4-0.7-1-0.8-1.4l-0.2-0.7c-0.2-0.4-0.4-0.8-0.8-0.8c0,0-0.2,0-0.2,0.2c-0.2,5.3,1.9,9.2,5.7,10.5
		c6.7,2.4,14.1-0.2,18.6-6.5c4.3-5.9,6.2-16.2,1.9-19.6c-0.2-0.2-0.7-0.2-0.7-0.2c-0.4,0.2-0.2,1.2-0.2,1.4c0,5.7-3.6,9.6-7.1,10.5
		c-3.1,0.7-5.5-1.2-6.9-5.1c0,0,0.2-0.8,1-0.8c3.1,0.2,5.3-0.8,6.5-3.3c1.4-3.1,0.2-7.1-2.6-9.8c-0.2,0-0.8-0.2-1,0l-0.2,0.2
		c0.4,3.6-0.7,5.9-2.6,6.5c-2.1,0.4-4.3-1-5-2.9c-0.7-2.1,1-3.9,4.5-5.1c0.2,0,0.2-0.2,0.2-0.2c0-0.2-0.2-0.7-0.2-0.7
		c-4.5-1.4-9.2,0.2-10.9,3.6c-1,2.2,0,6.5,2.4,7.8c0,0,0.2,0.2,0,0.4c-0.4,0.8-2.9,1.7-5.1,1c-1.6-0.4-3.5-2.1-3.5-6.4v-26
		c0-2.6,2.9-4.1,5.9-4.3c2.9-0.2,6.2,0.7,6.5,3.3c0.7,3.3,0.2,4.1-0.8,4.5c-2.1,1-3.6-0.7-3.6-0.7l0,0l0,0c0,0,0,0,0,0.2
		c-0.4,0.7-0.2,1.2,0,1.9c0.8,1.4,2.6,2.4,4.9,2.9c2.2,0.4,3.8,0.2,4.9-0.8c0.8-0.7,1.2-1.9,1.2-3.1v-4.3c0-2.1,1-2.9,2.1-2.9
		c0.8,0,1.9,0.7,2.1,2.2v5.5v9.2c0,6.5,5.1,9.6,10,9.6c5,0,9.6-3.1,9.6-9v-14.1c0-2.4,1-4.1,2.6-4.3c1.6-0.2,3.8,1.2,4.5,3.8
		c0.7,3.1,0.4,3.5-0.4,5.1l-0.4,0.8l-0.4,0.7c-0.8,1.6-1.2,2.2-0.8,2.6c0.2,0.2,0.7,0.2,1.6,0.2c3.3-0.4,6.4-1.2,9-2.2V376
		c0,0,0,0-0.2,0C293.5,376.2,292.3,376.2,291.3,375.2 M240.3,459c0,4.1-3.5,7.2-7.6,7.2c-4.3,0-7.6-3.3-7.6-7.2
		c0-3.8,3.5-7.1,7.6-7.1C236.8,451.9,240.3,455.2,240.3,459 M244.4,384.1L244.4,384.1L244.4,384.1 M227.9,459c0,2.4,2.2,4.7,4.9,4.7
		c2.6,0,4.9-2.1,4.9-4.7c0-2.4-2.2-4.7-4.9-4.7C230.1,454.5,227.9,456.6,227.9,459 M279.4,352.7c-0.8,1-1.4,2.1-1,2.4
		c0.2,0.2,0.4,0,1-0.4c4.3-3.6,9.2-4.5,15-2.9c0.2,0,0.4,0.2,0.7,0.2v-5.5C284.9,346.4,280.4,351,279.4,352.7 M270.8,437.6
		c-2.1,2.9-3.1,9.2-3.1,19.5c0,16,12.3,18.1,25.5,18.1c0.7,0,1,0,1.4,0v-10.9c-0.4,0-1,0-1.4,0c-11.2,0-15.5-0.8-15.5-9.8
		c0-10.7,4.9-15.2,12.3-18.1l4.7-2.1l0,0v-11.7c-1.2,0.7-2.4,1-3.6,1.6C283.9,427.1,276.1,430.4,270.8,437.6 M217.7,485L217.7,485
		l0.4-0.2l-1.9-12.1c0-0.7,0-1-0.2-1.4c-0.4-0.2-1-0.2-2.2,0.2c-17.2,5.5-17.2,12.1-15.7,24c0,0.8,1.2,2.2,1.6,2.2l0,0v-0.2
		c0.2-1,0.8-2.4,1.2-3.1C205.8,485.8,214.4,485,217.7,485 M217.9,484.8L217.9,484.8c-0.2,0-0.4,0-0.7,0H217.9z M285.3,453.1
		c-0.2,0.7,0.2,1.4,0.7,1.6c0.2,0,0.8,0.2,1.2-0.8l0.4-1.2c1.2-2.9,2.2-5.3,6.9-5.9v-5.3C290.3,443.1,286.1,446.7,285.3,453.1"/>
	<path class="st3" d="M502.1,623c-0.8-10.2-9.5-17.2-49.9-7.8c-0.2-4.7-0.4-8.8-0.4-10.9c-0.4-7.8-8.6-12.1-25.5-11.4
		c-8.4,0.2-12.7,0.7-15.7,1c-11.2-8.8-14.7-22.7-14.1-35.2l16.3-18.7c4.3-3.5-10.2-18.1-24.3-14.1l-27.8,36.6c0.4-0.4,0.8-0.7,1.2-1
		c-6.7,8.6-6.2,24.8,3.5,40.9c-22.9,3.6-48.8,7.4-67.3,7.4c-1,0-2.2,0-3.3,0c-1,0-2.2,0-3.3,0c-18.4,0-44.5-3.6-67.3-7.4
		c9.6-16.2,10.2-32.3,3.5-40.9c0.4,0.4,0.8,0.7,1.2,1L201,525.9c-14.1-4.1-28.6,10.7-24.3,14.1l16.4,18.8
		c0.7,12.4-2.6,26.4-14.1,35.2c-3.1-0.4-7.6-0.8-15.7-1c-16.7-0.7-25.2,3.6-25.5,11.4c0,2.1-0.2,6.2-0.4,10.9
		c-40.5-9.5-49.1-2.2-49.9,7.8c-0.7,8.4-1,24.5,0,30.5c1,5.9,9.8,10.5,19.5,12.1c22.3,3.9,64.5-1,96.7-29.8
		c20.5,4.7,45.4,10.9,87.9,10.9c1,0,2.2,0,3.3,0c1.1,0,2.2,0,3.3,0c42.6,0,67.4-5.9,87.9-10.9c32.6,28.6,74.7,33.5,96.7,29.8
		c9.6-1.6,18.6-6.2,19.5-12.1C502.9,647.6,502.7,631.4,502.1,623"/>
	<path class="st1" d="M178.6,608.5c-0.8,1.9-3.1,14.3-3.3,16.9c0.7,0,1.6,0.2,1.9,0c2.4-5.7,3.6-11.7,4.1-17.8
		C180.2,607.6,179,607.5,178.6,608.5 M190.1,608.7c0.7,2.9-0.2,16.7,2.1,20.7c0.4,0.8,1.6-0.2,1.9-1c1-6.7,0.2-13.1-1.2-19.6
		C192.7,608.5,191.1,608.7,190.1,608.7 M193.9,604.5c0.2,0,0.2-1.4,0-1.7c-4.7-4.1-10.4-1.9-15.5-1.9c-1.4,0-0.8,1.6-1,2.6
		c0.7,0,1.2,0,2.1,0C184.3,603,188.9,605.7,193.9,604.5 M503.7,623c-0.4-4.5-2.1-7.8-5.1-10c-6.9-5.1-21.4-5.1-45,0.2
		c0-2.4-0.2-5.1-0.4-8v-0.8c-0.2-6.4-5.3-13.8-27.2-13.1c-7.8,0.2-12.1,0.7-15.3,1c-5.7-4.7-9-10.7-10.9-16
		c-1.9-5.5-2.4-11.2-2.2-16.7l16-18.4c0.8-0.7,2.1-2.4,0.4-5.9c-2.9-5.7-14.5-14.3-26.4-10.9c-0.4,0.2-0.7,0.4-0.8,0.7L359,561.8
		c-0.2,0.4-0.4,1-0.2,1.4c-0.8,1.7-1.6,3.3-2.2,5.1c-0.8,2.6-1.2,5.7-1.2,8.6c0,7.8,2.4,16.2,7.1,24.5c-22.3,3.6-47.1,6.9-64.8,6.9
		c-1,0-2.2,0-3.3,0c-1,0-2.2,0-3.3,0c-17.8,0-42.6-3.5-64.8-6.9c4.5-8.1,7.1-16.7,7.1-24.5c0-3.1-0.4-5.9-1.2-8.6
		c-0.7-1.9-1.2-3.6-2.2-5.1c0.2-0.4,0-1-0.2-1.4l-27.4-36.6c-0.2-0.2-0.4-0.4-0.8-0.7c-11.9-3.5-23.5,5.1-26.4,10.9
		c-1.9,3.5-0.4,5.1,0.4,5.9l15.9,18.4c0.2,5.5-0.4,11.4-2.2,16.7c-1.9,5.3-4.9,11.2-10.9,16c-3.1-0.4-7.6-0.7-15.3-1
		c-21.9-0.7-26.8,6.7-27.2,13.1v0.8c-0.2,2.9-0.2,5.5-0.4,8c-23.5-5.3-37.8-5.3-45-0.2c-3.1,2.2-4.7,5.5-5.1,10
		c-0.7,8.1-1,24.5,0,30.9c1.2,7.6,12.1,11.9,20.9,13.5c19,3.3,62.8,0.8,97.6-29.7c0.2,0,0.2,0,0.4,0c20,4.7,45.2,10.5,87.1,10.5
		c1,0,2.2,0,3.3,0c1,0,2.2,0,3.3,0c41.9,0,67.1-5.9,87.1-10.5c0.2,0,0.2,0,0.4,0c35,30.5,78.8,32.9,97.6,29.7
		c8.8-1.4,19.6-5.9,20.9-13.5C504.8,647.6,504.6,631.2,503.7,623 M426.2,594.6c10.7-0.4,23.5,1,23.8,10v0.8
		c0.7,12.1,0.8,19.5,0.8,23.8c0,1.6,0,2.9,0,3.6c-2.9-2.1-6.5-2.6-11-3.3c-14.1-2.1-25.4-1.2-37,1l-0.2-1.2
		c0.4-0.8-2.2-14.5-1.9-15.2c1-1.4,5.7,0,5.7-2.9c0-2.4-4.1-1.4-5.9-1.7c-0.8,0-0.7-0.2-0.8-0.8c-0.2-1-1.2-6.4-2.2-7.1
		c-0.8-0.8-2.1,0-2.2,1c-0.4,1.7,2.2,8,1,8c-2.6,0.2-5.3,2.4-5.5,1.9c-0.4-1.2-0.7-3.3-1.4-4.5c-1.2-1.9-5.5-0.7-5.7-1.4
		c0-1.9,1.2-1.9,2.1-2.2c0.7-0.2,1-0.7,1.2-1.2c0.2-0.8,0.2-1.9-0.2-2.6c1.4-0.2,2.9-0.4,4.3-0.8l2.9-0.7c5.7-1,8.8-1.9,11.2-2.4
		C409.3,595.9,411.7,595.2,426.2,594.6 M449.6,640.2c-1.9,2.1-7.1,1.6-11.9,1.2c-4.7-0.4-9-0.7-11.9,1c0-0.8,0-1.4,0-2.2
		c0.2-4.3,1-7.4,2.1-8.1c3.5,0.2,7.4,0.4,11.2,1c5.7,0.8,8.8,1.4,11,3.8C450.3,638.3,450.1,639.4,449.6,640.2 M386.1,613
		c0.7,0,1.2,0.2,1.2,1s-1.2,1-1.6,1.2c-0.4,0.2-1.2,0.2-1.2-0.2C384.1,613.6,384.9,612.8,386.1,613 M383.7,610.5
		c-0.4-0.4-0.2-1.4,0-1.4c0.2,0,1.2-0.7,1.9-0.4c0.4,0.2,0.7,0.8,0.4,1.2C385.5,610.5,384.3,611.2,383.7,610.5 M386,616.9
		c0.2-0.8,3.6,0.4,3.9-2.1c0-0.4,0.7,0.4,1.9,0.8c1,0.4,4.1-1,5.9-0.8c0.2,0,2.6,13.9,2.2,15.9l-5.7,1c-0.2-6.9-3.5-14.1-5.1-14.1
		C387.4,617.7,385.5,618.5,386,616.9 M381.7,601.9c0,0,0-0.2,0-0.7c0.8-0.2,1.4-0.2,2.2-0.4c0,0.4-0.2,0.7-0.4,0.8
		C382.9,602.4,382,601.9,381.7,601.9 M389.2,527.6c9.8-2.6,19.8,4.7,22.1,9.2c0.4,0.7,0.4,1.2,0.4,1.7c0,0.2,0,0.4-0.2,0.4l-0.2,0.2
		c0,0-22.7,26.2-25.2,28.8c-4.5-6.2-9.5-9.8-14.5-10.5c-1.9-0.2-3.6-0.2-5.5,0.4C372.4,549.8,388.6,528.6,389.2,527.6 M358.9,576.6
		c0-2.9,0.4-5.3,1-7.6c0.7-2.4,1.9-4.5,3.1-6.4c2.6-1.9,5.5-2.4,8.1-2.1c4.7,0.7,9.5,4.5,13.8,10.9c0.2,0.4,0.8,0.7,1.2,0.7
		c0.4,0,1-0.2,1.2-0.7l7.1-8.1c0.2,4.7,0.8,9.5,2.2,14.1c1.6,5.1,4.7,10.9,9.8,15.5c-1,0.2-1.9,0.4-2.9,0.7c-2.4,0.7-5.3,1.4-11,2.4
		l-2.9,0.4c-3.3,0.7-6.7,1.2-10.2,1.9c-0.7,0-1.2,0-2.2,0.4l0,0c-3.6,0.7-7.6,1.2-11.4,1.9C361.2,592.1,358.9,583.6,358.9,576.6
		 M378.6,610.4l0.4-0.2c0.4-0.2,1-0.8,1.4-0.2c0.4,0.7,0.4,1.4,0,1.9c-0.7,0.7-1.9,0.2-2.2-0.4C377.9,610.9,378.4,610.5,378.6,610.4
		 M377,604c-0.2,0-0.2-1.4-0.7-1.6c0.8-0.2,1.6-0.2,2.4-0.4c0.2,0.7,0.2,1.4-0.2,1.9C378.4,604.2,377.5,604.2,377,604 M378.8,614.2
		c0.7-0.4,1.9-0.4,2.2,0.2c0.2,0.4,0.4,0.8,0.2,1c-0.4,0.4-1.4,0.7-1.9,0.7C379.2,616.2,377.5,615.2,378.8,614.2 M320.3,619.1
		c0.8,0.2,1.9,0.2,2.2-0.2c0.8-0.8-0.4-3.3,0.8-3.3c3.9-0.4,5.5,1.9,6.5,3.1c0.2,0.4-5.5,5.1-7.4,8c-2.1-1.4-5.3-2.1-7.8-2.9
		c0,0-0.4-1.6,0.8-3.1c1.7,1.7,3.3,3.5,5.9,3.5s6.4-5.3,5.1-6.2c-1.9-1.4-3.3,5.1-6.7,2.9c-1.2-0.8-3.3-3.5-1-3.6
		C319.9,616.9,319.4,618.8,320.3,619.1 M257.7,609.1c3.6,0.4,7.6,0.8,11,1.2c-2.4,2.6,0.8,8.4-3.1,10.7c-0.7-1.4-1.9-1.2-2.9-1
		c-1.4,0.4-1.2,2.2-0.8,2.9c1.4,1.4,5.7,1,4.7,4.3c-0.8,2.4-2.4,4.7-4.7,2.9c-4.3-3.5-4.3-9.2-2.6-14.7c0.2-0.7,0-2.9-1.2-4.3
		C257.5,610.7,257.3,609.7,257.7,609.1 M254.9,612.6c0.7,0.7,1.4,1.2,1.9,2.1c1,2.1-0.8,2.9-1.9,4.1c-0.8-1.2-2.1-2.6-1.9-4.1
		C253.2,613.8,254.2,613.3,254.9,612.6 M177.7,539.2l-0.2-0.2c0,0-0.2-0.2-0.2-0.4c0-0.4,0.2-1,0.4-1.7c2.4-4.7,12.3-11.9,22.1-9.2
		c0.7,0.8,16.7,22.1,22.9,30.2c-1.9-0.4-3.6-0.7-5.5-0.4c-5.1,0.8-10.2,4.5-14.5,10.5C200.4,565.4,177.7,539.2,177.7,539.2
		 M192.3,577.4c1.4-4.5,2.2-9.5,2.2-14.1l7.2,8.1c0.4,0.4,0.8,0.7,1.4,0.7c0.4,0,1-0.2,1.2-0.7c4.3-6.4,9-10.2,13.8-10.9
		c2.9-0.4,5.5,0.2,8.1,2.1c1.4,1.9,2.4,3.9,3.1,6.4c0.7,2.2,1,4.7,1,7.6c0,6.9-2.2,15.5-7.2,24.1c-8.6-1.4-16.7-2.9-24-4.1l-2.9-0.4
		c-5.5-1-8.6-1.9-11-2.4c-1-0.2-1.9-0.4-2.9-0.7C187.5,588.3,190.4,582.8,192.3,577.4 M88.6,623.3c0.2-3.5,1.4-5.9,3.8-7.6
		c6.2-4.5,20.7-4.1,42.9,1c-0.4,9.5-0.4,14.5-0.2,17.4c0.2,3.3,0.7,6.9,2.1,8.4c2.9,3.1,8.8,2.6,14.5,2.2c4.1-0.2,8.8-0.7,10.2,0.8
		c0.2,0.2,0.7,0.7,0.4,1.7c-0.2,1.6-0.7,2.6-1.6,3.5c-4.5,3.3-17.4-0.2-27.6-3.1c-4.7-1.2-9-2.4-12.4-3.1
		c-11.7-2.1-24.5-3.6-31.1,1.2c-0.4,0.4-0.8,0.8-1.2,1.2C88,639.4,88.2,629.2,88.6,623.3 M139.1,636.7c2.2-2.6,5.3-3.1,11-3.9
		c3.9-0.7,7.6-0.8,11.2-1c1,0.8,1.9,3.8,2.1,8.1c0,0.8,0,1.7,0,2.2c-2.6-1.7-7.2-1.4-11.7-1c-4.7,0.4-10,0.8-11.9-1.2
		C139.1,639.4,138.9,638.3,139.1,636.7 M106.8,664.1c-9.8-1.7-17.2-5.9-18.2-10.7c0.2-2.2,1-4.1,2.6-5.3c5.1-4.1,16.7-2.6,28.4-0.7
		c3.5,0.7,7.8,1.9,12.3,3.1c12.1,3.3,24.5,6.7,30.5,2.6c0.2-0.2,0.2-0.2,0.4-0.4c0,0,0,0,0.2,0c2.9-2.1,3.6-8,3.5-12.6
		c0-1.9-0.4-5.5-1.6-8.1c12.3,0,22.9,2.2,35,4.9C166.3,665,125.1,667.2,106.8,664.1 M250.3,642.8c-18.8-2.1-32.9-5.3-45.4-8.4
		c-6.5-1.7-12.9-3.1-18.8-4.1c0-7.4,1.9-15.3,0.7-22.9c0-0.2-1.6,0-2.6,0c0.4,7.2-2.1,15-1.7,22.3c-10.2-1.7-20.5-2.1-32.9-0.2
		c-4.5,0.7-8.1,1.2-11,3.3c0-0.8,0-2.1,0-3.6c0-4.3,0.2-11.7,0.8-23.8v-0.8c0.4-8.8,13.1-10.2,23.8-10c14.5,0.4,16.9,1,21.7,2.2
		c2.4,0.7,5.5,1.4,11,2.4c0.2,0.2,0.7,0.4,1,0.4c2.6,1,4.7,6.4,4.9,9.8c0.2,7.2-3.5,14.5-0.4,21.7c0.2,0.2,1.2,0,1.9,0
		c-1.6-9.2,5.1-19,0.2-27.8c-0.4-0.7-0.2-2.4,0.4-2.9c14.7,2.6,32.7,5.7,50.1,8c-1,1-3.1,3.6-3.5,5c-1.4,3.8,2.1,7.8-0.8,11.9
		c-1.2,1.9,1.4,4.5,1,5.9c-0.7,2.9-6.2,5.3-3.9,8.1c1.9,2.2,2.9-3.9,4.3-3.3C252.8,637.3,251.2,641.6,250.3,642.8 M254.1,623.5
		c1.2-0.4,2.1,2.2,2.4,3.8c0.2,1-0.8,2.9-1.7,2.6C252,629.2,250.8,624.7,254.1,623.5 M318.4,644.3
		C318.4,644.3,318.4,644.5,318.4,644.3c-6.4,0.4-13.1,0.7-20.7,0.7c-1,0-2.2,0-3.3,0c-1,0-2.2,0-3.3,0c-14.1,0-26.2-0.7-36.9-1.7
		c-0.4-1-1-4.1,0.4-4.3c1.7-0.2,3.6,2.1,4.5,0.7c2.1-3.1-2.1-5.5-4.5-7.1c0.7-0.7,1.7-2.1,1.9-1.9c4.3,2.6,11.9,3.5,12.4-2.4
		c0.7-5.5,4.1-11.7,1.2-17.4c0-0.2,0-0.2,0-0.4c7.6,0.7,14.7,1,21,1c1,0,2.2,0,3.3,0c1,0,2.2,0,3.3,0c6.4,0,13.5-0.4,21-1v0.4
		c0,0.7,1,2.9-1.9,3.1c-6.4,0.7-8.4,16-5,16.2c2.2,0.2,1.2-2.4,1.6-3.6c0.2-0.7,5.3,1.2,7.1,2.6c-1.6,3.1-2.2,6.7-2.4,10.2
		C318.4,640.9,318.4,643.8,318.4,644.3 M321.3,644.3v-0.7c0.4-3.5,0.8-9,1.9-10.9c1.4-2.4,3.5,1.9,3.6,2.4c0.8,2.1,2.4,7.2,2.4,8.6
		C326.7,643.8,323.9,644.1,321.3,644.3 M384.3,634.5c-13.8,3.3-29.8,6.9-52.1,9c0.2-0.2,0.4-0.7,0.2-0.8c0,0-1.2-9.6-6.7-14.5
		c1.9-2.1,5.1-6.4,6.4-6.2c0.8,0,0.2,3.8,0.8,4.5c0.4,0.4,2.6,0.4,2.6-0.2c0.4-4.1-2.1-15-12.4-13.8l0.2-1.9v-0.7
		c16.6-1.6,34.8-4.5,50.7-7.4c-0.6,0.3-1,0.7-1,1.1c0,2.1,2.2,3.1,4.1,2.9c0.7,0,0.4,1,0,1.7c-0.7,0.7-3.1,1.2-2.9,3.8
		c0.7,9.5,6.9,5,7.4,5.7c0.7,1.9-3.9,0.8-3.9,2.6c0,2.4,5.5-0.2,5.5,0.4c0.8,2.6-6.4,0.8-6.2,3.5c0,2.6,7.1-0.2,7.1,0.4
		c0.7,2.6-4.1,0.8-3.9,3.3c0,1,1.9,1,2.6,0.7c2.1-0.7,3.8-1.2,5.5-2.4c0.7,0.7,1,1.6,1.2,2.4c0.4,1.2,0.2,2.4,0.4,3.9
		c0,0.2,0,0.4,0,0.4C388.4,633.6,386.3,634,384.3,634.5 M482.4,664.1c-18.1,3.1-59.5,0.8-93.1-27.4c12.1-2.9,22.7-5,35-5
		c-1.2,2.6-1.4,6.4-1.6,8.1c-0.2,5,0.8,10.9,3.5,12.7c0,0,0,0,0.2,0c0.2,0.2,0.2,0.2,0.4,0.4c5.9,4.1,18.4,0.7,30.5-2.6
		c4.5-1.2,8.8-2.4,12.3-3.1c11.9-2.1,23.3-3.3,28.4,0.7c1.6,1.2,2.4,3.1,2.6,5.3C499.6,658,492.2,662.3,482.4,664.1 M501,646.7
		c-0.4-0.4-0.8-0.8-1.2-1.2c-6.4-5.1-19.5-3.3-31.1-1.2c-3.5,0.7-8,1.9-12.4,3.1c-10.2,2.9-23.1,6.4-27.6,3.1
		c-1-0.8-1.6-1.9-1.6-3.5c0-1,0.2-1.4,0.4-1.7c1.4-1.4,6.2-1,10.2-0.8c5.7,0.4,11.4,0.8,14.5-2.2c1.2-1.4,1.9-5,2.1-8.4
		c0.2-2.9,0.2-8-0.2-17.4c22.3-5.1,36.9-5.3,42.9-1c2.2,1.7,3.5,4.1,3.9,7.6C501,629.2,501.3,639.4,501,646.7"/>
</g>
</svg>
