<?xml version="1.0" encoding="utf-8"?>
<!-- Generator: Adobe Illustrator 24.3.0, SVG Export Plug-In . SVG Version: 6.00 Build 0)  -->
<svg version="1.1" id="katman_1" xmlns="http://www.w3.org/2000/svg" xmlns:xlink="http://www.w3.org/1999/xlink" x="0px" y="0px"
	 viewBox="0 0 560 400" style="enable-background:new 0 0 560 400;" xml:space="preserve">
<style type="text/css">
	.st0{fill-rule:evenodd;clip-rule:evenodd;fill:#FFFFFF;}
	.st1{fill:#FFFFFF;}
</style>
<g transform="matrix(1.67495 0 0 -1.67495 -602.434 758.505)">
	<path class="st0" d="M396.9,328.1c-0.8,0.3-1.7,0.6-2.6,0.8c-0.2-0.6-0.4-1.2-0.7-1.8c0.7-0.1,1.4-0.3,2.1-0.6
		C396.2,327,396.6,327.5,396.9,328.1 M385.7,326.5c0.7,0.2,1.4,0.4,2.1,0.6c-0.3,0.6-0.6,1.2-0.7,1.8c-0.9-0.2-1.7-0.4-2.6-0.8
		C384.8,327.5,385.2,327,385.7,326.5 M384.5,335.4c0.8-0.3,1.7-0.6,2.6-0.8c0.2,0.6,0.4,1.2,0.7,1.8c-0.7,0.1-1.4,0.3-2.1,0.6
		C385.2,336.5,384.8,336,384.5,335.4 M395.7,337c-0.7-0.3-1.4-0.5-2.1-0.6c0.3-0.6,0.5-1.1,0.7-1.7c0.9,0.2,1.7,0.4,2.6,0.8
		C396.6,336,396.2,336.5,395.7,337 M397.9,332.1c0,1-0.3,1.9-0.7,2.7c-0.9-0.3-1.8-0.6-2.7-0.8c0.1-0.6,0.2-1.2,0.2-1.9L397.9,332.1
		L397.9,332.1z M394.5,329.5c0.9-0.2,1.8-0.5,2.7-0.8c0.4,0.8,0.6,1.7,0.7,2.7h-3.1C394.8,330.8,394.7,330.1,394.5,329.5
		 M393.9,329.6c0.1,0.6,0.2,1.2,0.2,1.7H391v-1.5C392,329.9,392.9,329.8,393.9,329.6 M392.9,327.2c0.3,0.6,0.6,1.1,0.8,1.8
		c-0.9,0.1-1.8,0.2-2.6,0.3v-1.8C391.7,327.4,392.3,327.3,392.9,327.2 M391.7,324.6c1.3,0.2,2.4,0.7,3.4,1.4
		c-0.6,0.2-1.2,0.4-1.8,0.5C392.8,325.8,392.3,325.2,391.7,324.6 M392.5,326.6c-0.5,0.1-1,0.1-1.5,0.1v-1.9
		C391.6,325.4,392.1,326,392.5,326.6 M388.1,326.5c-0.6-0.1-1.2-0.3-1.8-0.5c1-0.7,2.1-1.2,3.3-1.4
		C389.1,325.2,388.6,325.8,388.1,326.5 M388.9,326.6c0.4-0.6,0.9-1.2,1.5-1.8v1.9C389.9,326.7,389.4,326.7,388.9,326.6 M387.7,329
		c0.2-0.6,0.4-1.2,0.8-1.8c0.6,0.1,1.3,0.2,1.9,0.2v1.8C389.5,329.2,388.6,329.1,387.7,329 M387.5,329.6c0.9,0.2,1.9,0.3,2.8,0.3
		v1.5h-3.1C387.3,330.8,387.4,330.2,387.5,329.6 M383.5,331.4c0-1,0.3-1.9,0.7-2.7c0.9,0.3,1.8,0.6,2.7,0.8
		c-0.1,0.6-0.2,1.2-0.3,1.9L383.5,331.4z M386.8,334c-0.9,0.2-1.8,0.5-2.7,0.8c-0.4-0.8-0.6-1.7-0.7-2.7h3.1
		C386.6,332.7,386.7,333.3,386.8,334 M387.5,333.8c-0.1-0.6-0.2-1.2-0.2-1.7h3.1v1.5C389.4,333.6,388.4,333.7,387.5,333.8
		 M388.5,336.2c-0.3-0.6-0.6-1.1-0.8-1.8c0.9-0.2,1.8-0.2,2.7-0.3v1.8C389.7,336.1,389.1,336.1,388.5,336.2 M389.7,338.9
		c-1.2-0.2-2.4-0.7-3.3-1.4c0.6-0.2,1.2-0.4,1.8-0.5C388.6,337.7,389.1,338.3,389.7,338.9 M388.9,336.9c0.5-0.1,1-0.1,1.5-0.1v1.9
		C389.8,338.1,389.3,337.5,388.9,336.9 M393.3,337c0.6,0.1,1.2,0.3,1.8,0.5c-1,0.7-2.1,1.2-3.4,1.4
		C392.3,338.3,392.8,337.7,393.3,337 M392.5,336.9c-0.4,0.6-0.9,1.2-1.5,1.7v-1.9C391.5,336.8,392,336.8,392.5,336.9 M393.7,334.5
		c-0.2,0.6-0.4,1.2-0.8,1.8c-0.6-0.1-1.3-0.2-1.9-0.2v-1.8C391.9,334.2,392.8,334.3,393.7,334.5 M391,332.1h3.1
		c0,0.6-0.1,1.2-0.2,1.7c-0.9-0.2-1.9-0.3-2.8-0.3v-1.4H391z M390.7,339.6c-4.4,0-7.9-3.5-7.9-7.9s3.5-7.9,7.9-7.9s7.9,3.5,7.9,7.9
		S395.1,339.6,390.7,339.6 M400,343.6c-7.3-0.1-14.6-0.9-21.7-2.4c3.1-19.8,15.5-29.5,21.7-32.9V343.6z"/>
	<g>
		<path class="st1" d="M415,320.1L415,320.1L415,320.1L415,320.1z"/>
		<path class="st1" d="M419.4,327.2C419.4,327.3,419.4,327.3,419.4,327.2L419.4,327.2L419.4,327.2z"/>
		<path class="st1" d="M401,358.5c-7.7,0-15.2-0.8-22.5-2.4l0,0c-0.5-0.1-0.9-0.6-0.9-1.1v-4.1c0-2.7,0.2-5.2,0.5-7.6
			c15.1,3.2,30.9,3.2,45.9,0c0.3,2.4,0.5,4.9,0.5,7.6v4.1c0,0.6-0.4,1-0.9,1.1l0,0C416.2,357.7,408.7,358.5,401,358.5z M438.5,356.5
			c-0.2-0.1-0.3-0.8-0.1-1l1-0.1c2.2-0.2,2.6-0.6,2.6-4.9v-14.4c0-2.1-0.1-7.8-1-9.6c-0.3-0.5-0.7-1-1.5-1c-0.5,0-1.1,0.1-1.6,0.3
			c-0.5,0.2-1,0.2-1.4,0.2c-0.8,0-1.4-1.1-1.4-1.8c0-0.8,1.2-0.8,1.6-0.8c3.5,0,6.2,2.4,7.5,5.5c0.7,1.8,0.9,4.4,0.9,7.4v14.1
			c0,4,0.1,4.6,2.3,4.9l0.6,0.1c0.2,0.2,0.2,0.8-0.1,1c-1.5-0.1-2.8-0.1-4.3-0.1C442,356.4,440.7,356.4,438.5,356.5L438.5,356.5z
			 M542.1,356.5c-0.2-0.1-0.3-0.8-0.1-1l1-0.1c2-0.2,2.2-0.8,2.2-4.8v-13.7c0-4-0.1-4.4-2.2-4.8l-0.6-0.1c-0.2-0.2-0.2-0.8,0.1-1
			c1.5,0,2.8,0.1,4.4,0.1c1.5,0,2.8,0,4.8-0.1c0.2,0.1,0.3,0.8,0.1,1l-1.1,0.1c-2.1,0.2-2.3,0.8-2.3,4.8v5.4c0,1.1,0.1,1.2,1.9,1.2
			h10.9c1.8,0,1.9-0.1,1.9-1.2v-5.4c0-4,0-4.4-2.3-4.8l-0.7-0.1c-0.2-0.2-0.2-0.8,0.1-1c1.7,0.1,3,0.1,4.6,0.1c1.5,0,2.8,0,4.6-0.1
			c0.2,0.1,0.3,0.8,0.1,1l-0.9,0.1c-2.2,0.3-2.3,0.8-2.3,4.8v13.7c0,4,0.1,4.6,2.3,4.8l0.8,0.1c0.2,0.2,0.2,0.8-0.1,1
			c-1.7-0.1-3-0.1-4.5-0.1c-1.6,0-2.9,0-4.6,0.1c-0.2-0.1-0.3-0.8-0.1-1l0.7-0.1c2.2-0.2,2.3-0.8,2.3-4.8v-4.4
			c0-1.2-0.1-1.2-1.9-1.2h-10.9c-1.8,0-1.9,0-1.9,1.2v4.4c0,4,0.1,4.6,2.3,4.8l0.7,0.1c0.2,0.2,0.2,0.8-0.1,1
			c-1.6-0.1-2.9-0.1-4.4-0.1C545.3,356.4,544,356.4,542.1,356.5L542.1,356.5z M393.4,356.3c2.5,0,5.4-0.5,7.6-1.3l0,0
			c3.5,1.3,8.6,1.6,11.7,0.9l1.3-1l0.4-0.1c0.1,0,0.2-0.1,0.3-0.2l3.7-8.3c0.1-0.2-0.1-0.4-0.3-0.4c-5.7,1.1-11.7,1.4-17.1,1.4l0,0
			c-5.4,0-11.4-0.3-17.1-1.4c-0.2,0-0.4,0.2-0.3,0.4l3.7,8.3c0,0.1,0.1,0.2,0.3,0.2l0.4,0.1l1.3,1
			C390.5,356.2,391.9,356.3,393.4,356.3L393.4,356.3z M388.9,354.9l-1.2-0.9l-2.6-6.7c3.4,0.6,11.1,1.2,15,1.1
			c0.2,0.1,0.3,0.2,0.6,0.2c-4.6,1.5-9.9,1.7-13.7,1L388.9,354.9z M413,354.9l1.9-5.3c-3.8,0.7-9.1,0.5-13.7-1
			c0.3,0,0.5-0.1,0.6-0.2c3.8,0.1,11.6-0.6,15-1.1l-2.6,6.7L413,354.9z M459.4,352.9c-6.6,0-11.4-4.9-11.4-11.3
			c0-5.8,4.3-10.9,11.4-10.9c6.2,0,11.2,4.7,11.2,11.2C470.6,347.6,466.8,352.9,459.4,352.9z M580.6,352.9
			c-6.6,0-11.4-4.9-11.4-11.3c0-5.8,4.3-10.9,11.4-10.9c6.2,0,11.2,4.7,11.2,11.2C591.8,347.6,588.1,352.9,580.6,352.9z
			 M526.3,352.9c-4.2,0-6.6-2.5-6.6-5.5c0-2.6,1.9-4.5,3.5-5.5l3-2c2.3-1.5,2.6-3.1,2.6-4.5c0-1.9-1.3-3.7-4-3.7
			c-3.7,0-5,3.1-5.5,4.8c-0.1,0.2-0.6,0.1-0.8-0.1c0.1-1.5,0.5-3.8,0.9-4.5c0.6-0.4,2.3-1.2,5-1.2c4.2,0,6.8,2.4,6.8,5.9
			c0,3.1-2,4.9-4,6.2l-2.6,1.6c-1.2,0.7-2.7,2.1-2.7,4c0,1.5,0.7,3.6,3.8,3.6s4-2.1,4.4-3.6c0.2-0.2,0.7-0.1,0.8,0.1
			c0,1.3-0.3,3.1-0.6,3.9c-0.3,0-0.7,0.1-1.1,0.2C528.4,352.8,527.3,352.9,526.3,352.9L526.3,352.9z M671.1,352.9
			c-4.2,0-6.6-2.5-6.6-5.5c0-2.6,1.9-4.5,3.5-5.5l3.1-2c2.3-1.5,2.6-3.1,2.6-4.5c0-1.9-1.3-3.7-4-3.7c-3.7,0-5,3.1-5.5,4.8
			c-0.1,0.2-0.6,0.1-0.8-0.1c0.1-1.5,0.5-3.8,0.9-4.5c0.6-0.4,2.3-1.2,5-1.2c4.2,0,6.8,2.4,6.8,5.9c0,3.1-2,4.9-4,6.2l-2.6,1.6
			c-1.2,0.7-2.7,2.1-2.7,4c0,1.5,0.7,3.6,3.8,3.6s3.9-2.1,4.4-3.6c0.2-0.2,0.7-0.1,0.8,0.1c0,1.3-0.3,3.1-0.6,3.9
			c-0.3,0-0.7,0.1-1.1,0.2C673.2,352.8,672.1,352.9,671.1,352.9L671.1,352.9z M470.9,352.5c-0.2-0.1-0.3-0.7-0.1-0.8l0.8-0.1
			c1.7-0.1,1.9-0.7,1.9-4.1V336c0-3.4-0.1-3.7-1.9-4l-0.5-0.1c-0.2-0.2-0.1-0.7,0.1-0.8c1.3,0,2.3,0.1,3.7,0.1c1.3,0,2.3,0,4.1-0.1
			c0.2,0.1,0.3,0.7,0.1,0.8l-0.9,0.1c-1.8,0.2-2,0.6-2,4v4.5c0,1,0.1,1,1.6,1h9.2c1.5,0,1.6-0.1,1.6-1V336c0-3.4,0-3.7-2-4l-0.6-0.1
			c-0.2-0.2-0.1-0.7,0.1-0.8c1.4,0.1,2.6,0.1,3.9,0.1c1.2,0,2.3,0,3.9-0.1c0.2,0.1,0.3,0.7,0.1,0.8l-0.8,0.1c-1.9,0.2-1.9,0.6-1.9,4
			v11.6c0,3.4,0.1,3.9,1.9,4.1l0.7,0.1c0.2,0.1,0.1,0.7-0.1,0.8c-1.4-0.1-2.5-0.1-3.8-0.1s-2.4,0-3.9,0.1c-0.2-0.1-0.3-0.7-0.1-0.8
			l0.6-0.1c1.9-0.2,2-0.7,2-4.1v-3.7c0-1-0.1-1-1.6-1h-9.2c-1.5,0-1.6,0-1.6,1v3.7c0,3.4,0.1,3.9,1.9,4.1l0.6,0.1
			c0.2,0.1,0.1,0.7-0.1,0.8c-1.4-0.1-2.5-0.1-3.7-0.1C473.6,352.4,472.5,352.5,470.9,352.5z M495.4,352.5c-0.2-0.1-0.3-0.6-0.1-0.8
			l0.5-0.1c0.8-0.1,1.5-0.3,2-0.8c0.7-0.7,0.7-1.4,0.7-2.3v-9.3c0-1.5,0-5.5-0.4-6.6c-0.2-0.4-0.7-0.5-1.4-0.6l-0.9-0.1
			c-0.2-0.2-0.2-0.6,0.1-0.8c1.1,0.1,2,0.1,3.3,0.1c1.2,0,2.3,0,3.8-0.1c0.2,0.2,0.3,0.5,0.1,0.8l-1,0.1c-0.8,0.1-1.4,0.3-1.6,0.6
			c-0.5,1-0.6,5.1-0.6,6.6v7c0,1,0,1.7,0.2,2.1h0.1c0.7-0.7,2.9-3.3,3.7-4.3l7.4-8.5c2.8-3.2,3.7-4.3,4.1-4.9c0.4,0,0.5,0.2,0.6,0.4
			c-0.1,0.8-0.1,4.7-0.1,5.6v7.7c0,1.5-0.1,5.5,0.5,6.6c0.1,0.3,0.8,0.5,1.8,0.7l0.4,0.1c0.2,0.2,0.2,0.6-0.1,0.8
			c-1.1-0.1-1.9-0.1-3.3-0.1c-1.2,0-2.3,0-3.8,0.1c-0.3-0.1-0.3-0.6-0.1-0.8l0.5-0.1c1.3-0.2,1.8-0.4,2-0.6c0.6-1,0.6-5.1,0.6-6.6
			v-6.9c0-0.7,0-1.2-0.1-1.3h-0.1c-1.5,1.5-3.1,3.3-5.3,5.8l-3.1,3.5c-1.1,1.2-4.8,5.4-5.5,7.1c-0.4-0.1-1-0.1-1.5-0.1
			C498.5,352.4,496.7,352.4,495.4,352.5L495.4,352.5z M598.7,352.5c-2.7,0-4.7,0-6.4-0.3c-0.3-0.1-0.3-0.6-0.1-0.8l1.2-0.1
			c1.4-0.2,1.5-0.7,1.5-3.4V336c0-3.4-0.1-3.8-1.9-4l-0.7-0.1c-0.2-0.2-0.1-0.7,0.1-0.8c1.4,0.1,2.6,0.1,3.9,0.1
			c1.3,0,2.3,0,4.2-0.1c0.2,0.1,0.3,0.6,0.1,0.8l-0.9,0.1c-2,0.2-2.1,0.6-2.1,4v14.3c0,1,0,1.2,1.7,1.2c3.3,0,5.2-2,5.2-5.1
			c0-2.8-1.3-4.8-4.7-5.4c-0.2-0.1-0.2-0.5,0-0.6c1.3,0,3,0.3,4.4,1s3.2,2.2,3.2,5.1c0,2.2-1.1,3.9-2.6,4.8
			C603.4,352.2,601.4,352.5,598.7,352.5L598.7,352.5z M630.3,352.5c-0.2-0.1-0.3-0.7-0.1-0.8l0.8-0.1c1.9-0.2,2-0.7,2-4.1v-11.4
			c0-3.4-0.1-3.9-2-4.1l-0.8-0.1c-0.2-0.2-0.1-0.7,0.1-0.8c1.6,0.1,2.7,0.1,4,0.1s2.4,0,4-0.1c0.2,0.1,0.3,0.7,0.1,0.8l-0.8,0.1
			c-1.9,0.2-2,0.7-2,4.1v11.4c0,3.4,0.1,4,2,4.1l0.8,0.1c0.2,0.1,0.1,0.7-0.1,0.8c-1.6-0.1-2.7-0.1-4-0.1S631.9,352.5,630.3,352.5z
			 M640.3,352.5c-0.3-0.1-0.3-0.6-0.1-0.8l0.5-0.1c0.8-0.1,1.5-0.3,2-0.8c0.7-0.7,0.7-1.4,0.7-2.3v-9.3c0-1.5,0-5.5-0.4-6.6
			c-0.2-0.4-0.7-0.5-1.4-0.6l-0.9-0.1c-0.2-0.2-0.2-0.6,0.1-0.8c1.1,0.1,2,0.1,3.3,0.1c1.2,0,2.3,0,3.8-0.1c0.2,0.2,0.3,0.5,0.1,0.8
			l-1,0.1c-0.8,0.1-1.4,0.3-1.6,0.6c-0.5,1-0.6,5.1-0.6,6.6v7c0,1,0,1.7,0.2,2.1h0.1c0.7-0.7,2.9-3.3,3.7-4.3l7.5-8.5
			c2.8-3.2,3.7-4.3,4.1-4.9c0.4,0,0.5,0.2,0.6,0.4c-0.1,0.8-0.1,4.7-0.1,5.6v7.7c0,1.5-0.1,5.5,0.5,6.6c0.1,0.3,0.8,0.5,1.8,0.7
			l0.5,0.1c0.2,0.2,0.2,0.6-0.1,0.8c-1.1-0.1-1.9-0.1-3.3-0.1c-1.2,0-2.3,0-3.8,0.1c-0.3-0.1-0.3-0.6-0.1-0.8l0.5-0.1
			c1.3-0.2,1.8-0.4,2-0.6c0.6-1,0.6-5.1,0.6-6.6v-6.9c0-0.7,0-1.2-0.1-1.3h-0.1c-1.5,1.5-3.1,3.3-5.3,5.8l-3.1,3.5
			c-1.1,1.2-4.8,5.4-5.5,7.1c-0.4-0.1-1-0.1-1.5-0.1C643.3,352.4,641.6,352.4,640.3,352.5L640.3,352.5z M608.3,352.5
			c-0.2-0.1-0.3-0.7-0.1-0.8l0.8-0.1c1.9-0.2,1.9-0.7,1.9-4V336c0-3.4-0.1-3.8-1.8-4l-0.6-0.1c-0.2-0.2-0.1-0.7,0.1-0.8
			c1.3,0.1,2.4,0.1,3.7,0.1s2.4,0,3.9-0.1c0.2,0.1,0.3,0.7,0.1,0.8l-0.9,0.1c-1.8,0.2-1.9,0.6-1.9,4v4.1c0,1.1,0.1,1.5,0.5,1.5
			c0.8,0,1.3-0.6,3.1-2.7l2.6-2.9c1.2-1.4,2.1-2.2,2.7-3c0.2-0.3,0.5-0.5,0.5-0.7s-0.3-0.3-0.8-0.3l-0.7-0.1
			c-0.2-0.2-0.1-0.7,0.1-0.8c1.5,0.1,2.6,0.1,3.9,0.1c1.5,0,2.8,0,3.6-0.1c0.2,0.1,0.3,0.6,0.1,0.8l-0.9,0.1
			c-1.1,0.1-1.8,0.5-2.6,1.3c-2.5,2.6-5,5.5-8,9c-0.4,0.5-0.6,0.8-0.6,1c0,0.3,0.3,0.5,0.7,1l2.9,2.7c1.8,1.7,3.6,3.2,4.5,3.7
			s2.2,0.8,3,0.9c0.2,0.2,0.2,0.6-0.1,0.8c-1-0.1-2.1-0.1-3.2-0.1c-1.1,0-2.4,0-3.5,0.1c-0.3-0.2-0.3-0.6-0.1-0.8l0.9-0.2
			c0.4-0.1,0.6-0.2,0.6-0.3s-0.1-0.3-0.2-0.5c-0.3-0.5-1.9-2.1-2.5-2.7l-3.5-3.4c-0.4-0.3-1.2-1.2-1.6-1.5c-0.2-0.2-0.6-0.4-0.9-0.4
			c-0.4,0-0.4,0.6-0.4,1.2v3.7c0,3.4,0.1,3.9,1.9,4l0.6,0.1c0.2,0.1,0.1,0.7-0.1,0.8c-1.4-0.1-2.5-0.1-3.7-0.1
			C610.9,352.4,609.9,352.5,608.3,352.5L608.3,352.5z M458.9,351.9c6.1,0,8.5-5.7,8.5-11c0-6.3-3.7-9.2-7.5-9.2
			c-6.3,0-8.6,6.2-8.6,10.9C451.2,349.7,455.5,351.9,458.9,351.9z M580.1,351.9c6.1,0,8.5-5.7,8.5-11c0-6.3-3.7-9.2-7.5-9.2
			c-6.3,0-8.6,6.2-8.6,10.9C572.4,349.7,576.8,351.9,580.1,351.9L580.1,351.9z M402,343.6v-4.8l4.3-2.9v7.6
			C404.9,343.6,403.5,343.6,402,343.6z M410.7,343.2V333l4.3-2.9v12.6C413.6,342.9,412.2,343.1,410.7,343.2z M419.4,342.1v-14.8
			l-4.3,2.9v-10.1l0,0c1.5,2.1,3,4.5,4.3,7.2l0,0l0,0c1.9,4,3.5,8.6,4.3,14C422.3,341.6,420.8,341.9,419.4,342.1z M406.4,335.9
			v-10.1l-4.3,2.9v-20.3c1.2,0.7,2.7,1.6,4.3,2.8v14.6l4.3-2.9V333L406.4,335.9z M410.7,322.9V315c1.5,1.4,2.9,3.1,4.3,5l0,0
			L410.7,322.9z M612.8,321.3c-0.1,0-0.1,0-0.2,0c-0.1-0.7-0.4-1.7-0.6-2.5c0.1-0.1,0.3-0.2,0.4-0.1c0.2,0.4,0.4,0.8,0.7,1.1
			c0.4,0.4,1.3,0.4,2,0.4h0.9c0.5,0,0.5,0,0.5-0.5v-7.4c0-1.7-0.1-2-1-2.1l-0.6-0.1c-0.1-0.1-0.1-0.4,0-0.4c1.1,0,1.6,0,2.3,0
			s1.2,0,2.2,0c0.1,0,0.1,0.3,0,0.4l-0.5,0.1c-1,0.1-1,0.3-1,2.1v7.4c0,0.5,0,0.6,0.5,0.6h1.2c0.9,0,1.5-0.1,1.9-0.4
			c0.2-0.2,0.4-0.8,0.4-1.2c0.1-0.1,0.4-0.1,0.4,0c-0.1,0.5,0.1,1.8,0.2,2.5c0,0.1-0.2,0.1-0.3,0c-0.2-0.4-0.4-0.5-1.3-0.5h-6.7
			c-0.8,0-1.3,0-1.4,0.5C612.9,321.3,612.9,321.3,612.8,321.3z M585.7,321.1c-2.2,0-3.4-1.3-3.4-2.9c0-1.4,1-2.3,1.8-2.9l1.6-1
			c1.2-0.8,1.4-1.6,1.4-2.3c0-1-0.7-1.9-2.1-1.9c-1.9,0-2.6,1.6-2.9,2.5c-0.1,0.1-0.3,0.1-0.4,0c0-0.8,0.2-2,0.4-2.3
			c0.3-0.2,1.2-0.6,2.6-0.6c2.2,0,3.5,1.2,3.5,3.1c0,1.6-1,2.5-2.1,3.2l-1.3,0.8c-0.6,0.4-1.4,1.1-1.4,2c0,0.8,0.4,1.8,2,1.8
			s2-1.1,2.3-1.9c0.1-0.1,0.3-0.1,0.4,0c0,0.7-0.1,1.6-0.3,2c-0.1,0-0.4,0-0.6,0.1C586.8,321,586.2,321.1,585.7,321.1L585.7,321.1z
			 M469.9,320.8c-0.1-0.1-0.1-0.3,0-0.4h0.4c1-0.1,1-0.4,1-2.1v-3.9c0-2,0.4-3.2,1.3-3.9c0.8-0.7,2-0.9,3.1-0.9
			c1.2,0,2.5,0.4,3.2,1.2c0.9,1,1.2,2.5,1.2,4v1.9c0,0.9,0,2.8,0.2,3.4c0.1,0.2,0.4,0.4,0.8,0.4h0.4c0.1,0.1,0.1,0.3,0,0.4
			c-0.6,0-1-0.1-1.7-0.1c-0.6,0-1.3,0-1.9,0.1c-0.1-0.1-0.1-0.3,0-0.4h0.4c0.4,0,0.7-0.1,0.8-0.4c0.3-0.5,0.3-2.4,0.3-3.4v-1.9
			c0-2.5-0.9-4.4-3.3-4.4c-2.5,0-3.4,1.8-3.4,4.4v3.6c0,1.7,0,2,1,2.1h0.4c0.1,0.1,0.1,0.3,0,0.4c-0.8,0-1.4-0.1-2-0.1
			C471.3,320.8,470.7,320.8,469.9,320.8L469.9,320.8z M490.4,320.8c-0.1-0.1-0.1-0.3,0-0.4h0.3c0.4,0,0.8-0.2,1-0.4
			c0.4-0.4,0.4-0.7,0.4-1.2V314c0-0.8,0-2.8-0.2-3.4c-0.1-0.2-0.4-0.3-0.7-0.3l-0.4-0.1c-0.1-0.1-0.1-0.3,0-0.4c0.6,0,1,0,1.7,0
			c0.6,0,1.2,0,1.9,0c0.1,0.1,0.1,0.3,0,0.4l-0.5,0.1c-0.4,0-0.7,0.1-0.8,0.3c-0.3,0.5-0.3,2.7-0.3,3.4v3.6c0,0.5,0,0.9,0.1,1.1l0,0
			c0.4-0.4,1.5-1.7,1.9-2.2l3.8-4.4c1.4-1.6,1.9-2.2,2.1-2.5c0.2,0,0.3,0.1,0.3,0.2c0,0.4,0,2.4,0,2.9v4c0,0.8,0,2.8,0.2,3.4
			c0.1,0.1,0.4,0.3,0.9,0.3h0.2c0.1,0.1,0.1,0.3,0,0.4c-0.6,0-1-0.1-1.7-0.1c-0.6,0-1.2,0-2,0.1c-0.1-0.1-0.2-0.3,0-0.4h0.3
			c0.7-0.1,0.9-0.2,1-0.3c0.3-0.5,0.3-2.7,0.3-3.4v-3.5c0-0.3,0-0.6-0.1-0.7l0,0c-0.8,0.8-1.6,1.7-2.7,3l-1.6,1.8
			c-0.5,0.6-2.5,2.8-2.8,3.7c-0.2,0-0.5-0.1-0.8-0.1C492,320.8,491.1,320.8,490.4,320.8L490.4,320.8z M511.9,320.8
			c-0.1-0.1-0.1-0.3,0-0.4h0.4c1-0.1,1-0.4,1-2.1v-5.9c0-1.8,0-2-1-2.1l-0.4-0.1c-0.1-0.1-0.1-0.4,0-0.4c0.8,0,1.4,0.1,2.1,0.1
			s1.2,0,2.1-0.1c0.1,0.1,0.1,0.3,0,0.4l-0.4,0.1c-1,0.1-1,0.3-1,2.1v5.9c0,1.8,0,2,1,2.1h0.4c0.1,0.1,0.1,0.4,0,0.4
			c-0.8,0-1.4-0.1-2.1-0.1C513.3,320.8,512.8,320.8,511.9,320.8z M525.2,320.8c-0.1-0.1-0.2-0.3,0-0.4h0.3c0.7-0.1,1-0.4,1.3-1.4
			l2.9-7.2c0.3-0.7,0.6-1.5,0.8-2.2c0.1,0,0.2,0,0.2,0c0.1,0,0.1,0,0.2,0c0.3,0.9,1.1,2.8,1.7,4.3l0.9,2c0.8,1.7,1.4,3,1.9,3.8
			c0.2,0.3,0.5,0.5,0.9,0.6h0.5c0.1,0.1,0.1,0.3,0,0.4c-0.5,0-1.1,0-1.6,0c-0.6,0-1.3,0-1.7,0c-0.1-0.1-0.2-0.3,0-0.4h0.3
			c0.6-0.1,0.7-0.2,0.7-0.3c0-0.1,0-0.3-0.2-0.7c-0.3-0.7-1.1-2.6-1.5-3.7c-0.4-0.9-1.1-2.6-1.6-3.7c-0.8,1.9-1.6,3.8-2.4,5.7
			c-0.5,1.3-0.8,2.2-0.8,2.3c0,0.1,0.1,0.2,0.8,0.3h0.2c0.1,0.1,0.1,0.3,0,0.4c-0.7,0-1.3,0-2,0
			C526.2,320.8,525.6,320.8,525.2,320.8z M545.5,320.8c-0.1-0.1-0.1-0.3,0-0.4h0.3c1-0.1,1-0.4,1-2.1v-6c0-1.7-0.1-2-1-2.1l-0.5-0.1
			c-0.1-0.1-0.1-0.4,0-0.4c1,0,1.5,0.1,2.3,0.1h1.5c1.5,0,3,0,4.4-0.1c0.2,0.4,0.6,1.7,0.8,2.3c-0.1,0.2-0.3,0.2-0.4,0.1
			c-0.4-0.9-0.9-1.4-1.2-1.6c-0.4-0.2-0.8-0.2-2.1-0.2c-1.5,0-1.8,0.2-2,0.4c-0.3,0.3-0.3,0.8-0.3,1.7v2.3c0,0.4,0,0.4,0.5,0.4h1
			c0.6,0,1,0,1.3-0.1s0.4-0.3,0.5-0.6l0.2-0.6c0.1-0.1,0.4-0.1,0.4,0c0,0.4-0.1,1-0.1,1.6s0.1,1.3,0.1,1.7c-0.1,0.1-0.4,0.1-0.4,0
			l-0.1-0.7c-0.1-0.4-0.2-0.5-0.4-0.6s-0.7-0.1-1.4-0.1h-1c-0.5,0-0.5,0-0.5,0.5v3.3c0,0.6,0,0.7,0.5,0.7h1.2c0.7,0,1.3,0,1.6-0.1
			c0.9-0.2,1-0.8,1.3-1.6c0.1-0.1,0.4-0.1,0.4,0c-0.1,0.7-0.2,1.9-0.3,2.2c-0.2-0.1-1.2-0.1-2.2-0.1h-3.1
			C546.8,320.8,546.2,320.8,545.5,320.8L545.5,320.8z M567.2,320.8c-1.6,0-2.8,0-3.7-0.1c-0.1-0.1-0.1-0.3,0-0.4l0.5-0.1
			c0.7-0.1,0.7-0.4,0.7-1.9v-6c0-1.7,0-2-1-2.1l-0.4-0.1c-0.1-0.1-0.1-0.4,0-0.4c0.8,0,1.4,0.1,2.1,0.1c0.7,0,1.2,0,2-0.1
			c0.1,0.1,0.1,0.3,0,0.4l-0.3,0.1c-1,0.1-1,0.3-1,2.1v2.1c0,0.4,0,0.4,0.8,0.4c0.7,0,0.9-0.2,1.2-0.5c0.5-0.7,1.2-1.9,1.6-2.5
			c1.2-1.7,2-2.1,3.4-2.1c0.3,0,0.6,0,0.7,0.1c0.1,0.1,0.1,0.2,0,0.2c-0.4,0-0.9,0.2-1.1,0.5c-1.1,0.9-2,2.3-3.3,4.4
			c-0.1,0.1-0.2,0.3-0.1,0.4c0.8,0.3,2.1,1.2,2.1,2.8c0,1.2-0.6,1.9-1.4,2.3C569.2,320.8,568.2,320.8,567.2,320.8L567.2,320.8z
			 M598.2,320.8c-0.1-0.1-0.1-0.3,0-0.4h0.4c1-0.1,1-0.4,1-2.1v-5.9c0-1.8,0-2-1-2.1l-0.4-0.1c-0.1-0.1-0.1-0.4,0-0.4
			c0.8,0,1.4,0.1,2.1,0.1c0.7,0,1.2,0,2.1-0.1c0.1,0.1,0.1,0.3,0,0.4l-0.4,0.1c-1,0.1-1,0.3-1,2.1v5.9c0,1.8,0,2,1,2.1h0.4
			c0.1,0.1,0.1,0.4,0,0.4c-0.8,0-1.4-0.1-2.1-0.1C599.6,320.8,599,320.8,598.2,320.8z M631.3,320.8c-0.1-0.1-0.1-0.3,0-0.4l0.5-0.1
			c0.5-0.1,0.8-0.2,1.3-1.3l2-3.8c0.5-0.9,0.5-1.1,0.5-2.1v-0.8c0-1.8,0-2-1-2.1l-0.5-0.1c-0.1-0.1-0.1-0.4,0-0.4
			c0.9,0,1.5,0.1,2.2,0.1s1.2,0,2.3-0.1c0.1,0.1,0.1,0.3,0,0.4l-0.6,0.1c-0.9,0.1-1,0.3-1,2.1v0.9c0,1.3,0.1,1.4,0.8,2.7l1,1.8
			c0.8,1.4,1.3,2.5,2.2,2.6l0.5,0.1c0.1,0.1,0.1,0.3,0,0.4c-0.6,0-1-0.1-1.5-0.1s-1,0-1.6,0.1c-0.1-0.1-0.1-0.3,0-0.4h0.3
			c0.4,0,0.7-0.2,0.7-0.3c0-0.2-0.6-1.3-1.1-2.2c-0.5-1-1-1.9-1.6-2.8c-0.6,1.1-1.3,2.5-1.9,3.7c-0.1,0.2-0.5,1.1-0.5,1.3
			c0,0.1,0.1,0.2,0.7,0.3h0.2c0.1,0.1,0.1,0.4,0,0.4c-0.4,0-1-0.1-1.8-0.1C632.4,320.8,631.8,320.8,631.3,320.8L631.3,320.8z
			 M567.2,320.3c1.8,0,2.7-1.2,2.7-2.6c0-1.1-0.4-1.7-0.8-2.1c-0.5-0.4-1.1-0.4-1.7-0.4c-0.8,0-1.1,0-1.2,0.1c0,0.1,0,0.3,0,0.5v3.9
			C566.1,320.3,566.1,320.3,567.2,320.3L567.2,320.3z"/>
	</g>
</g>
</svg>
