<?xml version="1.0" encoding="utf-8"?>
<!-- Generator: Adobe Illustrator 24.3.0, SVG Export Plug-In . SVG Version: 6.00 Build 0)  -->
<svg version="1.1" id="Layer_1" xmlns="http://www.w3.org/2000/svg" xmlns:xlink="http://www.w3.org/1999/xlink" x="0px" y="0px"
	 viewBox="0 0 512 512" style="enable-background:new 0 0 512 512;" xml:space="preserve">
<style type="text/css">
	.st0{fill:none;stroke:#0DCEDA;stroke-width:23;stroke-miterlimit:10;}
	.st1{fill:none;stroke:#0DCEDA;stroke-width:15;stroke-miterlimit:10;}
</style>
<circle class="st0" cx="256" cy="256" r="177.2"/>
<ellipse transform="matrix(0.5531 -0.8331 0.8331 0.5531 -98.8743 327.6675)" class="st1" cx="256" cy="256" rx="177.2" ry="93.5"/>
<line class="st1" x1="354" y1="108.3" x2="158" y2="403.7"/>
<path class="st0" d="M160.3,106.8c27.8-0.7,85.2,1.6,147,34C383.2,180.5,420,241.7,433,266"/>
<path class="st0" d="M104.1,164.7c27.8-0.7,102.2,5.4,164,37.7c75.9,39.8,122.2,128,135.2,152.3"/>
<path class="st0" d="M79.4,241.1c27.8-0.7,71.9,7.2,133.6,39.6c75.9,39.8,118,104.8,131,129.1"/>
</svg>
