<?xml version="1.0" encoding="utf-8"?>
<!-- Generator: Adobe Illustrator 24.3.0, SVG Export Plug-In . SVG Version: 6.00 Build 0)  -->
<svg version="1.1" id="katman_1" xmlns="http://www.w3.org/2000/svg" xmlns:xlink="http://www.w3.org/1999/xlink" x="0px" y="0px"
	 viewBox="0 0 800 600" style="enable-background:new 0 0 800 600;" xml:space="preserve">
<style type="text/css">
	.st0{fill:#FFFFFF;}
</style>
<g>
	<g>
		<rect x="272.3" y="238.8" class="st0" width="75.5" height="30.2"/>
		<rect x="125.1" y="238.8" class="st0" width="30.2" height="98.2"/>
		<rect x="174.2" y="238.8" class="st0" width="30.2" height="143.5"/>
		<rect x="76" y="238.8" class="st0" width="30.2" height="143.5"/>
		<rect x="272.3" y="287.9" class="st0" width="30.2" height="94.4"/>
		<rect x="223.3" y="238.8" class="st0" width="30.2" height="30.2"/>
		<rect x="223.3" y="287.9" class="st0" width="30.2" height="94.4"/>
	</g>
	<g>
		<path class="st0" d="M412.2,238.9h12.3l5.9,25h0.1l6.1-25h12.2v33.6h-7.9v-26.1h-0.1l-6.7,26.1h-7.4l-6.8-26.1h-0.1v26.1h-7.6
			V238.9z"/>
		<path class="st0" d="M476.4,267.2c0,1.7,0,3.7,0.7,5.2h-6.8c-0.3-0.8-0.4-1.7-0.5-2.6h-0.1c-1.2,2-4.9,3.3-7.5,3.3
			c-4.8,0-8.4-2.6-8.4-7.5c0-6,4.9-8.2,12.9-9.3l2.7-0.4v-2.1c0-1.9-1.5-2.7-3.5-2.7c-2.4,0-3.5,0.8-3.9,3.3h-7.1
			c0.2-7.2,6.9-7.9,10.3-7.9c6.8,0,11.1,1.6,11.2,7.3C476.4,254,476.4,267.2,476.4,267.2z M469.3,260.3l-5,1.4
			c-1.8,0.5-3.5,1.2-3.5,3.3c0,2,1.7,2.8,3.4,2.8c2.9,0,5-1.9,5-5.8L469.3,260.3L469.3,260.3z"/>
		<path class="st0" d="M499.5,254.8c-1.5-1.7-4.6-2.7-6.9-2.7c-1.8,0-3.2,0.7-3.2,1.9c0,4.3,14.9,0.8,14.9,10.1c0,6.6-5.9,9-11.3,9
			c-5.5,0-8.6-1.6-12.3-5l4.6-4c2.3,2.2,4.6,3.5,7.9,3.5c1.2,0,4-0.3,4-2.5c0-3.9-14.9-0.8-14.9-9.7c0-6.3,5.5-8.8,10.6-8.8
			c3.9,0,7.7,1.4,11.1,3.6L499.5,254.8z"/>
		<path class="st0" d="M525.7,254.8c-1.5-1.7-4.6-2.7-6.9-2.7c-1.8,0-3.2,0.7-3.2,1.9c0,4.3,14.9,0.8,14.9,10.1c0,6.6-5.8,9-11.3,9
			s-8.6-1.6-12.3-5l4.6-4c2.3,2.2,4.6,3.5,7.9,3.5c1.2,0,4-0.3,4-2.5c0-3.9-14.9-0.8-14.9-9.7c0-6.3,5.5-8.8,10.6-8.8
			c3.9,0,7.7,1.4,11.1,3.6L525.7,254.8z"/>
		<path class="st0" d="M556.9,267.2c0,1.7,0,3.7,0.7,5.2h-6.8c-0.3-0.8-0.4-1.7-0.5-2.6h-0.1c-1.2,2-4.9,3.3-7.5,3.3
			c-4.8,0-8.4-2.6-8.4-7.5c0-6,4.9-8.2,12.9-9.3l2.7-0.4v-2.1c0-1.9-1.5-2.7-3.5-2.7c-2.4,0-3.5,0.8-3.9,3.3h-7.1
			c0.2-7.2,6.9-7.9,10.3-7.9c6.8,0,11.1,1.6,11.2,7.3C556.9,254,556.9,267.2,556.9,267.2z M549.8,260.3l-5,1.4
			c-1.8,0.5-3.5,1.2-3.5,3.3c0,2,1.7,2.8,3.4,2.8c2.9,0,5-1.9,5-5.8L549.8,260.3L549.8,260.3z"/>
		<path class="st0" d="M579.9,255.8c-1.3-2.8-3.6-3.4-4.7-3.4c-4.2,0-5.7,3.3-5.7,7.6s1.8,7.6,5.7,7.6c2.3,0,4.1-0.8,5.2-3.7
			l5.3,2.7c-2.3,4-6.4,6.7-11.2,6.7c-7.5,0-12.7-4.8-12.7-13.2c0-8.3,5.5-13.2,12.5-13.2c4.8,0,8.9,1.7,11.3,6.1L579.9,255.8z"/>
		<path class="st0" d="M589.9,238.9h7.4v10.9h0.1c1.4-1.9,4.6-3,6.9-3c5.3,0,7.9,3.1,7.9,8.1v17.6h-7.4v-15.1c0-3.9-2.1-4.8-3.7-4.8
			c-1.7,0-3.8,1.1-3.8,5.8v14.1h-7.4V238.9L589.9,238.9z"/>
		<path class="st0" d="M641,272.5h-7.4v-2.2c-1.9,2.2-5,2.9-7.3,2.9c-5.9,0-7.6-3.4-7.6-7.2v-18.5h7.4v16.4c0,2.2,0.8,3.4,3.6,3.4
			c2.1,0,3.9-1.2,3.9-3.9v-15.9h7.4L641,272.5L641,272.5z"/>
		<path class="st0" d="M663.9,254.8c-1.5-1.7-4.6-2.7-6.9-2.7c-1.8,0-3.2,0.7-3.2,1.9c0,4.3,14.9,0.8,14.9,10.1c0,6.6-5.9,9-11.3,9
			c-5.5,0-8.6-1.6-12.3-5l4.6-4c2.3,2.2,4.6,3.5,7.9,3.5c1.2,0,4-0.3,4-2.5c0-3.9-14.9-0.8-14.9-9.7c0-6.3,5.5-8.8,10.6-8.8
			c3.9,0,7.7,1.4,11.1,3.6L663.9,254.8z"/>
		<path class="st0" d="M679.4,261.4c0,4.8,3.1,6.3,5.5,6.3c2.7,0,4-1.4,6.1-4.4l5.5,2.9c-2.5,4.7-6.6,6.9-12.2,6.9
			c-7.8,0-12.3-5.4-12.3-12.5c0-8.9,4.7-14,12.3-14c9.2,0,12.3,7,12.3,14.7C696.7,261.4,679.4,261.4,679.4,261.4z M689.3,256.9
			c-0.2-3.7-2.9-4.8-5-4.8s-4.7,1.5-5,4.8H689.3z"/>
		<path class="st0" d="M714.2,252.4h-4.4v12.3c0,2,1,2.5,2.3,2.5c0.8,0,1.8-0.1,2.2-0.1v5.8c-0.9,0.1-3.1,0.3-4.7,0.3
			c-6.3,0-7.2-3.9-7.2-7.6v-13.2h-3.6v-4.5h3.6v-7.3h7.4v7.3h4.4V252.4L714.2,252.4z"/>
		<path class="st0" d="M730.8,252.4h-4.4v12.3c0,2,1,2.5,2.3,2.5c0.8,0,1.8-0.1,2.2-0.1v5.8c-0.9,0.1-3.1,0.3-4.7,0.3
			c-6.3,0-7.2-3.9-7.2-7.6v-13.2h-3.6v-4.5h3.6v-7.3h7.4v7.3h4.4V252.4L730.8,252.4z"/>
		<path class="st0" d="M751.3,254.8c-1.5-1.7-4.6-2.7-6.9-2.7c-1.8,0-3.2,0.7-3.2,1.9c0,4.3,14.9,0.8,14.9,10.1c0,6.6-5.9,9-11.3,9
			c-5.5,0-8.6-1.6-12.3-5l4.6-4c2.3,2.2,4.6,3.5,7.9,3.5c1.2,0,4-0.3,4-2.5c0-3.9-14.9-0.8-14.9-9.7c0-6.3,5.5-8.8,10.6-8.8
			c3.9,0,7.7,1.4,11.1,3.6L751.3,254.8z"/>
		<path class="st0" d="M412.4,293.8h8.4v33.6h-8.4V293.8z"/>
		<path class="st0" d="M427.3,302.3h7.4v2.2c1.9-2.2,5-2.9,7.3-2.9c5.9,0,7.6,3.4,7.6,7.2v18.5h-7.4v-15.7c0-2.5-0.8-4.1-3.6-4.1
			c-3,0-3.9,1.9-3.9,4.2v15.6h-7.4C427.3,327.4,427.3,302.3,427.3,302.3z"/>
		<path class="st0" d="M472.4,309.7c-1.5-1.7-4.6-2.7-6.9-2.7c-1.8,0-3.2,0.7-3.2,1.9c0,4.3,14.9,0.8,14.9,10.1c0,6.6-5.9,9-11.3,9
			c-5.5,0-8.6-1.6-12.3-5l4.6-4c2.3,2.2,4.6,3.5,7.9,3.5c1.2,0,4-0.3,4-2.5c0-3.9-14.9-0.8-14.9-9.7c0-6.3,5.5-8.8,10.6-8.8
			c3.9,0,7.7,1.4,11.1,3.6L472.4,309.7z"/>
		<path class="st0" d="M494.8,307.3h-4.4v12.3c0,2,1,2.5,2.3,2.5c0.8,0,1.8-0.1,2.2-0.1v5.8c-0.9,0.1-3.1,0.3-4.7,0.3
			c-6.3,0-7.2-3.9-7.2-7.5v-13.2h-3.6v-4.5h3.6v-7.3h7.4v7.3h4.4C494.8,302.8,494.8,307.3,494.8,307.3z"/>
		<path class="st0" d="M499,299.5v-5.7h7.4v5.7H499z M506.4,302.3v25.1H499v-25.1H506.4z"/>
		<path class="st0" d="M525.4,307.3H521v12.3c0,2,1,2.5,2.3,2.5c0.8,0,1.8-0.1,2.2-0.1v5.8c-0.9,0.1-3.1,0.3-4.7,0.3
			c-6.3,0-7.2-3.9-7.2-7.5v-13.2H510v-4.5h3.6v-7.3h7.4v7.3h4.4C525.4,302.8,525.4,307.3,525.4,307.3z"/>
		<path class="st0" d="M551.8,327.4h-7.4v-2.2c-1.9,2.2-5,2.9-7.3,2.9c-5.9,0-7.6-3.4-7.6-7.2v-18.5h7.4v16.4c0,2.2,0.8,3.4,3.6,3.4
			c2.1,0,3.9-1.2,3.9-3.9v-15.9h7.4L551.8,327.4L551.8,327.4z"/>
		<path class="st0" d="M570.8,307.3h-4.4v12.3c0,2,1,2.5,2.3,2.5c0.8,0,1.8-0.1,2.2-0.1v5.8c-0.9,0.1-3.1,0.3-4.7,0.3
			c-6.3,0-7.2-3.9-7.2-7.5v-13.2h-3.6v-4.5h3.6v-7.3h7.4v7.3h4.4V307.3L570.8,307.3z"/>
		<path class="st0" d="M580.6,316.4c0,4.8,3.1,6.3,5.5,6.3c2.7,0,4-1.4,6.1-4.4l5.5,2.9c-2.6,4.7-6.6,6.9-12.2,6.9
			c-7.8,0-12.3-5.4-12.3-12.5c0-8.9,4.7-14,12.3-14c9.2,0,12.3,7,12.3,14.7C597.9,316.4,580.6,316.4,580.6,316.4z M590.5,311.8
			c-0.2-3.7-2.9-4.8-5-4.8s-4.7,1.5-5,4.8H590.5z"/>
		<path class="st0" d="M641.1,314.9c0,8.4-5.5,13.2-13.4,13.2c-7.8,0-13.4-4.8-13.4-13.2s5.5-13.2,13.4-13.2
			C635.5,301.7,641.1,306.4,641.1,314.9z M621.7,314.9c0,4.3,1.8,7.6,6,7.6s6-3.3,6-7.8c0-4-1.8-7.3-6-7.3
			C623.5,307.3,621.7,310.6,621.7,314.9z"/>
		<path class="st0" d="M646.8,307.3H643v-4.5h3.9v-2.5c0-2.8,0.9-6.9,7.2-6.9c1.6,0,3.9,0.2,4.8,0.6v5.4h-2.1
			c-1.3,0-2.5,0.4-2.5,1.8v1.6h4.5v4.5h-4.5v20.1h-7.4L646.8,307.3L646.8,307.3z"/>
		<path class="st0" d="M403.6,348.8h26v6.5h-8.8v27.1h-8.4v-27.1h-8.8L403.6,348.8L403.6,348.8z"/>
		<path class="st0" d="M435.5,371.3c0,4.8,3.1,6.3,5.5,6.3c2.7,0,4-1.4,6.1-4.4l5.5,2.9c-2.6,4.7-6.6,6.9-12.2,6.9
			c-7.8,0-12.3-5.4-12.3-12.5c0-8.9,4.7-14,12.3-14c9.2,0,12.3,7,12.3,14.7h-17.2V371.3z M445.4,366.8c-0.2-3.7-2.9-4.8-5-4.8
			s-4.7,1.5-5,4.8H445.4z"/>
		<path class="st0" d="M474.2,365.7c-1.3-2.8-3.6-3.4-4.7-3.4c-4.2,0-5.7,3.3-5.7,7.5s1.8,7.5,5.7,7.5c2.3,0,4.1-0.8,5.2-3.7
			l5.3,2.7c-2.3,4-6.4,6.7-11.2,6.7c-7.5,0-12.7-4.8-12.7-13.2c0-8.3,5.5-13.2,12.5-13.2c4.8,0,8.9,1.7,11.3,6.1L474.2,365.7z"/>
		<path class="st0" d="M484.2,348.8h7.4v10.9h0.1c1.4-1.9,4.6-3,6.9-3c5.3,0,7.9,3.1,7.9,8.1v17.7H499v-15c0-3.9-2.1-4.8-3.7-4.8
			c-1.7,0-3.8,1.1-3.8,5.8v14.1h-7.4L484.2,348.8L484.2,348.8z"/>
		<path class="st0" d="M513,357.3h7.4v2.2c1.9-2.2,5-2.9,7.3-2.9c5.9,0,7.6,3.4,7.6,7.2v18.5h-7.4v-15.7c0-2.5-0.8-4.1-3.6-4.1
			c-3,0-3.9,1.9-3.9,4.2v15.6H513V357.3L513,357.3z"/>
		<path class="st0" d="M566.8,369.8c0,8.4-5.5,13.2-13.4,13.2c-7.8,0-13.4-4.8-13.4-13.2c0-8.4,5.5-13.2,13.4-13.2
			S566.8,361.4,566.8,369.8z M547.4,369.8c0,4.3,1.8,7.5,6,7.5s6-3.3,6-7.8c0-4-1.8-7.3-6-7.3C549.2,362.3,547.4,365.5,547.4,369.8z
			"/>
		<path class="st0" d="M571.6,382.4v-33.6h7.4v33.6H571.6z"/>
		<path class="st0" d="M610.5,369.8c0,8.4-5.5,13.2-13.4,13.2c-7.8,0-13.4-4.8-13.4-13.2c0-8.4,5.5-13.2,13.4-13.2
			C605,356.6,610.5,361.4,610.5,369.8z M591.1,369.8c0,4.3,1.8,7.5,6,7.5s6-3.3,6-7.8c0-4-1.8-7.3-6-7.3
			C592.9,362.3,591.1,365.5,591.1,369.8z"/>
		<path class="st0" d="M637.3,357.3v25.1c0,8-8.2,8.3-12,8.3c-7.6,0-11.5-2.6-11.6-8.7h7.6c0,2.7,1.6,3.9,4.2,3.9
			c2.8,0,4.6-0.6,4.6-4.2v-2.9c-1.6,1.6-4.7,2.1-6.9,2.1c-7,0-9.8-5.7-9.8-12c0-6.1,3.2-12.2,9.9-12.2c2.7,0,5.1,0.6,7.2,2.6v-2
			C630.5,357.3,637.3,357.3,637.3,357.3z M625.5,362c-2.3,0-4.6,1.3-4.6,6.7c0,3,0.7,6.7,4.5,6.7c4.7,0,4.9-4.1,4.9-6.7
			C630.3,363.6,627.8,362,625.5,362z"/>
		<path class="st0" d="M642.8,384.9c0.8,0,1.7,0.1,2.5,0.1c2.2,0,3.4-0.4,3.4-1.8c0-0.4,0-0.8-0.7-2.7l-7.4-23.2h7.7l4.1,19.2h0.1
			l4.1-19.2h8l-8.8,26.8c-1.3,3.8-2.9,6.7-7.2,6.7h-5.8L642.8,384.9L642.8,384.9z"/>
	</g>
</g>
</svg>
