<?xml version="1.0" encoding="utf-8"?>
<!-- Generator: Adobe Illustrator 24.3.0, SVG Export Plug-In . SVG Version: 6.00 Build 0)  -->
<svg version="1.1" id="katman_1" xmlns="http://www.w3.org/2000/svg" xmlns:xlink="http://www.w3.org/1999/xlink" x="0px" y="0px"
	 viewBox="0 0 841.9 595.3" style="enable-background:new 0 0 841.9 595.3;" xml:space="preserve">
<style type="text/css">
	.st0{fill:#8A1739;}
	.st1{fill:#FFFFFF;}
</style>
<g>
	<path class="st0" d="M233.3,237.1h34v3.1h-10.6v63.2c0,18.2-3.2,37.5-11,50.1l-6.4-8.8c6.4-14.7,4.5-33.2,4.7-41.3v-63.2h-10.7
		L233.3,237.1L233.3,237.1L233.3,237.1z"/>
	<path class="st0" d="M179.5,245.2h1.3c3.5,35.3,10.8,65.8,35.7,100.6c15.5,21.7,36.3,52.5,36.3,52.5h21.6c0,0-31.3-39.5-43.3-57.5
		c-28.3-42.3-38-76.5-39.6-146.1v-2.3h-18.2v2.3c0.6,57.7-6,82.8-14.7,104.3c-6,14.8-18,33.7-32.5,48.4c0,2.6,1.3,8.4,2.4,12.1
		c10-13.1,26.8-20.3,41.5-20.3s20.5,2.8,29.3,10.8c3.5,3.2,9.5,10.3,19.6,26.9c-10.8,11.3-25.8,18.9-43.7,18.9s-36.5-9.3-45-21.4
		c-7.8-11.1-11.8-27.5-11.8-53.1v-81.1h9.6v-3.1H58.4v3.1h10v59.3c0,33.7,7.3,52.5,19.1,68.8c12.1,16.6,37.2,35.2,84,35.2
		s41.7-10.8,51.1-20.3c2.5,4.3,5.7,9.8,8.6,15.1h16.3c0,0-10.9-16.4-27.1-39.8c-17.3-24.9-33.9-28.1-50.3-28.1s-19,4.1-24.9,8.3
		l-0.5-0.5c10.8-12.4,17.8-27.1,22.1-38.1c4.6-11.6,11.9-36.1,12.8-54.8l0,0L179.5,245.2z"/>
</g>
<g>
	<path class="st1" d="M374,310.1c19.2,0,29.8-9.1,29.8-25.6v-47.6H393v47.4c0,11.2-6.5,17.2-18.9,17.2s-18.9-5.9-18.9-17.2v-47.4
		h-11.6v47.6c0,16.5,10.7,25.6,30.2,25.6H374z"/>
	<path class="st1" d="M462.7,309.1V269c0-7.6-5.6-11.9-15.4-11.9s-17.1,3.6-20.6,7.1v-6.4l-10.2,0.4V309h10.7v-38
		c3.2-4.4,10.2-6.6,15.6-6.6s9.2,2.2,9.2,6.7v38H462.7L462.7,309.1z"/>
	<rect x="474.7" y="240.6" class="st1" width="10.6" height="9.8"/>
	<polygon class="st1" points="474.7,309.1 485.3,309.1 485.3,258 474.7,258.2 	"/>
	<polygon class="st1" points="522.1,309.1 541.8,258.8 542,258.2 532.8,258.2 517.7,298.8 502.9,258.5 502.8,258.2 491.6,258.2 
		511.1,309.1 	"/>
	<path class="st1" d="M589.8,304.3v-7.9l-0.8,0.8c-2.9,2.9-9.6,5.8-16.7,5.8c-12.1,0-18.3-6.5-18.3-19.2v-0.5h36.5v-0.4
		c0.1-1,0.1-3.1,0.1-3.9c0-13.9-8.3-21.8-22.7-21.8s-24.6,8.2-24.6,26.6s10.1,26.4,26.4,26.4s17.7-4,19.8-5.7L589.8,304.3
		L589.8,304.3z M554.5,277.1c2.1-12.1,9.3-13.9,13.5-13.9c10.8,0,12.4,9.4,12.5,13.9H554.5z"/>
	<path class="st1" d="M610.7,273.6c2.4-5.6,8-7.7,12.6-7.7s5.1,0.4,6.2,1.1l0.7,0.5v-8.6H630c-1.1-1.1-3.2-1.6-6-1.6
		c-5.2,0-10.5,3.2-13.9,8.4v-7.8l-10.1,0.4v50.8h10.7V273.6L610.7,273.6L610.7,273.6z"/>
	<path class="st1" d="M654.6,279.3c-6.5-2.1-10.4-3.4-10.4-8.5s3.9-6.8,10.2-6.8s10.2,1.8,13.3,3.5l0.7,0.4v-7.2h-0.2
		c-2.6-1.7-8-3.6-14.9-3.6c-11.5,0-18.6,5.7-18.6,14.8s6.9,12.4,14.3,14.9l1.5,0.5c6.2,2.2,10.3,3.7,10.3,8.8s-3.6,7.3-11,7.3
		s-12-2.7-15.3-5.4l-0.8-0.6v7.6h0.2c2.8,2.6,9.5,5,16.9,5c12.7,0,19.9-5.4,19.9-14.9s-7.6-13.1-16.2-15.9L654.6,279.3z"/>
	<rect x="680.7" y="240.6" class="st1" width="10.6" height="9.8"/>
	<polygon class="st1" points="691.3,258 680.7,258.2 680.7,309.1 691.3,309.1 	"/>
	<path class="st1" d="M720.8,310.1c5.8,0,10.8-1.8,12.8-3.6h0.1v-7.3l-0.8,0.7c-2,1.7-5.3,2.8-8.5,2.8c-4.7,0-6.9-1.9-6.9-6.1v-31.5
		h15v-6.9h-15v-13.6l-10.4,4.5v9.1l-7.2,1.1v5.8h7.1v33.5c0,7.5,4.9,11.6,13.8,11.6L720.8,310.1z"/>
	<polygon class="st1" points="773.5,234.5 762.6,234.5 755.5,250 762.5,250 	"/>
	<path class="st1" d="M761.3,257.2c-12.3,0-24.6,8.2-24.6,26.6s10.1,26.4,26.4,26.4s17.7-4,19.8-5.7h0.2v-8.1l-0.8,0.8
		c-2.9,2.9-9.6,5.8-16.7,5.8c-12.1,0-18.3-6.5-18.3-19.2v-0.5h36.5v-0.4c0.1-1,0.1-3.1,0.1-3.9C783.9,265.1,775.6,257.2,761.3,257.2
		L761.3,257.2L761.3,257.2z M761.3,263.2c10.8,0,12.4,9.4,12.5,13.9h-26C749.9,265,757.1,263.2,761.3,263.2z"/>
	<path class="st1" d="M369.4,326h-25.7v72.2h11.6v-28.9h13.8c15.1,0,24.4-8.3,24.4-21.7S384.5,326,369.4,326L369.4,326z
		 M355.3,333.5h11.6c10.1,0,14.8,4.5,14.8,14.1s-5,14.1-14.8,14.1h-11.6V333.5z"/>
	<path class="st1" d="M440.7,392.7c-2.5,0-3.7-1.3-3.7-3.9V357c0-7.3-6.2-10.8-18.8-10.8s-14.8,2.3-17.6,4.5h-0.2v6.8l0.7-0.4
		c4.3-2.4,9.2-3.7,14.3-3.7c7.9,0,11.2,1.5,11.2,5.3v2.8c0,3.9-4.4,5.5-12.7,8.3l-0.5,0.2c-7.9,2.5-16.1,5-16.1,15.7
		s6.3,13.6,15.6,13.6s13-3.5,15.2-6.6c0.8,4.1,4.3,6.6,9.4,6.6s6.8-1,8.4-2.7h0.1v-5.4l-0.7,0.5c-0.8,0.5-2.5,1.1-4.3,1.1
		L440.7,392.7z M415.8,392.9c-3.2,0-8.6-1-8.6-7.9s5.1-8.3,9.6-9.9c0.4-0.1,0.8-0.3,1.2-0.4c4.1-1.4,7.1-3.1,8.6-4.6v16.7
		C424.3,390.6,420.4,392.8,415.8,392.9L415.8,392.9z"/>
	<path class="st1" d="M475.9,346.4c-5.2,0-10.5,3.2-13.9,8.4V347l-10.1,0.4v50.8h10.7v-35.5c2.4-5.6,8-7.7,12.6-7.7s5.1,0.4,6.2,1.1
		l0.7,0.5V348h-0.2C480.8,346.9,478.7,346.4,475.9,346.4L475.9,346.4L475.9,346.4z"/>
	<rect x="488.9" y="329.7" class="st1" width="10.6" height="9.8"/>
	<polygon class="st1" points="488.9,398.2 499.4,398.2 499.4,347.1 488.9,347.3 	"/>
	<path class="st1" d="M531,368.4c-6.5-2.1-10.4-3.4-10.4-8.5s3.9-6.8,10.2-6.8s10.2,1.8,13.3,3.5l0.7,0.4v-7.2h-0.2
		c-2.5-1.7-8-3.6-14.9-3.6c-11.5,0-18.6,5.7-18.6,14.8s6.9,12.4,14.3,14.9l1.5,0.5c6.2,2.2,10.3,3.7,10.3,8.8s-3.6,7.3-11,7.3
		s-12-2.7-15.3-5.4l-0.8-0.6v7.6h0.2c2.8,2.6,9.5,5,16.9,5c12.7,0,19.9-5.4,19.9-14.9s-7.6-13.1-16.2-15.9l0,0L531,368.4z"/>
	<path class="st1" d="M617.9,391c-16.7,0-27.9-11.6-27.9-28.9s11.1-28.9,28.2-28.9s14.3,2.1,19.7,6.3l0.8,0.6V331h-0.2
		c-4.1-2.9-10.2-6.1-21.2-6.1c-23.4,0-39.1,14.9-39.1,37.1s15.3,37.1,38.1,37.1s17.5-2.2,23.4-6.7h0.2v-9.5l-0.8,0.6
		c-6.2,5.1-12.9,7.4-21.1,7.4l0,0L617.9,391z"/>
	<rect x="651.6" y="329.7" class="st1" width="10.6" height="9.8"/>
	<polygon class="st1" points="651.6,398.2 662.2,398.2 662.2,347.1 651.6,347.3 	"/>
	<path class="st1" d="M695.3,391.7c-4.7,0-6.9-1.9-6.9-6.1v-31.5h15v-6.9h-15v-13.6l-10.4,4.5v9.1l-7.2,1.1v5.8h7.1v33.5
		c0,7.5,4.9,11.6,13.8,11.6s10.8-1.8,12.7-3.6h0.1v-7.3l-0.8,0.7c-2,1.7-5.3,2.8-8.5,2.8L695.3,391.7z"/>
	<polygon class="st1" points="733.5,339.1 744.4,323.6 733.5,323.6 726.5,339.1 	"/>
	<path class="st1" d="M732.2,346.3c-12.3,0-24.6,8.2-24.6,26.6s10.1,26.4,26.4,26.4s17.7-4,19.8-5.7h0.2v-8.1l-0.8,0.8
		c-2.9,2.9-9.6,5.8-16.7,5.8c-12.1,0-18.3-6.5-18.3-19.2v-0.5h36.5V372c0.1-1,0.1-3.1,0.1-3.9C754.8,354.2,746.5,346.3,732.2,346.3
		L732.2,346.3z M732.2,352.3c10.8,0,12.4,9.4,12.5,13.9h-26C720.8,354.1,728,352.3,732.2,352.3z"/>
</g>
</svg>
