<?xml version="1.0" encoding="utf-8"?>
<!-- Generator: Adobe Illustrator 24.3.0, SVG Export Plug-In . SVG Version: 6.00 Build 0)  -->
<svg version="1.1" id="Layer_1" xmlns="http://www.w3.org/2000/svg" xmlns:xlink="http://www.w3.org/1999/xlink" x="0px" y="0px"
	 viewBox="0 0 330 226" style="enable-background:new 0 0 330 226;" xml:space="preserve">
<style type="text/css">
	.st0{fill:#FFFFFF;stroke:#FFFFFF;stroke-miterlimit:10;}
	.st1{fill-rule:evenodd;clip-rule:evenodd;fill:#810000;}
	.st2{fill:none;}
</style>
<path class="st0" d="M197.4,84c1.5,0,2.9,0.4,4.1,1.3c0.9,0.6,2,0.8,2.9,1.5s1.9,1.1,2.3,2.1c0.3,1.1-0.1,2.3-1.1,2.9
	c-0.8,0.4-1.8,0.6-2.7,0.5c-0.5,0.6-1.1,1.2-1.8,1.7c-0.6,0.4-1.3,0.7-2,0.8l-0.4-0.3v-0.6c0.9-0.9,0.8-2.3,0.6-3.5
	c-0.3-1.1-0.8-2.1-1.5-3c-0.2-0.8-0.5-1.6-1-2.3L197.4,84 M290,85h0.9c0.6,0.6,1.5,1.2,1.4,2.2c0.1,2.4-2.3,4-2.5,6.4
	c0.9,0.4,1.8-0.1,2.6-0.5c1.1-0.5,2.4-0.6,3.5-1.1c0.4-0.2,0.9-0.3,1.4-0.3c0.7,0.7,1.8,0.5,2.7,0.7c0,0.8,0,1.5,0,2.3
	c-0.3,0.5-0.6,1.1-0.8,1.6c-1,2.2-2.8,4-4.3,5.9c-0.6,0.8-1.8,1-2,2c1.2-0.1,2.4,0.1,3.5,0.4c0.1,1,0,2-0.3,2.9
	c-0.6,1.2-1.5,2.1-2.6,2.8c-0.7,0.5-1.1,1.3-1.9,1.6c-0.9,0.2-1.7,0.6-2.5,1.1c-0.8,0.6-1.7,1-2.6,1.2c-0.1-0.3-0.2-0.7-0.1-1
	c0.5-0.7,1.1-1.2,1.8-1.7c0.7-0.6,1.2-1.4,1.9-2.1c0.9-0.7,1.3-1.9,2.1-2.8h-0.7c-0.8,0.4-1.6,0.9-2.3,1.5c-0.5,0.5-1,1.1-1.6,1.5
	c-2.3,1.8-4.7,3.3-7.4,4.4c-1.2,0.5-2.3,1-3.5,1.4c-1.3,0.3-2.7,0.4-4.1,0.2c0-0.3,0-0.6,0-0.8c2.1-1.3,4.1-2.7,6.2-4
	c0.8-0.6,1.8-0.7,2.6-1.2c1.5-0.9,3.1-1.8,4.7-2.6c1.4-0.6,2.7-1.3,4.1-1.9l0.1-0.5c-1.4-0.2-2.5,1-3.8,1.2
	c-0.1-0.8,0.1-1.7,0.6-2.4c-0.6-0.7-1.5-1.2-2.5-1.3c-0.7,1.4-2.1,2-3.2,2.8l-0.6-0.1c0-0.3,0-0.6,0-0.9c0.9-0.9,1.6-1.9,2.1-3.1
	c-0.4-0.4-0.7-0.9-0.8-1.4c0.7-0.2,1.5-0.1,2.2-0.3c0.8-0.6,1.4-1.4,1.8-2.4c-0.8,0.2-1.6,0.3-2.4,0.3c-0.1-1,1-1.5,1.2-2.4
	c-0.5,0-1,0-1.4,0c-0.8-0.5-1.7-1.4-1.2-2.5c0.6,0.1,1.2,0.2,1.8,0.4c0.8-0.2,1.5-0.5,2.2-0.8c0.6-0.1,1.1-0.3,1.6-0.6
	c1-0.9,1.6-2.2,1.9-3.5C289.7,86.9,289.8,85.9,290,85 M289.7,95.3c-1.4,1.4-2.9,2.9-3.4,4.9c0.4,0.4,0.7,1.2,1.4,1.1
	c0.5-0.7,0.4-1.6,0.8-2.4h0.9c0.4,1.2,0.6,2.5,0.8,3.7c0.6-0.1,0.8-0.8,1.1-1.3c0.7-1.1,1.9-1.9,2.6-2.9c0.3-0.6,0.6-1.2,0.7-1.9
	C292.9,96.2,291.4,95.5,289.7,95.3 M237.3,90.7c0.2-0.2,0.5-0.3,0.8-0.4c0.7,0.1,1.4,0.3,2.1,0.3c0.7,0.1,1.1,0.6,1.6,1
	c0.8,0.8,2.1,0.9,2.6,2s0.4,2.3-0.4,3.2c0,3-0.1,6,0,9c0.9-0.3,1.8-0.8,2.6-1.4c1.4-0.8,1.9-2.4,3.2-3.3c0.8-0.4,1.7-0.6,2.6-0.4
	c0.7,0,1,0.9,0.6,1.4c-0.5,0.9-1.1,1.7-1.9,2.4c-1.1,0.9-2.3,1.7-3.5,2.6c-0.6,0.5-1.1,1.1-1.8,1.6c-0.6,0.4-1.2,0.8-1.8,1.3
	c-0.3,0.4-0.4,0.8-0.4,1.3c-0.1,1.1-0.4,2.2-0.7,3.3c-0.2,1.2-0.6,2.3-1.1,3.4c-0.6,1.2-1.9,1.9-2.9,2.8c-1.8,1.6-3.8,2.8-6,3.7
	c-1.7,0.6-3.5,0.9-5.3,0.9c0.2-0.7,0.6-1.3,1.1-1.8c0.5-0.4,1-0.7,1.6-0.9c2.1-0.6,4-1.9,5.3-3.7c1.3-1.5,2-3.4,2.2-5.3
	c-1.3,0.1-2.5,0.5-3.6,1.1c-0.8,0.3-1.7,0.4-2.2,1.1c-0.6,0.6-1.3,1.2-2,1.6c-1.9,1-3.6,2.6-5.8,3c-0.8,0.2-1.5,0.2-2.3,0
	c-0.5-0.4-0.8-0.9-1-1.5c-0.4-1.5-0.5-3.2-0.1-4.8c0.6,0.5,1.1,1,1.5,1.6c0.6,0,1.3-0.2,1.8-0.4c0.6-0.2,1.3-0.3,1.9-0.4
	c1.9-0.7,3.3-2.2,5.3-2.7c1.4-0.5,2.9-1,4.2-1.7c1.1-0.4,2.2-0.8,3.1-1.5c0.7-0.9,0.3-2.2,0.5-3.2c0.2-1.4,0.2-2.7,0.2-4.1
	c0-1.5,0.2-3-0.5-4.4s-1.3-2.8-1.7-4.2C237.2,92.3,237.2,91.5,237.3,90.7 M139.5,91.8c-0.2-0.6,0.4-0.9,0.7-1.2
	c1,0.4,1.5,1.4,2.5,1.8c1.9,0.9,3.7,2,5.3,3.4c0.6,0.5,1,1.2,1.2,2c0,0.8,0,1.6,0.1,2.4c0.2,1.4,0,2.8,0.2,4.1
	c0.1,1.2,0.1,2.4,0.1,3.6c0,1.4,0,2.9,0,4.3c0,1.7-0.4,3.3-0.4,5c0,0.9-0.1,1.8-0.3,2.6c-0.3,1.8-0.7,3.5-1.3,5.2
	c-0.2,0.7-0.6,1.4-1.2,2c-0.4,0.3-0.9,0.4-1.4,0.4c-0.3-0.4-0.4-0.8-0.5-1.3c-0.1-1.4,0.1-2.8,0-4.2c-0.8,0.5-1.4,1.2-2.2,1.8
	c-0.6,0.6-1.2,1.1-1.8,1.6c-1,0.5-1.8,1.1-2.6,1.8c-0.4,0.5-0.9,1.1-1.5,1.5c-0.9,0-1.9,0.1-2.5-0.7c-0.9-1.5-0.5-3.3-0.6-5
	c0.8-0.6,1.4-1.4,2-2.2c0.8-1.5,1.3-3.2,1.7-4.8c0.2-0.6,0.5-1.2,0.7-1.8c0.2-1.1-0.3-2.2-0.3-3.3c-0.1-1.1-0.8-1.8-1.3-2.6
	c0.3-0.2,0.6-0.6,1-0.5c0.6,0.1,1.1,0.6,1.7,0.8c0.6,0.2,1.1,0,1.6,0.2c0.4,0.2,0.8,0.5,1.2,0.8c0.4,0.2,0.9,0.2,1.4,0.4
	c0.5,0.3,0.9,0.5,1.3,0.9c0.1-1.1,0.2-2.2,0.2-3.3c0-1.7,0.4-3.3,0.3-5c0-1.4-0.2-2.8-0.6-4.1c-0.5-0.9-1.1-1.7-1.9-2.4
	c-0.5-0.7-0.9-1.5-1.5-2.1C140.2,93.2,139.8,92.5,139.5,91.8 M143.9,112.7c-0.1,0.6-0.4,1.1-0.9,1.4c-0.5,0.4-1.2,0.7-1.9,0.6
	c-0.2,0.2-0.4,0.5-0.7,0.7c-0.7,0.7-0.9,1.7-1.5,2.4c-1.1,1.3-2,2.7-3,4c-0.2,0.4-0.4,0.7-0.5,1.1c0.5,0.2,1,0.3,1.5,0.2
	c1-0.3,1.9-0.8,2.7-1.5c0.8-0.5,1.7-0.6,2.5-1.1s1.5-1,2.2-1.4c0-2.2,0.1-4.4,0-6.6L143.9,112.7 M270.6,95.8c0-0.6,0-1.3,0.2-1.9
	c1.1,0.1,1.7,1,2.5,1.6c1.1,0.8,2.5,1.1,3.5,2.1c0.8,0.8,1.5,1.8,2,2.8c0.8,1.2,1.2,2.6,1.2,4c-0.5,0.8-1.2,1.5-2,2.1
	c-0.4,0.2-0.9,0.3-1.3,0.3c-0.5-1.8-0.7-3.8-1.4-5.5c-0.4-1-1.4-1.6-2-2.4C272.5,97.7,271.6,96.7,270.6,95.8 M158.7,95.7h0.3
	c0.8,0.7,1.5,1.5,2.2,2.2c1,0.9,1.7,2.1,2,3.4c0.4,1.5,0.8,2.9,1,4.4c0.1,0.5,0.3,0.9,0.5,1.3h0.8c0.4-0.5,0.8-1,1.3-1.3
	s1-0.6,1.5-0.9c0-0.9,0-1.9,0-2.8c0.4-0.2,0.7-0.6,1.2-0.4c0.3,0.3,0.3,0.8,0.4,1.2c0.9,1.2,2.5,1.4,3.8,2c0,0.8-0.1,1.7-0.3,2.5
	c-0.2,0.7-0.6,1.3-1,1.9c-0.9,0.8-2,1.4-3.2,1.6c-0.9,0.2-1.7,0.2-2.6,0.2c-0.5,0-0.9,0.3-1.1,0.7c0.2,1.1,0.2,2.1,0.1,3.2
	c-1,0.8-2.1,1.6-2.5,2.9c2.1,0.8,4.2-0.5,6.2-1c0.8-0.1,1.5-0.3,2.3-0.6c1-0.4,2.1-0.7,3.2-0.8c0.2,0.4,0.5,0.9,0.3,1.4
	s-0.6,1.2-0.8,1.8c-0.3,0.5-0.8,1-1.3,1.2c-1.4,0.6-2.8,1.1-4.2,1.4c-0.8,0.3-1.7,0.4-2.6,0.3c-0.5,0.6-1.1,1-1.8,1.2
	c-1.3,0.2-2.6,0-3.7-0.6c-0.5-0.4-1-0.9-1.2-1.5c-0.7-1.4-1.2-2.8-1.7-4.2c-0.3-1-0.2-2-0.5-3c-0.5-1.7-0.8-3.5-1.2-5.3
	c-0.1-0.6-0.1-1.2,0-1.8c0.5-2.6,1.2-5.1,1.7-7.6C158,97.7,158.3,96.6,158.7,95.7 M205.6,96.4c1.1-0.2,2.2-0.3,3.3-0.3
	c0,0.3,0,0.7,0,1c-0.4,0.4-0.8,0.8-1.2,1.2c-0.6,0.2-1.2,0.1-1.7,0.5c-0.9,0.6-1.8,1.2-2.6,1.9c-1.4,1.1-2.4,2.8-3.8,3.9
	c-1,0.7-2.2,1.1-3.5,1c-1-0.1-2-0.4-2.9-0.9c-0.8-0.3-1.5-0.8-1.9-1.6c-0.2-0.7,0.1-1.5,0.7-1.8c2.5-1,5-2.1,7.4-3
	c0.7-0.3,1.4-0.6,2.2-0.7C203.1,97.5,204.3,96.7,205.6,96.4 M270.5,104.5c0.5,0,1,0.1,1.4,0.4c1,0.9,1.8,2,2.4,3.3
	c0.2,1.4-0.3,2.7-1.3,3.6c-0.4,0-0.7,0-1.1,0c-0.4-0.9-1.3-1.6-1.1-2.7C270.8,107.6,270.4,106.1,270.5,104.5 M200.6,108.1
	c0.8-1,1.9-1.6,3.1-1.7c1.4-0.1,2.7,0.1,4,0.5c0.4,0.1,0.6,0.5,0.8,0.8c-0.5,0.7-1.2,1.2-1.9,1.6c-0.9,0.8-1.7,1.7-2.6,2.5
	c-0.9,0.6-1.5,1.5-2.4,2.2c-0.3,0.3-0.6,0.6-0.8,1c0.6-0.3,1.3-0.6,2-0.6c0.8,0,1.6,0,2.5,0c0.1,0.4,0.5,0.9,0.3,1.3
	c-0.6,0.9-1.4,1.6-2.4,2.1c-0.9,0.6-1.9,1.1-2.9,1.5c-0.3,0.2-0.8,0.2-0.9,0.6c-0.3,0.7-0.3,1.5-0.2,2.2c0.2,0.7,0.6,1.3,0.9,2
	c0.6,2.2,0.9,4.4,0.9,6.7c0,0.4,0,0.8-0.1,1.1c-0.5,0-0.9,0.1-1.4,0.1c-0.2-0.2-0.4-0.4-0.6-0.7c-0.4-0.5,0-1.3-0.6-1.8
	c-0.7-0.5-1.5-0.8-2.3-1.1c0-0.5,0.2-1.1,0.6-1.5c0.5-0.1,1.1-0.1,1.3-0.7c0.2-1,0.1-2.1-0.4-3c-0.9,0.5-1.7,1.2-2.4,1.9
	c-0.6,0.4-0.8,1.1-1.3,1.6c-0.6,0.5-1.2,1-1.7,1.5c-1,1.1-2.1,2.1-3.1,3.2c-0.8,0.1-1.5-0.1-2.1-0.5c-1.2-1.1-1.8-2.7-1.6-4.3
	c0.3-0.2,0.7-0.3,1-0.4c0.5,0,1,0.1,1.5,0.2c0.3-0.4,0.8-0.7,1.2-0.9c0.7-0.3,1.2-0.9,1.9-1.1c1.7-0.7,3.1-2,4.7-2.9
	c0.8-0.5,2-0.9,1.9-2.1l-0.6-0.1l-0.4-0.4c0.1-1.3,1-2.4,1.2-3.8c-0.7,0-1.4,0.1-2.1,0.4c0.1,1,0,2-0.1,3c-0.7,1.4-1.6,2.7-2.7,3.9
	h-0.3c-0.5-0.5-1.2-1-1.3-1.7s-0.9-1.6-0.9-2.5c-0.1-1.6,0.1-3.3,0.5-4.8c0.2-1.1,0.2-2.1,0.1-3.2c0.4,0,0.9-0.1,1.3,0.2
	c0.5,0.4,0.9,0.9,1.3,1.4c1-0.3,1.9-0.8,2.8-1.4c0.9-0.5,1.8-1.2,2.5-1.9C199.3,108.2,199.9,108,200.6,108.1 M287.1,116
	c1.1-0.7,2.5-0.1,3.7-0.1c0.6,0.1,1.1,0.6,1.1,1.2c0,0.8-0.3,1.6-0.9,2.2c-0.4,0.5-0.9,0.8-1.5,0.9c-1.1,0.1-2.3,0.3-3.4,0.6
	c-0.1,0.6,0,1.2,0.2,1.7c0.4,0.6,0.6,1.4,0.8,2.1c0.1,0.8,0.6,1.7,0.2,2.5c-0.3,0.8-0.7,1.5-1.1,2.2c-0.5,0.6-1.4,0.3-2.1,0.5
	c-0.6,0.4-1,1.1-1.7,1.1c-1.1,0.1-1.9-0.9-3-1.1c-0.4-0.1-1-0.1-1.3-0.6c-0.2-0.2-0.3-0.6-0.3-0.9c0.4-0.3,0.9-0.2,1.3-0.2
	c0.8,0.1,1.6,0,2.4-0.3c0.9-0.3,2.1-0.5,2.5-1.5c0.3-0.6-0.1-1.2-0.1-1.8c-0.1-0.8,0.3-1.7-0.1-2.4c-0.3-0.5-0.9-0.3-1.3-0.4
	c-0.4,0.5-0.9,0.8-1.4,1c-0.6,0-1.1,0.1-1.6,0.2c-1.5,0.6-2.9,1.5-4.1,2.5c-1.3,1-2.8,1.8-4.4,2.3c-0.3-0.1-0.7-0.3-1-0.4
	c-0.4-0.6-0.5-1.2-0.9-1.8c-0.5-0.7-0.7-1.4-0.8-2.2c0.3-0.4,0.6-0.7,0.9-1c0.6-0.2,1.2,0,1.8-0.4c0.5-0.4,1.1-0.7,1.7-0.9
	c0.9-0.2,1.8-0.6,2.6-1c1.7-0.9,3.5-1.6,5.3-2.2c1.1-0.5,2.2-0.8,3.3-1.1C285,116.7,286.1,116.5,287.1,116 M249.3,116.3
	c0.5-0.1,1.1,0,1.5,0.2c0.7,0.5,1.4,1.1,2.1,1.8c1.2,0.7,2.3,1.7,3.1,2.9c0.3,0.6,0.4,1.2,0.3,1.9c-1.1,0.9-2.2,1.9-3.7,1.8
	c-0.6,0-1.2-0.2-1.6-0.5c0.1-0.7,0-1.4-0.2-2c-0.5-0.9-0.8-1.9-1.1-2.9C249.3,118.5,249.2,117.4,249.3,116.3 M205.5,118.3
	c1-0.1,2,0,3,0.3c1.3,0.6,2,1.8,2.9,2.8c0.8,0.8,0.6,2,0.4,3c-0.1,1.2-1.3,1.9-2.4,2.1c-0.9-0.1-1.7-0.7-2.1-1.5
	c-0.6-1-1.7-1.6-1.9-2.8C205.2,120.9,205.2,119.6,205.5,118.3z"/>
<path class="st0" d="M184.6,141.5c1.3-1.8,3.5-2.7,5.7-2.3c0.6,0.1,1.1,0.4,1.7,0.5c0.3-0.1,0.6-0.3,0.9-0.4
	c0.2,0.9,0.3,1.8,0.3,2.8c0,0.5,0,0.9-0.2,1.4c-0.5,0-0.6-0.6-0.8-0.9c-0.2-0.8-0.7-1.6-1.3-2.1c-1.2-0.9-2.9-0.8-3.9,0.3
	c-0.8,0.9-1.3,2-1.4,3.2c-0.2,1.5,0,3,0.6,4.4c0.6,1.2,1.7,1.9,3,2.1c0.8,0.1,1.6-0.2,2.3-0.6c0.2-1,0.2-2-0.1-3
	c-0.4-0.4-1.1-0.4-1.7-0.5c0-0.1,0-0.4,0-0.5c1.6-0.1,3.3-0.1,4.9,0v0.4c-0.4,0.2-1,0.2-1.3,0.6c-0.3,1.1,0,2.2-0.2,3.2
	c-0.8,0.5-1.7,0.8-2.6,0.9c-1.9,0.5-3.9-0.1-5.4-1.4C183.2,147.3,182.9,144,184.6,141.5 M199.2,139.4c1.6-0.1,3.1,0.1,4.7,0
	c0,0.1,0.1,0.4,0.1,0.5c-0.5,0.1-0.9,0.3-1.4,0.4c-0.2,1.4-0.2,2.9-0.1,4.4c-0.1,1.2,0,2.4,0.1,3.5c0.2,1,1,1.7,2,1.9
	c1.1,0.3,2.3-0.1,3.1-0.9c0.6-1,0.8-2.1,0.7-3.2c0.1-1.7,0-3.4-0.3-5.1c-0.2-0.8-1.1-0.8-1.7-1c0-0.1,0.1-0.4,0.2-0.5h3.5
	c0.4,0,0.8,0.1,1.2,0.3c-0.6,0.4-1.8,0.5-1.9,1.4c-0.4,2.6,0,5.3-0.5,7.8c-0.5,1-1.4,1.7-2.4,1.9c-1.4,0.4-2.9,0.2-4.2-0.6
	c-0.9-0.6-1.4-1.6-1.4-2.7c0-2.2,0-4.4,0-6.5c0.1-0.9-1-1-1.6-1.2C199.2,139.7,199.2,139.5,199.2,139.4 M265.2,140
	c0.8-0.6,1.9-0.9,2.9-0.7c0.6,0.1,1.2,0.3,1.8,0.5c0.3-0.1,0.7-0.2,1-0.4c0.2,1.1,0.2,2.2,0.1,3.3c0,0.3-0.2,0.5-0.4,0.8
	c-0.5-1-0.7-2.2-1.6-3c-0.6-0.5-1.4-0.7-2.2-0.5c-0.9,0.3-1.5,1.3-1.2,2.2c0,0.1,0,0.1,0.1,0.2c0.4,1,1.5,1.4,2.4,1.7
	c1.2,0.3,2.2,1,3,1.9c0.6,1.2,0.5,2.7-0.3,3.7c-0.8,0.9-1.9,1.4-3,1.4c-1,0-1.9-0.3-2.8-0.8c-0.3,0.2-0.7,0.4-1.1,0.6
	c-0.1-1.3-0.2-2.6-0.1-3.9l0.5-0.2c0.3,1.1,0.9,2,1.7,2.8c0.9,0.8,2.3,1,3.4,0.3c0.9-0.9,0.9-2.3,0-3.1c-0.1-0.1-0.2-0.2-0.3-0.2
	c-1.2-0.8-2.8-1-3.9-1.9c-1.3-1.1-1.4-3.1-0.3-4.4C264.9,140.1,265,140,265.2,140 M170.5,139.4c1.1,0,2.2,0,3.3,0
	c1.6,2.2,3.3,4.5,4.9,6.7c0.4,0.6,0.8,1.1,1.3,1.6c0.1-1.6,0-3.2,0.1-4.8c0.1-0.9-0.1-1.7-0.5-2.5c-0.5-0.2-0.9-0.4-1.4-0.6
	c0-0.1,0.1-0.3,0.1-0.4c1.5-0.1,2.9-0.1,4.4,0c0,0.1,0.1,0.3,0.1,0.4c-0.5,0.1-1,0.3-1.4,0.6c-0.4,0.4-0.3,1-0.4,1.5
	c0,2.2,0,4.5,0,6.7c0.1,0.8,0,1.7-0.3,2.5c-0.7-0.6-1.3-1.3-1.8-2.1c-1.3-1.8-2.7-3.6-4-5.4c-0.4-0.6-0.9-1.2-1.4-1.7
	c-0.1,1.9,0,3.8,0,5.8c-0.1,0.7,0,1.4,0.3,2c0.5,0.3,1,0.6,1.6,0.7c0,0.2,0,0.3,0,0.5h-4.5c0-0.1-0.1-0.3-0.1-0.4
	c0.6-0.3,1.6-0.3,1.7-1.2c0.2-1.7,0.2-3.4,0.2-5.1c0-1,0.2-2.2-0.4-3.1c-0.5-0.5-1.1-0.8-1.7-1C170.4,139.8,170.4,139.6,170.5,139.4
	 M211.3,139.5c1.1-0.1,2.3,0,3.4,0c2.1,2.8,4.2,5.7,6.3,8.6c0.1-1.7,0-3.5,0-5.2c0.1-0.7,0-1.5-0.4-2.2c-0.4-0.6-1.6-0.3-1.7-1.2
	c1.5-0.1,3,0,4.5,0.1l0.2,0.2c-0.5,0.3-1,0.4-1.5,0.8c-0.5,0.3-0.3,1-0.4,1.5c0,2.2,0,4.5,0,6.7c0.1,0.9,0,1.7-0.4,2.5
	c-0.4-0.3-0.8-0.7-1.1-1.1c-1.9-2.7-4-5.3-5.8-8l-0.3-0.1c0,2.1,0,4.1,0,6.2c-0.1,0.6,0.1,1.1,0.4,1.5c0.5,0.3,1,0.5,1.6,0.7
	c0,0.1,0,0.3,0,0.4c-1.6,0.1-3.1,0-4.7,0l0.1-0.6c0.5-0.1,1-0.3,1.5-0.6c0.3-0.5,0.5-1,0.4-1.6c0-1.8,0-3.7,0-5.5
	c0.1-0.6-0.1-1.2-0.4-1.8C212.6,140.2,211.4,140.3,211.3,139.5 M224,139.5c1.7,0,3.4,0,5.1,0l0.1,0.4c-0.5,0.1-1.1,0.3-1.6,0.5
	c-0.3,0.4-0.2,1.1-0.2,1.6c0,2.3,0,4.6,0,6.9c0,0.3,0,0.8,0.3,1c0.5,0.2,0.9,0.4,1.4,0.5v0.5c-1.7,0-3.4,0-5.1,0v-0.6
	c0.5,0,1-0.2,1.5-0.4c0.3-0.3,0.2-0.8,0.3-1.2c0-2.3,0-4.7,0-7c0-0.4,0-0.9-0.3-1.1c-0.4-0.2-0.9-0.4-1.3-0.4
	C224.1,139.9,224.1,139.7,224,139.5 M229.7,139.5h4.6c0,0.2,0,0.4-0.1,0.6l-1.3,0.2c0.1,0.5,0.2,1,0.4,1.5c0.9,2.1,1.6,4.3,2.4,6.5
	c0.2-0.3,0.4-0.7,0.6-1c0.7-1.8,1.4-3.7,2.1-5.5c0.1-0.4,0.4-1-0.1-1.3c-0.4-0.2-0.9-0.3-1.3-0.4c0-0.2,0-0.4,0-0.6
	c1.4,0,2.8,0,4.2,0c0,0.2-0.1,0.4-0.1,0.6c-0.4,0.2-1,0.2-1.3,0.7c-0.4,0.7-0.7,1.5-1,2.3c-1,2.3-1.9,4.7-2.8,7
	c-0.2,0.4-0.3,1.1-1,1c-0.4-0.6-0.6-1.3-0.8-2c-0.6-1.7-1.3-3.5-2-5.2c-0.4-1-0.7-1.9-1.1-2.9c-0.3-0.6-1-0.8-1.6-1.1
	C229.5,139.8,229.6,139.5,229.7,139.5 M241.3,139.4c3-0.1,5.9,0,8.9,0c0,0.9,0,1.9,0,2.8h-0.5c-0.4-0.8-0.9-1.8-1.9-2
	c-0.9-0.1-1.8-0.1-2.8,0l-0.2,0.2c-0.1,1.4,0,2.8,0,4.1c0.8,0.3,1.8,0.2,2.5-0.3c0.4-0.4,0.5-1.1,0.9-1.5c0.4,0.2,0.3,0.7,0.3,1
	c0,1.2,0,2.4,0,3.6H248c-0.2-0.6-0.3-1.5-1-1.8c-0.7-0.1-1.4-0.2-2.1-0.1c0,1.3-0.1,2.7,0,4c0,0.5,0.5,0.8,0.9,0.8
	c1,0.1,2,0,2.9-0.1c1.2-0.5,1.1-2.3,2.3-2.8c0.1,1.2,0,2.4-0.1,3.6c-2.6,0-5.1,0-7.6,0c-0.6,0-1.1,0-1.7-0.1
	c-0.1-0.1-0.1-0.3-0.2-0.4c0.5-0.1,1-0.2,1.4-0.4c0.4-0.4,0.3-1,0.4-1.4c0-2.2,0-4.5,0-6.7c0-0.5,0-1.1-0.4-1.4
	S241.5,140.1,241.3,139.4 M252.3,139.5h5.2c0.9-0.1,1.7,0.1,2.5,0.6c1.2,0.9,1.5,2.6,0.6,3.9c-0.2,0.3-0.5,0.5-0.7,0.7
	c-0.4,0.3-0.9,0.5-1.4,0.8c0.7,1,1.4,1.9,2.1,2.9c0.3,0.5,0.7,1,1.2,1.4c0.5,0.3,1,0.6,1.6,0.7v0.5c-1,0-2.1,0-3.1,0
	c-0.9-1.5-2-3-3-4.4c-0.2-0.3-0.4-0.5-0.7-0.7c-0.3,0-0.7,0-1,0c-0.1,1.4,0,2.8,0.1,4.2c0.5,0.3,1.1,0.5,1.7,0.7
	c-0.8,0.3-1.7,0.4-2.5,0.3c-0.9,0.1-1.8,0-2.7-0.2c0.6-0.4,1.8-0.4,1.7-1.4c0-2.5,0-4.9,0-7.4c0-0.4,0-0.9-0.2-1.3
	c-0.4-0.3-0.9-0.5-1.4-0.6C252.3,139.8,252.3,139.6,252.3,139.5 M255.5,140.3c-0.1,1.1,0,2.3-0.1,3.4c0,0.4,0,0.8,0.1,1.2
	c0.8,0.2,1.6,0.1,2.3-0.3c1.2-0.8,1.6-2.4,0.8-3.6C257.9,140.2,256.7,139.9,255.5,140.3 M278.5,139.5c3.3-0.1,6.6,0,9.9,0
	c0,1.1,0,2.1,0,3.2c-0.9-0.4-0.9-1.4-1.5-2s-1.6-0.5-2.4-0.6c-0.1,1.2-0.1,2.5-0.1,3.7c0,1.6,0,3.1,0,4.6c0,0.4,0,0.9,0.2,1.2
	c0.6,0.4,1.2,0.5,1.9,0.8c-0.9,0.3-1.8,0.4-2.7,0.2c-0.9,0.1-1.9,0-2.8-0.1l-0.2-0.2c0.6-0.3,1.2-0.5,1.9-0.7c0-3.3,0-6.6,0-9.8
	c-0.7-0.1-1.4,0-2.1,0.2c-0.7,0.6-1.1,1.4-1.4,2.2h-0.6C278.6,141.6,278.6,140.5,278.5,139.5 M289.2,139.5c1.7,0,3.4-0.1,5.1,0.1
	c-0.1,0.2-0.2,0.4-0.3,0.6l-1.1,0.1c-0.1,0.1-0.2,0.3-0.3,0.4c0.7,1.5,1.6,3,2.5,4.4c0.7-1.1,1.4-2.2,2.1-3.4
	c0.2-0.4,0.5-0.8,0.2-1.2c-0.5-0.2-1.3-0.2-1.4-0.9c1.3-0.1,2.5,0,3.8,0c0,0.2,0,0.4,0.1,0.6c-1.4,0.6-2,2.1-2.8,3.3
	c-0.6,1-1.2,2-1.5,3.1c-0.2,0.9-0.2,1.9,0,2.9c0.2,0.8,1.2,0.8,1.8,1v0.5c-1.8,0.1-3.6,0-5.3,0c0-0.2,0-0.3,0-0.5
	c0.5,0,1-0.2,1.4-0.3c0.4-0.2,0.3-0.6,0.3-1c0-0.8,0-1.6,0-2.4c-0.1-0.7-0.4-1.3-0.8-1.9c-0.7-1.2-1.3-2.6-2.1-3.8
	c-0.4-0.5-1-0.8-1.6-1C289.3,139.8,289.3,139.7,289.2,139.5 M133.2,139.8c0.1-0.4,0.6-0.2,0.8-0.3h4.5c1.3-0.1,2.6,0.6,3.2,1.7
	c0.4,1.2,0.2,2.5-0.7,3.5c-0.8,0.8-1.9,1.2-3.1,1.2c-0.5,0.1-1.1-0.1-1.4,0.2c-0.1,1.1-0.1,2.1-0.1,3.2c0,0.9,1.1,0.8,1.7,1v0.5
	c-1.6,0-3.2,0.1-4.8,0l-0.2-0.2c0.3-0.4,0.9-0.4,1.4-0.6c0.2-0.4,0.3-0.8,0.2-1.2c0-2.4,0-4.7,0-7.1c0-0.5-0.1-0.9-0.3-1.3
	C133.9,140.2,133.5,140,133.2,139.8 M136.5,140.1c-0.1,1.7-0.1,3.3,0,5c1,0.1,2-0.2,2.7-0.8c0.8-1,0.8-2.4,0.1-3.5
	C138.7,139.9,137.5,140.1,136.5,140.1 M142.9,139.6c1.1-0.4,2.3-0.2,3.4-0.2c1.8,0,3.6-0.1,5.3,0c0.4,0.9,0.3,2-0.2,2.9
	c-0.6-0.7-0.9-1.7-1.8-2.1c-1.1-0.1-2.2-0.2-3.3-0.1c0,1.4,0,2.8,0.1,4.2c0.5,0.4,1.2,0.2,1.8,0.1c0.9-0.2,1.1-1.2,1.5-1.9
	c0.4,0.7,0.5,1.5,0.4,2.3c0.1,0.8,0,1.7-0.2,2.5c-0.7-0.2-0.5-1.2-1.1-1.6c-0.5-0.3-1.1-0.5-1.8-0.4c-0.3,0-0.6,0-0.7,0.3
	c-0.1,1-0.1,2-0.1,3.1c0,0.6,0.2,1.3,0.8,1.4c1,0.2,2.1,0.1,3.1-0.1c1.2-0.4,1.3-1.9,2.1-2.7c0.1,0.1,0.2,0.3,0.4,0.4
	c-0.1,1-0.2,2.1-0.2,3.1c-3.1,0.1-6.3,0-9.4,0c0-0.2,0-0.3,0-0.5c0.6-0.2,1.6-0.2,1.6-1c0-2.6,0-5.3,0-7.9c0-0.3,0.1-0.7-0.2-0.9
	C144,140.2,143.4,140,142.9,139.6 M153.3,139.8c0.4-0.6,1.2-0.4,1.8-0.4c1.1,0.1,2.2-0.2,3.2,0.3c-0.6,0.4-1.7,0.4-1.7,1.2
	c-0.1,1.3,0,2.6,0,4c0.4-0.2,0.8-0.4,1.1-0.7c1-0.9,1.9-1.9,2.7-3c0.1-0.3,0.2-0.6,0.2-0.9c-0.4-0.2-0.9-0.4-1.3-0.6
	c0.8-0.3,1.7-0.4,2.6-0.3c0.6,0,1.2,0,1.8,0.1c0,0.1,0,0.3,0,0.4c-0.6,0.2-1.2,0.4-1.7,0.8c-0.8,0.7-1.4,1.6-2.1,2.3
	c-0.4,0.4-0.8,0.9-1.2,1.4c0,0.4,0.4,0.7,0.6,1c1.1,1.2,2.1,2.6,3.2,3.9c0.5,0.6,1.2,0.9,2,1.1l-0.1,0.5c-1,0.1-2.1,0-3.1-0.1
	c-0.8-0.9-1.4-2-2.2-3c-0.6-0.9-1.4-1.7-2.3-2.4c0,1.1,0,2.2,0,3.3c0,0.4,0,0.8,0.2,1.1c0.5,0.3,1,0.6,1.6,0.8
	c-0.6,0.2-1.2,0.3-1.8,0.2c-1,0-2,0-3-0.1l-0.2-0.2c0.3-0.4,1-0.3,1.4-0.7c0.1-0.3,0.1-0.7,0.1-1c0-2.4,0-4.8,0-7.2
	c0-0.4,0-0.7-0.1-1.1C154.3,140.2,153.8,140,153.3,139.8 M165,139.5c0.7-0.1,1.4-0.1,2.1-0.1c0.9,0,1.9,0,2.8,0.1
	c0.1,0.8-1.4,0.4-1.5,1.2c-0.1,0.6-0.1,1.3-0.1,1.9c0,2.1,0,4.1,0,6.2c0,0.3,0,0.7,0.2,1c0.5,0.3,1,0.5,1.6,0.6c0,0.1,0,0.3-0.1,0.4
	c-1.7,0-3.4,0-5.1,0c0-0.2,0-0.3,0-0.5c0.6-0.2,1.7-0.1,1.7-1c0.1-2.5,0-5,0-7.5c0-0.4,0-0.9-0.2-1.3c-0.5-0.3-1.2-0.4-1.6-0.8
	L165,139.5 M273,139.5c1.2,0,2.5,0,3.7,0c0.5,0,0.9,0.1,1.3,0.3c-0.5,0.3-1,0.5-1.6,0.5c-0.2,0.4-0.3,0.9-0.3,1.4c0,2.4,0,4.7,0,7
	c0,0.4,0,0.9,0.3,1.1c0.4,0.2,0.9,0.4,1.4,0.5c0,0.2,0,0.4,0,0.5h-5.2v-0.5c0.5,0,1-0.1,1.5-0.3c0.3-0.1,0.2-0.6,0.3-0.8
	c0-2.5,0-5.1,0-7.6c0-0.3,0-0.7-0.1-1c-0.5-0.3-1-0.5-1.5-0.6c0-0.1-0.1-0.3-0.1-0.4L273,139.5L273,139.5z"/>
<path class="st1" d="M80.4,89.9c15.3,0,27.8,12.4,27.8,27.8c0,15.3-12.4,27.8-27.8,27.8c-15.3,0-27.8-12.4-27.8-27.8l0,0
	C52.7,102.4,65.1,89.9,80.4,89.9L80.4,89.9z M80.4,89.1c15.8,0,28.6,12.8,28.6,28.6s-12.8,28.6-28.6,28.6s-28.6-12.8-28.6-28.6l0,0
	C51.8,101.9,64.6,89.1,80.4,89.1z M80.4,80.5c20.6,0,37.3,16.7,37.3,37.3s-16.7,37.3-37.3,37.3s-37.2-16.8-37.2-37.4l0,0
	C43.2,97.1,59.9,80.5,80.4,80.5z M80.4,78.9c21.5,0,38.9,17.4,38.9,38.8c0,21.5-17.4,38.9-38.8,38.9s-38.9-17.4-38.9-38.9l0,0
	C41.6,96.3,59,78.9,80.4,78.9z M74.2,83v0.2c-0.5,0.1-0.6,0.4-0.5,0.7l0.6,2.3c0.2,0.5,0.1,1-0.1,1.5c-0.4,0.4-0.9,0.7-1.5,0.8
	s-1.2,0.1-1.7-0.1s-0.8-0.7-0.9-1.2l-0.6-2.4c-0.1-0.5-0.3-0.6-0.8-0.5v-0.2l2.8-0.6v0.2c-0.6,0.1-0.8,0.4-0.6,0.8l0.6,2.4
	c0.2,1,0.7,1.3,1.5,1.2c0.8-0.2,1.3-0.8,1.1-1.8l-0.5-2.2c-0.1-0.5-0.4-0.7-1-0.6v-0.2L74.2,83z M99.4,87.9L99.4,87.9
	c-0.4-0.1-0.8,0-1,0.3L94.7,91l-0.2-0.1l0.4-4.8c0.1-0.3-0.1-0.6-0.4-0.8l0.1-0.2l2.4,1.3l-0.1,0.2c-0.5-0.3-0.7-0.3-0.8-0.1
	C96,86.7,96,86.9,96,87.2l-0.2,2.5l2.1-1.6L98,88c0.1-0.1,0.2-0.2,0.3-0.3c0.1-0.2,0-0.4-0.4-0.6l0.1-0.2L99.4,87.9z M78,87.5v-0.2
	c0.5,0,0.8-0.2,0.8-0.6v-3.5c-0.4-0.4-0.6-0.6-0.7-0.5v-0.2h1.8l3,3.1v-2.3c0-0.5-0.2-0.7-0.8-0.7v-0.2h1.8v0.2
	c-0.5,0.1-0.7,0.3-0.7,0.6v4.3H83l-3.8-3.9v2.9c-0.1,0.5,0.2,0.7,0.8,0.7v0.2L78,87.5L78,87.5z M89.6,88.5v0.2l-2.7-0.4v-0.2
	c0.5,0.1,0.8-0.1,0.8-0.4l0.7-3.5c0.1-0.3-0.1-0.6-0.6-0.7v-0.2l2.7,0.4v0.2c0,0,0,0-0.1,0c-0.5-0.1-0.8,0.1-0.8,0.4l-0.7,3.5
	C88.9,88.2,89.1,88.5,89.6,88.5L89.6,88.5z M107.9,103.5L107.9,103.5l-1-1.2l1-2.8l-0.1-0.2l-1.2,0.9c-0.5,0.2-0.5,0.6-0.2,1
	l-0.1,0.1l-1.6-2.1l0.2-0.1c0.2,0.4,0.6,0.5,1,0.1l2.8-2c0.4-0.3,0.5-0.6,0.2-1l0.1-0.1l1.5,2c0.8,1.2,0.9,2,0.2,2.6
	c-0.6,0.4-1.3,0.3-1.8-0.2l-0.9,2.6C107.7,103.3,107.7,103.4,107.9,103.5L107.9,103.5z M109.5,98.1l-1.6,1.2c0.6,0.9,1.1,1,1.8,0.5
	s0.7-0.9,0.4-1.4C109.9,98,109.7,97.9,109.5,98.1z M113,108.7v-0.2c0.7-0.2,1.2-0.9,1.1-1.7c-0.1-0.5-0.4-0.8-0.8-0.7
	s-0.6,0.3-0.8,0.9l-0.4,1.2c-0.2,0.5-0.7,0.9-1.2,1c-1,0-1.6-0.5-1.8-1.6c0-0.3,0-0.7,0-1c0-0.1,0-0.2,0-0.3s-0.1-0.2-0.2-0.2l0,0
	v-0.2l1.8-0.3v0.2c-1,0.4-1.4,1-1.3,1.8c0,0.5,0.4,0.8,0.8,0.8h0.1c0.4,0,0.6-0.4,0.8-1l0.2-0.5c0.3-1,0.7-1.5,1.4-1.5
	c0.8-0.1,1.6,0.4,1.7,1.2c0,0.1,0,0.2,0,0.3c0.1,0.3,0.1,0.6,0,0.8c0,0.1,0,0.2,0,0.4c0,0.1,0.1,0.2,0.3,0.2v0.2L113,108.7z
	 M110.6,123h-0.2l0.1-2.8h0.2c-0.1,0.6,0.2,0.8,0.7,0.8l3.9,0.2c0-0.9-0.4-1.5-1.2-1.6v-0.2l1.5,0.1l-0.2,4.7l-1.5-0.1v-0.2
	c0.7,0,1.3-0.6,1.3-1.3c0-0.1,0-0.1,0-0.2l-3.9-0.2C110.8,122.2,110.5,122.4,110.6,123L110.6,123z M112.6,133.2l-0.2-0.1
	c0,0,0-0.1,0,0c0.1-0.2,0.1-0.4-0.1-0.6l-1.7-2.4l-1.3-0.5c-0.4-0.3-0.8-0.1-0.9,0.4l-0.2-0.1l1-2.7l0.2,0.1c-0.2,0.5-0.1,0.8,0.4,1
	l1.1,0.4l2.9-0.5c0.3-0.1,0.5-0.2,0.6-0.4l0.2,0.1l-1,2.6l-0.2-0.1c0.2-0.5,0.2-0.7,0-0.7c-0.1,0-0.2,0-0.4,0c-0.1,0-0.1,0-0.1,0
	l-2,0.3l1,1.4c0.1,0.2,0.3,0.4,0.5,0.6c0.2,0.1,0.4-0.1,0.6-0.5l0.2,0.1L112.6,133.2z M111,115.8h-0.2l-0.1-2.7h0.2
	c0,0.5,0.2,0.7,0.6,0.7l3.5-0.1c0.3,0,0.5-0.2,0.5-0.7h0.2l0.1,2.7h-0.2c0,0,0,0,0-0.1c0-0.5-0.2-0.7-0.6-0.7l-3.6,0.1
	C111.2,115.1,111,115.3,111,115.8L111,115.8z M67.3,150.6l-0.1,0.2l-2.7-1.3l0.1-0.2c0.6,0.4,1,0.3,1.2-0.3l1.3-2.8
	c0.2-0.3,0.2-0.6,0-0.6c-0.2-0.1-0.4-0.1-0.7-0.1l0.1-0.2l2.2,0.1l0.2,0.1l-2,4.1C66.6,150,66.7,150.4,67.3,150.6L67.3,150.6z
	 M92.7,145.5c0.9-0.4,1.6-0.3,1.9,0.3c0.2,0.5,0,1-0.6,1.5c0.8,0,1.5,0.4,1.9,1c0.3,0.9,0,1.7-1.2,2.2s-1.8,0.3-2.1-0.4
	c-0.4-0.7-0.1-1.2,0.6-1.7c-0.9,0-1.5-0.3-1.7-0.8C91.2,146.8,91.6,146.1,92.7,145.5L92.7,145.5z M92.3,146.6
	c0.2,0.4,0.7,0.6,1.5,0.7c0.1-0.3,0.1-0.7,0-1c-0.3-0.6-0.6-0.8-1.1-0.6C92.4,145.8,92.2,146.2,92.3,146.6L92.3,146.6z M93.5,149.6
	c0.3,0.6,0.7,0.8,1.2,0.6s0.6-0.6,0.3-1.1s-0.7-0.7-1.6-0.7v0.1C93.3,148.9,93.3,149.3,93.5,149.6L93.5,149.6z M48,130.5l2-0.7
	c-0.2-0.9-0.7-1.2-1.5-0.8s-1,0.7-0.8,1.3C47.6,130.5,47.8,130.6,48,130.5z M53.1,130.7l-0.2,0.1c-0.1-0.1-0.1-0.3-0.2-0.4l0,0
	c-0.2-0.1-0.4-0.1-0.7,0l-3.3,1.2c-0.3,0-0.6,0.3-0.5,0.6c0,0.1,0,0.2,0.1,0.2l-0.2,0.1l-0.9-2.4c-0.4-1.3-0.2-2.1,0.7-2.4
	c0.5-0.2,1-0.1,1.4,0.3c0.4,0.5,0.7,1.1,0.8,1.7l1.4-0.5c0.5-0.1,0.7-0.4,0.4-0.9l0.2-0.1L53.1,130.7L53.1,130.7z M45.7,124.1h-0.2
	l-0.1-4.5h1.5v0.1c-0.9,0.1-1.3,0.7-1.2,1.8c0,0.4,0.1,0.6,0.4,0.6l1.7-0.1c0.1-0.8-0.3-1.2-1.2-1.2v-0.2l2.5-0.1v0.2
	c-0.6-0.1-1.2,0.4-1.2,1c0,0.1,0,0.2,0,0.4l1.8-0.1c0.3,0,0.4-0.2,0.4-0.7c0-0.9-0.5-1.7-1.4-2v-0.2l1.6,0.3l0.1,4.6h-0.2
	c0-0.5-0.2-0.7-0.6-0.7l-3.6,0.1C45.8,123.4,45.6,123.6,45.7,124.1L45.7,124.1z M50.6,110.2h0.2l-0.1,2.6h-0.2c0-0.4,0-0.6-0.2-0.6
	c-0.1,0-0.2,0.1-0.3,0.2l-1.9,1.3l0.2,0.2l1.5,0.1c0.4,0.1,0.6-0.2,0.6-0.7h0.2l-0.1,2.6h-0.2c0-0.5-0.2-0.7-0.5-0.7l-3.7-0.2
	c-0.4,0-0.6,0.2-0.6,0.6h-0.2l0.1-2.6h0.2c0,0.5,0.2,0.8,0.7,0.8l1.6,0.1l-1.6-1.8c-0.2-0.2-0.3-0.3-0.4-0.3s-0.3,0.2-0.3,0.7h-0.2
	l0.1-2.3h0.2c-0.1,0.5,0.4,1.4,1.6,2.6l3-2.2C50.4,110.5,50.5,110.4,50.6,110.2C50.5,110.2,50.5,110.2,50.6,110.2L50.6,110.2z
	 M52.8,105.2l0.2,0.1l-1,2.6l-0.2-0.1c0.2-0.5,0.1-0.8-0.3-0.9l-3.4-1.3c-0.3-0.1-0.6,0-0.8,0.5l-0.2-0.1l0.9-2.6l0.2,0.1
	c0,0,0,0,0,0.1c-0.2,0.5-0.1,0.7,0.3,0.8l3.5,1.3C52.4,105.9,52.6,105.7,52.8,105.2L52.8,105.2z M54.4,102.4L54.4,102.4
	c0.2-0.5,0.1-0.8-0.2-1.1l-3-2.2c-0.5,0-0.8,0.1-0.8,0.2l-0.2-0.1l1-1.3l4.2-0.2l-1.9-1.4c-0.2-0.3-0.6-0.3-0.9-0.1
	c-0.1,0.1-0.1,0.1-0.2,0.2l-0.1-0.1l1-1.4l0.1,0.1c-0.2,0.4-0.2,0.7,0.1,0.9l3.6,2.7L57,98.8l-5.3,0.3l2.5,1.9
	c0.2,0.3,0.6,0.3,0.9,0.1c0.1-0.1,0.1-0.1,0.2-0.2l0.1,0.1L54.4,102.4L54.4,102.4z M62.3,90.4L62.3,90.4c-0.3,0.4-0.3,0.8,0.1,1.1
	l0.7,0.7c-0.3,0.7-0.6,1.3-1.1,1.7c-0.9,1.1-2.5,1.3-3.7,0.4c-0.1-0.1-0.2-0.2-0.3-0.2c-1.1-1-1.2-2.7-0.2-3.8
	c0-0.1,0.1-0.1,0.2-0.2c0.3-0.3,0.6-0.5,1-0.6c0.1-0.1,0.2-0.1,0.3-0.2s0.1-0.2,0-0.5l0.1-0.2l1.3,1.3L60.6,90
	c-0.8-0.4-1.7-0.3-2.4,0.2c-0.7,0.7-0.4,1.6,0.8,2.8c1.2,1.2,2.2,1.4,2.9,0.7c0.4-0.4,0.4-0.7,0.2-1l-0.6-0.6
	c-0.2-0.3-0.6-0.2-1,0.2l-0.1-0.1L62.3,90.4L62.3,90.4z M102.6,90.2L102.6,90.2l3.4,2.9l-1,1.1l-0.2-0.2c0.5-0.7,0.4-1.4-0.5-2.1
	c-0.3-0.3-0.5-0.3-0.7-0.1l-1.2,1.3c0.3,0.5,0.9,0.6,1.4,0.4c0.1-0.1,0.2-0.2,0.3-0.3l0.1,0.1l-1.7,1.9l-0.1-0.1
	c0.4-0.4,0.4-1.1,0-1.6c-0.1-0.1-0.1-0.1-0.2-0.1l-1.2,1.3c-0.2,0.2-0.2,0.5,0.2,0.8c0.6,0.7,1.6,0.8,2.4,0.4l0.2,0.2l-1.3,0.9
	l-3.4-3.1l0.1-0.1c0.4,0.3,0.7,0.4,0.9,0.1l2.4-2.7C103,90.8,102.9,90.5,102.6,90.2L102.6,90.2z M76.2,147.8c1,0,1.5,0.4,1.6,1.1
	c0,0.5-0.4,0.9-1.2,1.1c0.8,0.5,1.3,1,1.3,1.7c-0.1,1-0.8,1.5-2,1.5s-1.7-0.5-1.8-1.3c0-0.6,0.4-1.1,1.3-1.3
	c-0.8-0.4-1.2-0.9-1.2-1.5C74.4,148.2,75,147.8,76.2,147.8z M75.4,148.6c0,0.5,0.3,0.9,1.1,1.2c0.2-0.2,0.4-0.5,0.4-0.9
	c0-0.6-0.3-1-0.8-1C75.7,147.9,75.4,148.2,75.4,148.6z M75.2,151.9c0,0.7,0.3,1,0.8,1.1s0.8-0.3,0.8-0.9c0-0.5-0.3-0.9-1.1-1.3
	l-0.1,0.1C75.3,151.1,75.2,151.4,75.2,151.9L75.2,151.9z M84.6,149.1c0,1.3,0.2,1.8,0.8,1.8c0.2,0,0.4,0,0.4-0.1v-0.3
	c0-0.2,0-0.3,0.1-0.4c0-0.6,0-1.1-0.2-1.7c0-0.3-0.3-0.4-0.5-0.4C84.7,147.9,84.5,148.3,84.6,149.1z M83.2,153.4L83.2,153.4
	c1.2-0.2,2.2-1.1,2.5-2.3c-0.1,0.1-0.3,0.1-0.4,0.1s-0.3,0-0.4,0c-0.8,0.1-1.6-0.5-1.7-1.4c0-0.1,0-0.2,0-0.3c0-1,0.8-1.8,1.8-1.8
	c0.1,0,0.1,0,0.2,0c1.4,0.1,2.1,0.9,2.1,2.4C87.1,152,85.8,153.1,83.2,153.4L83.2,153.4z M80.5,129.8c3.2,0.6,4.3,3.7,5.9,8.3
	c0.8,2.2,4.6,0.6,3.5-2.3c-0.8-2.3-1.9-4.4-3.2-6.4c-1.2-1.8-3.6-2.6-4.1-3.7v-0.1v-3.9c6.5,1.9,8.7,7.5,10.9,11.9
	c1,2.1,4.9,0.2,3.4-2.5c-2.3-4-4.4-10-12.4-13.1c-0.6-0.3-1.2-0.4-1.8-0.3v-1.5c0-1.1-0.9-2.1-2.1-2.1c-1.1,0-2.1,0.9-2.1,2.1v1.5
	c-0.6,0-1.1,0.1-1.6,0.3c-8,3.1-10.1,9.1-12.4,13.1c-1.5,2.7,2.3,4.6,3.4,2.5c2.1-4.4,4.3-9.9,10.6-11.9v4c-0.5,1.1-2.9,1.9-4.1,3.6
	c-1.3,2-2.4,4.2-3.2,6.4c-1.1,2.9,2.7,4.5,3.5,2.3C76.1,133.5,77.2,130.4,80.5,129.8z M84.3,96.3L84.3,96.3c-1.1,0-2,0.8-2.1,1.9
	c0,0,0,0,0,0.1v13.2c0,1.1,0.9,2,2,2c0,0,0,0,0.1,0l0,0c0.1,0,0.2,0,0.4,0c6.8,2.6,10.7,7.7,13.8,11.9c1.4,1.9,4.7-0.2,2.9-2.8
	c-2.8-4-6.8-9.1-14-12.2c-0.3-0.1-0.7-0.2-1-0.3v-4.9c4.5,1.2,7.5,3.4,11.2,6.3c1.8,1.4,4.5-1.5,2.1-3.5c-3.8-3.2-8.3-5.5-13.1-6.8
	h-0.2v-2.9C86.4,97.2,85.5,96.3,84.3,96.3C84.4,96.4,84.4,96.4,84.3,96.3L84.3,96.3z M76.6,96.3c1.1,0,2,0.8,2.1,1.9c0,0,0,0,0,0.1
	v13.2c0,1.1-0.9,2-2,2c0,0,0,0-0.1,0s-0.2,0-0.4,0c-6.8,2.6-10.7,7.7-13.8,11.9c-1.4,1.9-4.7-0.2-2.9-2.8c2.8-4,6.8-9.1,14-12.2
	c0.3-0.1,0.7-0.2,1-0.3v-4.9c-4.4,1.2-7.4,3.4-11.2,6.3c-1.9,1.4-4.5-1.5-2-3.5c3.8-3.1,8.2-5.4,13-6.8h0.2v-2.9
	C74.5,97.3,75.4,96.4,76.6,96.3C76.5,96.4,76.5,96.4,76.6,96.3L76.6,96.3z M80.4,91.7c14.4,0,26,11.6,26,26s-11.6,26-26,26
	s-26-11.6-26-26S66.1,91.7,80.4,91.7z"/>
<rect x="41.6" y="78.9" class="st2" width="77.7" height="77.7"/>
</svg>
