<?xml version="1.0" encoding="utf-8"?>
<!-- Generator: Adobe Illustrator 24.3.0, SVG Export Plug-In . SVG Version: 6.00 Build 0)  -->
<svg version="1.1" id="katman_1" xmlns="http://www.w3.org/2000/svg" xmlns:xlink="http://www.w3.org/1999/xlink" x="0px" y="0px"
	 viewBox="0 0 841.9 595.3" style="enable-background:new 0 0 841.9 595.3;" xml:space="preserve">
<style type="text/css">
	.st0{fill:#FFFFFF;}
	.st1{fill-rule:evenodd;clip-rule:evenodd;fill:#FFFFFF;}
</style>
<g>
	<rect x="246.6" y="398.1" class="st0" width="5.3" height="25.8"/>
	<polygon class="st0" points="286,398.1 279.5,413.8 273.1,398.1 267.1,398.1 278.6,424.4 280.4,424.4 291.9,398.1 291.9,398.1 	"/>
	<polygon class="st0" points="223.6,413.5 208.6,397.6 206.9,397.6 206.9,424 212.2,424 212.2,408.5 227.2,424.4 228.9,424.4 
		228.9,398.1 223.6,398.1 	"/>
	<path class="st0" d="M184.1,413.6c0,3.9-2.4,5.9-5.7,5.9c-3.3,0-5.7-2-5.7-5.9v-15.6h-5.3v15.2c0,6.9,4.6,11.2,10.9,11.2
		s10.9-4.3,10.9-11.2v-15.2h-5.3v15.6H184.1z"/>
	<polygon class="st0" points="312.5,412.7 321.4,412.7 321.4,408.1 312.5,408.1 312.5,402.9 324.7,402.9 324.7,398.1 307.3,398.1 
		307.3,424 325.1,424 325.1,419.2 312.5,419.2 	"/>
	<path class="st0" d="M389,409.1l-3-1.3c-1.9-0.8-3-1.5-3-3s1.5-2.5,3.2-2.5c1.7,0,3.6,1.1,4.9,3l3.6-2.8c-1.5-2.8-4.4-4.9-8.5-4.9
		c-4.1,0-8.6,2.9-8.6,7.3s2.6,5.8,6.2,7.4l2.8,1.2c2.1,0.9,3.3,1.5,3.3,3.2c0,1.7-1.4,2.9-3.7,2.9s-4.9-1.8-6.4-3.7l-3.6,2.7
		c1.9,3.4,5.5,5.7,10,5.7c4.4,0,9-3,9-7.8c0-4.8-2.3-5.8-6.4-7.5L389,409.1z"/>
	<path class="st0" d="M360.6,406.4c0-5.1-3.9-8.4-9.3-8.4h-9.7v25.8h5.3v-9.1h3.9l6.7,9.1h5.9l-7.4-10.2
		C358.7,412.4,360.5,409.7,360.6,406.4L360.6,406.4z M351.2,410.2h-4.4v-7.4h4.4c2.5,0,4,1.5,4,3.7S353.7,410.2,351.2,410.2z"/>
	<path class="st0" d="M567.4,397.6L555.9,424h5.7l1.4-3.3h10.6l1.4,3.3h5.7l-11.6-26.4H567.4L567.4,397.6z M564.8,416.2l3.4-8.7l0,0
		l3.4,8.7H564.8z"/>
	<path class="st0" d="M615.1,406.4c0-5.1-3.9-8.4-9.3-8.4H596v25.8h5.3v-9.1h3.9l6.7,9.1h6l-7.3-10.2
		C613.4,412.4,615.2,409.7,615.1,406.4L615.1,406.4z M605.7,410.2h-4.4v-7.4h4.4c2.5,0,3.9,1.5,3.9,3.7S608.2,410.2,605.7,410.2z"/>
	<polygon class="st0" points="474.8,412.7 483.7,412.7 483.7,408.1 474.8,408.1 474.8,402.9 486.9,402.9 486.9,398.1 469.5,398.1 
		469.5,424 487.3,424 487.3,419.2 474.8,419.2 	"/>
	<polygon class="st0" points="432.4,402.9 440.6,402.9 440.6,424 445.9,424 445.9,402.9 454.2,402.9 454.2,398.1 432.4,398.1 	"/>
	<path class="st0" d="M536.2,398.1h-9.7v25.8h5.3v-9.1h4.4c5.5,0,9.3-3.4,9.3-8.4S541.7,398.1,536.2,398.1z M536.2,410.2h-4.4v-7.4
		h4.4c2.4,0,4,1.5,4,3.7C540.1,408.7,538.7,410.2,536.2,410.2z"/>
	<polygon class="st0" points="485.2,389.3 485.2,388.3 478.8,388.3 476,395.6 479.8,395.6 	"/>
	<rect x="411.8" y="398.1" class="st0" width="5.3" height="25.8"/>
	<rect x="632.9" y="398.1" class="st0" width="5.3" height="25.8"/>
	<path class="st0" d="M666.7,409.1l-3-1.3c-1.9-0.8-3-1.5-3-3s1.5-2.5,3.2-2.5s3.7,1.1,4.9,3l3.6-2.8c-1.5-2.8-4.4-4.9-8.6-4.9
		s-8.6,2.9-8.6,7.3s2.6,5.8,6.3,7.4l2.8,1.2c2.1,0.9,3.3,1.5,3.3,3.2c0,1.7-1.4,2.9-3.6,2.9s-4.9-1.8-6.3-3.7l-3.6,2.7
		c1.9,3.4,5.5,5.7,10,5.7s9-3,9-7.8S670.8,410.8,666.7,409.1L666.7,409.1z"/>
</g>
<path class="st1" d="M523.1,218.7l70.1,70.1l0.3-0.3l-70.1-70.1L523.1,218.7 M523.3,293v0.4h70.6V293L523.3,293 M554.1,352.9
	c-1.3,4.3-1.9,8.7-1.9,13.1c0,0.6,0,1.2,0,1.8h0.8c0-0.6,0-1.2,0-1.8c0-4.3,0.6-8.5,1.7-12.5 M640.5,353.5c1.2,4.1,1.7,8.3,1.7,12.5
	c0,0.6,0,1.2,0,1.8h0.8c0-0.6,0-1.2,0-1.8c0-4.3-0.6-8.6-1.7-12.7 M523.4,367.9l-0.2-0.3l72-72.1l0.3,0.3L523.4,367.9 M671.8,367.4
	l-66.3-66.3l0.3-0.3l66.3,66.3L671.8,367.4 M601.5,293.4h70.9v-0.3h-70.9C601.5,293,601.5,293.4,601.5,293.4 M597.6,367.8h0.4v-46.4
	h-0.4V367.8z"/>
<g>
	<path class="st1" d="M522.8,368.3h150.1V218.2H522.8V368.3z M524.1,367h147.5V219.5H524.1V367L524.1,367z"/>
	<path class="st1" d="M597.7,367.5L597.7,367.5c-15.4,0-30.2-4.7-42.9-13.6c-16.2-11.5-27-28.6-30.4-48.1
		c-3.3-19.6,1.1-39.3,12.5-55.5c13.9-19.7,36.6-31.5,60.8-31.5s30.2,4.7,42.9,13.7c16.2,11.5,27,28.6,30.3,48.1
		c3.3,19.6-1.1,39.3-12.5,55.5C644.6,355.8,621.8,367.6,597.7,367.5 M597.9,220.2c-23.7,0-46.1,11.6-59.7,30.9
		c-11.2,16-15.7,35.3-12.3,54.6c3.3,19.2,13.9,36,29.8,47.3c12.4,8.7,27,13.4,42.1,13.4l0,0c23.7,0,46.1-11.6,59.7-30.9
		c11.2-16,15.7-35.3,12.3-54.6c-3.3-19.2-13.9-36-29.9-47.3C627.5,224.9,612.9,220.2,597.9,220.2"/>
</g>
<path class="st1" d="M634.7,257c11.3,0,21.4,5.2,28.1,13.4h1c-6.8-8.6-17.3-14.1-29-14.1c-11.8,0-16.6,3-22.9,8l0.2,0.8
	C618.3,260.1,626.2,257,634.7,257 M633.4,330.2c0.5,0,0.9,0,1.4,0c20.4,0,37-16.6,37-36.9c0-20.4-2.4-15.1-6.7-21.1l-0.6,0.5
	c4.1,5.9,6.5,13,6.5,20.7c0,20-16.3,36.3-36.3,36.3s-1.1,0-1.6,0 M667.4,270.4h-3.6c0.5,0.6,0.8,1.1,1.3,1.7L667.4,270.4"/>
<path class="st1" d="M664.4,272.6l0.6-0.5c-0.4-0.6-0.8-1.1-1.3-1.7h-1C663.3,271.1,663.9,271.8,664.4,272.6 M633.3,330.1
	c0-0.2-0.2-0.5-0.2-0.7L633.3,330.1 M639.4,348.2l-6-18c-3.6-0.2-7.1-0.8-10.6-2C630.1,333.1,635.9,340.1,639.4,348.2"/>
<path class="st1" d="M613.8,270.4l-1.7-5.4c-8.3,6.6-13.6,16.9-13.6,28.3c0,19.5,15.4,35.3,34.7,36.2L624,302l40.5-29.4
	c-0.5-0.8-1.1-1.4-1.6-2.2h-49"/>
<path class="st1" d="M597.6,320.5c5.4,0,10.7,1,15.7,2.8c-9.4-6.7-15.7-17.7-15.7-30.2s5.5-22.3,14.1-29l-14.1-44.6l-16.3,50.8h-53
	l42.9,31.4l-15.5,46.4C562.8,331.9,578.9,320.5,597.6,320.5"/>
<path class="st1" d="M640.8,352.4l-0.5,0.4c-5.6-18.2-22.6-31.4-42.6-31.4s-36.9,13.1-42.6,31.1l-0.5-0.4l-0.4,1.1l43.5-31.8
	l43.3,32.1L640.8,352.4 M554.4,351.9h0.2c0,0.1,1.3-3.9,1.3-3.9C555.3,349.4,554.9,350.6,554.4,351.9 M640.9,352.2
	c-0.5-1.4-0.9-2.7-1.5-4l1.4,4.2h0.2 M603.2,287.5l0.3,0.3l69.2-69.2l-0.3-0.3L603.2,287.5 M266.2,261.6c0,25.5-17.9,43.9-46.8,43.9
	h-34.2v62.8h-17.3v-150h51.5C248.3,218.3,266.2,236.4,266.2,261.6 M185.2,234.2v55.5H219c19.3,0,29.3-11.6,29.3-27.7
	s-10-27.7-29.3-27.7H185.2 M377.2,241.2l-12.6,9.7c-7.8-12-20.2-18.8-33.5-18.8s-26,7.1-26,21.8s10.2,18.6,23.6,25.2l16.2,8
	c21.4,10.4,34.2,21.6,34.2,41.8s-20.2,41.8-47.3,41.8c-27.1,0-42.6-12.5-54-32.3l12.9-9.8c8.9,13.9,22,25.7,40.8,25.7
	c18.8,0,29.6-9.8,29.6-25c0-15.2-10-19.3-24.5-26.4l-16.4-8c-17.1-8.4-33.1-19.1-33.1-40.2s20.4-39.1,44.2-39.1
	c23.7,0,36.9,10.7,46,25.5 M409.7,218.3v150h86.8v-15.9h-69.5V218.3H409.7"/>
<path class="st0" d="M168.2,198.7V180h2.7c0.6,0,0.9,0.3,1.1,0.8l0.3,1.4c0.3-0.4,0.7-0.7,1-1c0.3-0.3,0.8-0.5,1.1-0.8
	c0.4-0.2,0.8-0.4,1.3-0.5c0.5-0.2,1-0.2,1.5-0.2c1.1,0,2.1,0.3,2.9,1c0.8,0.6,1.3,1.5,1.7,2.5c0.2-0.6,0.6-1.1,1.1-1.6
	c0.4-0.5,0.9-0.8,1.4-1.1s1.1-0.5,1.7-0.6s1.1-0.2,1.7-0.2c1,0,1.9,0.2,2.7,0.5c0.8,0.3,1.4,0.8,2,1.4c0.5,0.6,0.9,1.4,1.2,2.2
	c0.3,0.9,0.5,1.9,0.5,3v11.9h-4.4v-11.9c0-1.2-0.2-2.1-0.8-2.7c-0.5-0.6-1.3-0.9-2.3-0.9c-1,0-0.9,0.1-1.3,0.2
	c-0.4,0.2-0.8,0.4-1,0.7c-0.2,0.3-0.5,0.7-0.7,1.1c-0.2,0.5-0.2,1-0.2,1.5v11.9h-4.5v-11.9c0-1.2-0.2-2.1-0.8-2.7s-1.2-0.8-2.2-0.8
	c-1,0-1.2,0.2-1.7,0.5c-0.5,0.3-1.1,0.8-1.5,1.3v13.7h-4.4L168.2,198.7z M205.9,179.7c1.1,0,2.2,0.2,3.2,0.5
	c0.9,0.4,1.8,0.9,2.5,1.6c0.7,0.7,1.2,1.6,1.7,2.7c0.4,1.1,0.6,2.2,0.6,3.6c0,1.4,0,0.6,0,0.8s-0.1,0.4-0.2,0.5
	c0,0.2-0.2,0.2-0.3,0.3c-0.2,0-0.3,0.1-0.5,0.1h-11.3c0.2,1.9,0.6,3.3,1.5,4.2c0.9,0.9,2.1,1.4,3.5,1.4c1.4,0,1.3-0.1,1.8-0.2
	c0.5-0.2,1-0.4,1.4-0.5c0.4-0.2,0.7-0.4,1-0.5c0.3-0.2,0.6-0.2,0.8-0.2c0.2,0,0.3,0,0.5,0.1c0.2,0,0.2,0.2,0.3,0.3l1.3,1.6
	c-0.5,0.5-1,1.1-1.7,1.4c-0.6,0.4-1.2,0.7-1.9,0.9c-0.7,0.2-1.4,0.4-2.1,0.5c-0.7,0.1-1.4,0.2-2,0.2c-1.3,0-2.4-0.2-3.6-0.6
	c-1.1-0.4-2.1-1.1-2.9-1.9c-0.8-0.8-1.4-1.9-1.9-3.1c-0.5-1.2-0.7-2.7-0.7-4.3c0-1.6,0.2-2.4,0.6-3.6c0.4-1.1,1-2.1,1.7-2.9
	s1.7-1.4,2.7-2c1.1-0.5,2.3-0.7,3.6-0.7l0,0L205.9,179.7z M206.1,182.8c-1.3,0-2.3,0.4-3,1.2c-0.8,0.8-1.2,1.9-1.4,3.3h8.4
	c0-0.6-0.1-1.2-0.2-1.7s-0.4-1-0.7-1.4c-0.3-0.5-0.8-0.8-1.2-1C207.5,182.9,206.9,182.8,206.1,182.8L206.1,182.8L206.1,182.8z
	 M218.4,198.7V180h2.7c0.6,0,0.9,0.3,1.1,0.8l0.3,1.4c0.3-0.4,0.7-0.7,1-1c0.3-0.3,0.8-0.5,1.1-0.8c0.4-0.2,0.8-0.4,1.3-0.5
	s1-0.2,1.5-0.2c1.1,0,2.1,0.3,2.9,1c0.8,0.7,1.3,1.5,1.7,2.5c0.2-0.6,0.6-1.1,1.1-1.6c0.4-0.5,0.9-0.8,1.4-1.1s1.1-0.5,1.7-0.6
	s1.1-0.2,1.7-0.2c1,0,1.9,0.2,2.7,0.5c0.8,0.3,1.4,0.8,2,1.4c0.5,0.6,0.9,1.4,1.2,2.2c0.3,0.9,0.5,1.9,0.5,3v11.9h-4.4v-11.9
	c0-1.2-0.2-2.1-0.8-2.7c-0.5-0.6-1.3-0.9-2.3-0.9c-1,0-0.9,0.1-1.3,0.2s-0.8,0.4-1,0.7c-0.2,0.3-0.5,0.7-0.7,1.1
	c-0.2,0.5-0.2,1-0.2,1.5v11.9h-4.5v-11.9c0-1.2-0.2-2.1-0.8-2.7s-1.2-0.8-2.2-0.8s-1.2,0.2-1.7,0.5c-0.5,0.3-1.1,0.8-1.5,1.3v13.7
	h-4.4L218.4,198.7z M248,198.4v-27.1h4.6v10.7c0.8-0.8,1.6-1.4,2.6-1.9c1-0.5,2.1-0.7,3.3-0.7c1.3,0,2,0.2,2.8,0.6
	c0.8,0.5,1.6,1.1,2.2,1.8c0.6,0.8,1.1,1.8,1.4,3c0.3,1.2,0.5,2.5,0.5,4s-0.2,2.7-0.6,3.9s-0.9,2.2-1.7,3.1c-0.7,0.8-1.6,1.6-2.6,2.1
	c-1,0.5-2.1,0.8-3.3,0.8c-0.5,0-1.1,0-1.6-0.2c-0.5-0.1-0.9-0.3-1.3-0.5c-0.4-0.2-0.8-0.5-1.1-0.8c-0.4-0.3-0.7-0.6-1-1l-0.2,1.3
	c0,0.3-0.2,0.5-0.4,0.7s-0.5,0.2-0.8,0.2h-3L248,198.4z M257,183.5c-1,0-1.8,0.2-2.5,0.6c-0.7,0.4-1.3,0.9-1.9,1.7v8.3
	c0.5,0.6,1.1,1.1,1.7,1.3c0.7,0.2,1.4,0.4,2.1,0.4s1.4-0.2,1.9-0.4c0.6-0.2,1.1-0.7,1.4-1.1c0.4-0.5,0.7-1.1,0.9-2
	c0.2-0.8,0.3-1.7,0.3-2.8s-0.1-2-0.3-2.7c-0.2-0.8-0.5-1.4-0.8-1.8c-0.3-0.5-0.8-0.8-1.2-1C258.2,183.7,257.6,183.6,257,183.5
	L257,183.5z M269.3,198.7v-18.6h2.7c0.5,0,0.8,0.1,1,0.2c0.2,0.2,0.3,0.5,0.4,0.8l0.3,2.3c0.7-1.1,1.4-2.1,2.4-2.7
	c0.9-0.7,2-1,3.1-1c0.9,0,1.7,0.2,2.4,0.6l-0.6,3.3c0,0.2-0.2,0.4-0.2,0.5c-0.1,0.1-0.3,0.2-0.5,0.2s-0.5,0-0.8-0.2
	c-0.3-0.1-0.8-0.2-1.3-0.2c-1,0-1.7,0.2-2.4,0.8s-1.3,1.3-1.7,2.3v11.6L269.3,198.7L269.3,198.7z M291.8,179.7
	c1.1,0,2.2,0.2,3.2,0.5c0.9,0.4,1.8,0.9,2.5,1.6s1.2,1.6,1.7,2.7c0.4,1.1,0.6,2.2,0.6,3.6c0,1.4,0,0.6,0,0.8s-0.1,0.4-0.2,0.5
	c0,0.2-0.2,0.2-0.3,0.3c-0.2,0-0.3,0.1-0.5,0.1h-11.3c0.2,1.9,0.6,3.3,1.5,4.2c0.9,0.9,2.1,1.4,3.5,1.4c1.4,0,1.3-0.1,1.8-0.2
	c0.5-0.2,1-0.4,1.4-0.5c0.4-0.2,0.7-0.4,1-0.5c0.3-0.2,0.6-0.2,0.8-0.2c0.2,0,0.3,0,0.5,0.1c0.2,0,0.2,0.2,0.3,0.3l1.3,1.6
	c-0.5,0.5-1,1.1-1.7,1.4c-0.6,0.4-1.2,0.7-1.9,0.9c-0.7,0.2-1.4,0.4-2.1,0.5c-0.7,0.1-1.4,0.2-2,0.2c-1.3,0-2.4-0.2-3.6-0.6
	c-1.1-0.4-2.1-1.1-2.9-1.9c-0.8-0.8-1.4-1.9-1.9-3.1s-0.7-2.7-0.7-4.3c0-1.6,0.2-2.4,0.6-3.6s1-2.1,1.7-2.9c0.8-0.8,1.7-1.4,2.7-2
	c1.1-0.5,2.3-0.7,3.6-0.7l0,0L291.8,179.7z M292,182.8c-1.3,0-2.3,0.4-3,1.2c-0.8,0.8-1.2,1.9-1.4,3.3h8.4c0-0.6-0.1-1.2-0.2-1.7
	c-0.2-0.5-0.4-1-0.7-1.4c-0.3-0.5-0.8-0.8-1.2-1C293.4,182.9,292.8,182.8,292,182.8L292,182.8L292,182.8z M324.8,198.4h-2
	c-0.4,0-0.8,0-1-0.2c-0.2-0.2-0.4-0.4-0.5-0.8l-0.4-1.3c-0.5,0.4-0.9,0.8-1.4,1.1c-0.5,0.3-0.9,0.6-1.4,0.8c-0.5,0.2-1,0.4-1.5,0.5
	s-1.1,0.2-1.7,0.2c-0.6,0-1.4-0.1-2.1-0.3c-0.7-0.2-1.2-0.5-1.7-0.9c-0.5-0.5-0.8-1-1.1-1.5c-0.2-0.6-0.4-1.4-0.4-2.2
	c0-0.8,0.2-1.4,0.5-2.1c0.4-0.7,1-1.3,1.8-1.8s2-1,3.3-1.4s3.1-0.5,5.2-0.6v-1.1c0-1.2-0.2-2.1-0.8-2.7c-0.5-0.6-1.3-0.9-2.3-0.9
	c-1,0-1.3,0.1-1.7,0.2c-0.5,0.2-0.8,0.3-1.2,0.5c-0.4,0.2-0.7,0.4-1,0.5c-0.3,0.2-0.6,0.2-1,0.2c-0.4,0-0.5-0.1-0.8-0.2
	c-0.2-0.2-0.4-0.4-0.5-0.6l-0.8-1.4c2.1-1.9,4.6-2.9,7.6-2.9c3,0,2.1,0.2,2.9,0.5c0.8,0.4,1.5,0.8,2.1,1.4s1,1.4,1.3,2.3
	c0.3,0.8,0.5,1.8,0.5,2.9L324.8,198.4L324.8,198.4L324.8,198.4z M315.9,195.7c0.5,0,0.9,0,1.3-0.2c0.4-0.1,0.8-0.2,1.1-0.4
	c0.4-0.2,0.7-0.4,1-0.6c0.3-0.2,0.6-0.5,1-0.9v-3.3c-1.3,0-2.4,0.2-3.3,0.4c-0.8,0.2-1.6,0.4-2.1,0.7c-0.5,0.2-0.9,0.5-1.1,0.9
	c-0.2,0.3-0.3,0.8-0.3,1.1c0,0.8,0.2,1.4,0.7,1.7C314.5,195.6,315.1,195.8,315.9,195.7L315.9,195.7L315.9,195.7z M340.3,183.6
	c-0.2,0.2-0.2,0.3-0.4,0.4s-0.3,0.2-0.5,0.2s-0.5,0-0.7-0.2c-0.3-0.2-0.5-0.3-0.8-0.4c-0.4-0.2-0.8-0.3-1.1-0.4
	c-0.4-0.2-0.9-0.2-1.4-0.2c-0.8,0-1.5,0.2-2.1,0.5c-0.5,0.4-0.8,0.8-0.8,1.4s0.2,0.8,0.4,1c0.2,0.3,0.6,0.5,1,0.7
	c0.5,0.2,0.9,0.4,1.4,0.5c0.5,0.2,1.1,0.4,1.7,0.5c0.5,0.2,1.1,0.4,1.7,0.7c0.5,0.2,1,0.5,1.4,0.9c0.5,0.4,0.8,0.8,1,1.4
	s0.4,1.1,0.4,1.9s-0.2,1.7-0.5,2.4c-0.3,0.8-0.8,1.4-1.4,2c-0.6,0.5-1.4,1-2.3,1.3c-0.9,0.3-2,0.5-3.1,0.5c-1.1,0-1.2,0-1.8-0.2
	c-0.6-0.2-1.2-0.3-1.7-0.5c-0.5-0.2-1.1-0.5-1.5-0.7c-0.5-0.2-0.8-0.5-1.2-0.9l1-1.7c0.2-0.2,0.3-0.4,0.5-0.5s0.4-0.2,0.7-0.2
	c0.3,0,0.5,0.1,0.8,0.2s0.5,0.3,0.8,0.5c0.3,0.2,0.7,0.4,1.1,0.5c0.5,0.2,1,0.2,1.7,0.2s1,0,1.4-0.2c0.4-0.2,0.7-0.3,0.9-0.5
	c0.2-0.2,0.5-0.5,0.5-0.7c0.1-0.3,0.2-0.5,0.2-0.8c0-0.5-0.2-0.8-0.4-1.1c-0.2-0.3-0.6-0.5-1-0.7c-0.5-0.2-1-0.4-1.4-0.5
	c-0.5-0.2-1.1-0.4-1.7-0.5c-0.5-0.2-1.1-0.4-1.7-0.7c-0.5-0.2-1-0.6-1.4-1c-0.5-0.4-0.8-0.9-1-1.4c-0.2-0.6-0.4-1.3-0.4-2.1
	c0-0.8,0.2-1.4,0.5-2.1c0.3-0.7,0.8-1.3,1.3-1.8c0.6-0.5,1.3-0.9,2.1-1.2s1.8-0.5,3-0.5s2.4,0.2,3.4,0.6c1,0.4,1.9,1,2.6,1.7l-1,1.6
	l0,0V183.6z M356.2,183.6c-0.2,0.2-0.2,0.3-0.4,0.4s-0.3,0.2-0.5,0.2c-0.2,0-0.5,0-0.7-0.2c-0.3-0.2-0.5-0.3-0.8-0.4
	c-0.4-0.2-0.8-0.3-1.1-0.4c-0.4-0.2-0.9-0.2-1.4-0.2c-0.8,0-1.5,0.2-2.1,0.5c-0.5,0.4-0.8,0.8-0.8,1.4s0.2,0.8,0.4,1
	c0.2,0.3,0.6,0.5,1,0.7c0.5,0.2,0.9,0.4,1.4,0.5c0.5,0.2,1.1,0.4,1.7,0.5c0.5,0.2,1.1,0.4,1.7,0.7c0.5,0.2,1,0.5,1.4,0.9
	c0.5,0.4,0.8,0.8,1,1.4c0.2,0.5,0.4,1.1,0.4,1.9s-0.2,1.7-0.5,2.4c-0.3,0.8-0.8,1.4-1.4,2c-0.6,0.5-1.4,1-2.3,1.3
	c-0.9,0.3-2,0.5-3.1,0.5c-1.1,0-1.2,0-1.8-0.2c-0.6-0.2-1.2-0.3-1.7-0.5c-0.5-0.2-1.1-0.5-1.5-0.7c-0.5-0.2-0.8-0.5-1.2-0.9l1-1.7
	c0.2-0.2,0.3-0.4,0.5-0.5s0.4-0.2,0.7-0.2c0.3,0,0.5,0.1,0.8,0.2s0.5,0.3,0.8,0.5c0.3,0.2,0.7,0.4,1.1,0.5s1,0.2,1.7,0.2
	s1,0,1.4-0.2c0.4-0.2,0.7-0.3,0.9-0.5c0.2-0.2,0.5-0.5,0.5-0.7c0.1-0.3,0.2-0.5,0.2-0.8c0-0.5-0.2-0.8-0.4-1.1
	c-0.2-0.3-0.6-0.5-1-0.7c-0.5-0.2-1-0.4-1.4-0.5c-0.5-0.2-1.1-0.4-1.7-0.5c-0.5-0.2-1.1-0.4-1.7-0.7c-0.5-0.2-1-0.6-1.4-1
	c-0.5-0.4-0.8-0.9-1-1.4c-0.2-0.6-0.4-1.3-0.4-2.1c0-0.8,0.2-1.4,0.5-2.1c0.3-0.7,0.8-1.3,1.3-1.8c0.6-0.5,1.3-0.9,2.1-1.2
	c0.8-0.3,1.8-0.5,3-0.5c1.1,0,2.4,0.2,3.4,0.6c1,0.4,1.9,1,2.6,1.7l-1,1.6l0,0L356.2,183.6z M368.9,179.7c1.4,0,2.7,0.2,3.7,0.7
	c1.1,0.5,2.1,1.1,2.9,1.9c0.8,0.8,1.4,1.8,1.8,3s0.7,2.5,0.7,4s-0.2,2.8-0.7,4s-1.1,2.2-1.8,3c-0.8,0.8-1.7,1.4-2.9,1.9
	c-1.1,0.5-2.4,0.7-3.7,0.7c-1.4,0-2.7-0.2-3.7-0.7c-1.1-0.5-2.1-1.1-2.9-1.9c-0.8-0.8-1.4-1.8-1.8-3c-0.5-1.1-0.7-2.5-0.7-4
	s0.2-2.7,0.7-4c0.5-1.2,1.1-2.2,1.8-3c0.8-0.8,1.7-1.4,2.9-1.9C366.3,179.9,367.5,179.7,368.9,179.7L368.9,179.7z M368.9,195.7
	c1.5,0,2.7-0.5,3.4-1.5c0.8-1.1,1.1-2.5,1.1-4.5c0-2-0.4-3.5-1.1-4.6c-0.8-1.1-1.9-1.6-3.4-1.6c-1.5,0-2.7,0.5-3.5,1.6
	c-0.8,1.1-1.1,2.6-1.1,4.6c0,2,0.4,3.5,1.1,4.5C366.2,195.2,367.3,195.7,368.9,195.7z M394.8,183.9c-0.2,0.2-0.2,0.3-0.4,0.4
	s-0.3,0.2-0.5,0.2s-0.5,0-0.7-0.2c-0.2-0.2-0.5-0.3-0.8-0.5c-0.4-0.2-0.7-0.4-1.1-0.5c-0.5-0.2-0.9-0.2-1.6-0.2s-1.5,0.2-2.1,0.5
	c-0.6,0.3-1.1,0.7-1.5,1.2c-0.4,0.5-0.7,1.1-0.9,1.9c-0.2,0.8-0.3,1.6-0.3,2.5c0,0.9,0.1,1.8,0.3,2.7c0.2,0.8,0.5,1.4,0.9,1.9
	c0.4,0.5,0.9,0.9,1.4,1.2c0.6,0.3,1.2,0.4,2,0.4c0.8,0,1.3-0.1,1.7-0.2c0.4-0.2,0.8-0.3,1.1-0.6c0.3-0.2,0.6-0.4,0.8-0.6
	c0.2-0.2,0.5-0.2,0.8-0.2s0.7,0.2,0.8,0.4l1.3,1.6c-0.5,0.5-1.1,1.1-1.7,1.4c-0.6,0.4-1.2,0.7-1.8,0.9c-0.6,0.2-1.3,0.4-2,0.5
	c-0.7,0.1-1.4,0.2-2,0.2c-1.1,0-2.3-0.2-3.3-0.6c-1-0.5-2-1.1-2.7-1.8c-0.8-0.8-1.4-1.8-1.8-3c-0.5-1.2-0.7-2.5-0.7-4
	s0.2-2.6,0.6-3.8c0.4-1.1,1-2.1,1.7-3c0.8-0.8,1.7-1.5,2.9-2c1.1-0.5,2.4-0.7,4-0.7c1.5,0,2.7,0.2,3.7,0.7c1.1,0.5,2.1,1.1,2.9,1.9
	L394.8,183.9L394.8,183.9L394.8,183.9z M403.8,179.7v19h-4.6v-19H403.8z M404.6,174.4c0,0.4-0.1,0.8-0.2,1.1c-0.2,0.4-0.4,0.7-0.7,1
	c-0.3,0.3-0.6,0.5-1,0.7c-0.4,0.2-0.8,0.2-1.2,0.2c-0.4,0-0.8-0.1-1.1-0.2c-0.7-0.3-1.3-0.9-1.6-1.6c-0.2-0.4-0.2-0.8-0.2-1.1
	c0-0.5,0.1-0.8,0.2-1.2c0.2-0.4,0.4-0.7,0.6-1c0.3-0.3,0.6-0.5,1-0.7c0.4-0.2,0.8-0.2,1.1-0.2c0.5,0,0.8,0.1,1.2,0.2
	c0.4,0.2,0.7,0.4,1,0.7c0.3,0.3,0.5,0.6,0.7,1C404.5,173.6,404.6,174,404.6,174.4L404.6,174.4L404.6,174.4z M416.4,179.7
	c1.1,0,2.2,0.2,3.2,0.5c0.9,0.4,1.8,0.9,2.5,1.6s1.2,1.6,1.7,2.7c0.4,1.1,0.6,2.2,0.6,3.6c0,1.4,0,0.6,0,0.8s-0.1,0.4-0.2,0.5
	c0,0.2-0.2,0.2-0.3,0.3c-0.2,0-0.3,0.1-0.5,0.1h-11.3c0.2,1.9,0.6,3.3,1.5,4.2s2.1,1.4,3.5,1.4s1.3-0.1,1.8-0.2
	c0.5-0.2,1-0.4,1.4-0.5c0.4-0.2,0.7-0.4,1-0.5c0.3-0.2,0.6-0.2,0.8-0.2c0.2,0,0.3,0,0.5,0.1c0.2,0,0.2,0.2,0.3,0.3l1.3,1.6
	c-0.5,0.5-1,1.1-1.7,1.4c-0.6,0.4-1.2,0.7-1.9,0.9c-0.7,0.2-1.4,0.4-2.1,0.5c-0.7,0.1-1.4,0.2-2,0.2c-1.3,0-2.4-0.2-3.6-0.6
	c-1.1-0.4-2.1-1.1-2.9-1.9c-0.8-0.8-1.4-1.9-1.9-3.1c-0.5-1.2-0.7-2.7-0.7-4.3c0-1.6,0.2-2.4,0.6-3.6s1-2.1,1.7-2.9
	c0.8-0.8,1.7-1.4,2.7-2c1.1-0.5,2.3-0.7,3.6-0.7l0,0L416.4,179.7z M416.6,182.8c-1.3,0-2.3,0.4-3,1.2c-0.8,0.8-1.2,1.9-1.4,3.3h8.4
	c0-0.6-0.1-1.2-0.2-1.7c-0.2-0.5-0.4-1-0.7-1.4s-0.8-0.8-1.2-1C418,182.9,417.4,182.8,416.6,182.8L416.6,182.8L416.6,182.8z
	 M422.8,172.1l-4.3,4.7c-0.2,0.2-0.5,0.4-0.6,0.5c-0.2,0.1-0.5,0.2-0.8,0.2h-2.6l2.5-4.3c0.2-0.3,0.4-0.5,0.6-0.7
	c0.2-0.2,0.6-0.2,1.1-0.2L422.8,172.1L422.8,172.1z"/>
</svg>
