<?xml version="1.0" encoding="utf-8"?>
<!-- Generator: Adobe Illustrator 24.3.0, SVG Export Plug-In . SVG Version: 6.00 Build 0)  -->
<svg version="1.1" id="katman_1" xmlns="http://www.w3.org/2000/svg" xmlns:xlink="http://www.w3.org/1999/xlink" x="0px" y="0px"
	 viewBox="0 0 560 400" style="enable-background:new 0 0 560 400;" xml:space="preserve">
<style type="text/css">
	.st0{fill:#187FC3;}
	.st1{fill:#F9BE00;}
	.st2{fill:#FFFCFC;}
</style>
<g transform="matrix(.579256 0 0 .579256 100.15 153.389)">
	<path class="st0" d="M132,79.6c0-1.9-1.6-3.6-3.6-3.6c-0.3,0-0.6,0.1-0.8,0.1c-31.7,6.6-64.7,9.2-98.6,7.3
		c-10.4-0.6-20.7,0-30.8,0.8c-0.8,0-1.5,0.1-2.3,0.2c-8.1,1.1-15.8,4.7-21.8,10.6c-5.3,5.2-9.1,11.9-10.7,19.2
		c-1.9,8.8-0.6,17.8,3.2,25.9c3.6,7.9,9.4,14.7,16.5,19.6c7.8,5.2,16.3,9.3,25.3,12c5.7,1.7,10.7,2.8,16.7,3.5
		c0.1-2.3,3.5-5.8,3.6-7.5s-1.2-3.2-2.8-3.3c-9.3,0.4-16.1,0.1-24.8-3.1c-8.9-3.3-17-8.9-23.4-15.9c-3.1-3.4-5.6-7.1-7.3-11.4
		c-1.6-4.3-2.3-8.9-2-13.5c0.9-15.3,12.8-28.3,28-30.5c8.4-1.2,17.2,1,24,6c3.6,2.6,6.7,6,8.9,9.8c2.5,4.3,4.7,8.9,6.2,13.7
		c3.1,10,3.4,21,2,31.3c-0.6,4.4-1.5,8.7-2.8,13c-0.7,2.4-1.6,4.8-2.5,7.1c-0.2,0.4-0.3,0.9-0.3,1.4c0,2,1.6,3.5,3.5,3.6
		c0.2,0,0.7,0,0.9,0c23.5,0,44.9-8.4,61.5-22.4c0,0,0,0,0.1,0c0.7-0.7,1.1-1.5,1.1-2.5c0-0.7-0.3-1.4-0.6-2
		c-6.2-10.8-19.8-26.4-19.8-26.4S94,136.4,105,142.4c0.6,0.3,1.2,0.6,2,0.6c1,0,1.9-0.4,2.5-1l0.1-0.1c14-16.6,22.4-38,22.4-61.4
		C132,80.2,132,79.9,132,79.6"/>
	<path class="st1" d="M-40.8,123.3c-3.8-8.4-6.1-17.4-6.7-26.6c-0.1-1.2,0-2.9-0.1-4.1c0-1.7-1.4-3.1-3.1-3.1
		c-1.7,0-5.4,3.1-7.9,3.1c2.6,20.2,11.7,39.3,25.9,54c6.9,7.2,15.5,12.8,25.2,15.4c8.3,2.3,17.2,1.2,24.9-2.6
		c3.7-1.9,7.1-4.4,9.9-7.4c3-3.2,5.3-7.2,7.4-11c2.2-4.1,4.2-8.3,6-12.6c1.9-4.6,3.4-9.3,5.5-13.8C54,97.6,65,82.1,79.8,70.5
		c7.2-5.6,15.1-10.4,23.5-14.1c4.3-1.9,8.6-3.5,13.1-4.9c2.1-0.6,4.3-1.2,6.5-1.7c1.9-0.6,3-2.7,2.4-4.6
		c-5.4-13.7-14.1-26.1-25.1-35.9c-0.1-0.1-0.1-0.1-0.2-0.2c-0.6-0.5-1.5-0.9-2.4-0.9c-1,0-1.8,0.6-2.6,1.1
		C77.4,21.5,64.4,42,64.4,42S71.3,24.5,86,3c0.4-0.5,0.5-1.2,0.5-1.8c0-1.2-0.6-2.3-1.5-2.9C84.8-1.9,84.7-2,84.6-2
		c-9.1-5.3-19-9.1-29.3-11.2c-7.5-1.5-15.2-2.1-22.9-1.8c0,0,0,0-0.1,0h-0.1c-1.9,0.1-3.4,1.6-3.5,3.6c-1,25.1,3.9,68.2,3.9,68.2
		S23.9,14.3,15.2-9.3c-0.5-1.4-1.8-2.5-3.4-2.5c-0.2,0-0.5,0-0.7,0.1H11c-0.6,0.2-1.2,0.3-1.9,0.5c-14.4,4.3-27.8,12-38.7,22.3
		c-1.9,1.8-3.7,3.7-5.4,5.6l-0.1,0.1c-0.6,0.7-1,1.5-1,2.4c0,1,0.3,2,1.1,2.5C-16.1,36.2-2.2,52.5-2.2,52.5S-20,39.3-41.3,31
		c-0.6-0.2-1.2-0.5-1.9-0.5c-1.2,0-2.3,0.6-3,1.6l0,0c-3.1,5.2-5.7,10.7-7.7,16.4c-2.6,7.3-4.3,14.9-5,22.5c-0.2,2-0.3,4,1.7,5.1
		c0.8,0.4,1.7,0.5,2.6,0.3c1.3-0.3,2.6-0.5,3.9-0.7c5.1-0.8,10.2-1.2,15.3-1.2c10.3,0.1,20.5,2,30.1,5.5c8.9,3.3,16.9,8.5,23.1,15.8
		c11.5,13.7,17.7,37.3,4.4,51.9c-6.1,6.7-15.1,10-24.1,9.2c-4.6-0.4-8.7-2.1-12.8-4.2c-3.7-2-7.2-4.3-10.3-7.1
		C-31.9,139.5-37.1,131.6-40.8,123.3"/>
	<g>
		<path class="st2" d="M368.4,74.1c0-1.6,8.8-0.3,12.9,0.9c3.3,1,8.5,2.5,14,6.8c3.1,2.4,7,6.7,7,11.9c0,5.1-3.1,7.8-6.9,7.8
			c-2.1-0.3-4.2-1.5-6-3.4c-1.9-1.9-3.3-5.6-8.7-11.8C374.4,79.3,368.4,75.2,368.4,74.1"/>
		<path class="st2" d="M362.5,23.6v-9.8l4.3-1.4l0,0c0.5-0.1,0.9-0.6,0.9-1.2c0-0.6-0.5-1.1-1.1-1.2l0,0l-19.9-3v16.6h-43.4l1.4,3
			h102.5c0,0,1.2-1.8,0-3s-12.1-7.9-12.1-7.9l-7.2,7.9C387.9,23.6,362.5,23.6,362.5,23.6z"/>
		<path class="st2" d="M344.8,78.1L344.8,78.1L327.2,72c-6.5,10.8-12.5,19.5-22,27.5l0,0c-0.2,0.2-0.3,0.4-0.3,0.7
			c0,0.5,0.4,0.9,0.9,0.9c0.1,0,0.2,0,0.3-0.1l0,0l0,0l0,0c8.4-3,20.5-10.7,34.8-20.5h3.5c0.7,0,1.2-0.5,1.2-1.2
			C345.7,78.7,345.3,78.3,344.8,78.1"/>
		<path class="st2" d="M537.2,37.7c-1.6-1.5-13.4-8.8-13.4-8.8l-7.3,8.8h-26.1v-24l4.3-1.4l0,0c0.5-0.1,0.9-0.6,0.9-1.2
			c0-0.6-0.5-1.1-1.1-1.2l0,0l-20.7-3v30.7H434l1.4,3h38.5c-0.2,14.7-3.6,26.1-8.7,34.4c-6.3,10.5-15.9,20.2-31.3,28.7l0,0
			c-0.1,0-0.1,0.1-0.2,0.1l0,0c-0.2,0.2-0.4,0.4-0.4,0.8c0,0.5,0.4,0.9,0.9,0.9c0.1,0,0.2,0,0.3,0l0,0c18.6-5.3,33.6-13.8,41.4-23.9
			c6.6-8.7,11.3-18.5,12.7-31.3c1.4,11.3,4.2,20.4,8.5,27.2c5.4,9.7,14.4,18.9,26.6,26.5c0.1,0.1,0.2,0.1,0.3,0.2s0.3,0.1,0.5,0.1
			c0.3,0,0.5-0.1,0.7-0.2c0.3-0.2,0.5-0.5,0.5-0.9c0.8-4.5,6.7-8.4,11.2-10c-14.4-8-26.2-17.6-31.9-24.9
			c-6.9-8.7-11.7-17.9-14.2-27.6h46.6C537.2,40.7,538.8,39.2,537.2,37.7"/>
		<path class="st2" d="M591.5,10.9c-0.1,0.2-0.1,0.6,0.2,1.1c1.3,2.1,4.6,6.9,6.5,10.1c2.3,4,2.5,5.4,3.9,6.9
			c1.3,1.2,5.6,2.2,8.2,0.5c2.6-1.8,2.9-5.5,1.8-8.2c-1.1-2.8-5.1-7.2-9.4-8.9C598.3,10.6,592.2,9.5,591.5,10.9"/>
		<path class="st2" d="M612.8,7.4c-0.2,0.3-0.4,0.7,0,1.2c1.4,1.8,4.4,5.5,6.7,9.3c2.9,4.7,3.3,7.4,4.9,9c2.5,2.5,7,2,8.5,0.5
			c2.1-2.1,2.9-5.8,2.1-8.6c-1.3-4.4-5.3-8.1-11-10C618.9,7,613.8,6.5,612.8,7.4"/>
		<path class="st2" d="M590,24.8c2.4,0.4,3.9,9.6,1.6,17.8c-2,6.7-6.6,9.8-11.7,8.6c-4-0.9-5.3-4.4-4.1-8.5c1.1-3.6,4.4-6.3,6.7-8.5
			c2.4-2.3,5.2-6.3,5.9-8.1C588.6,25.3,589,24.6,590,24.8"/>
		<path class="st2" d="M633.9,71.8v25.6c0,6.2-12.1,8.1-15.7,8.1c-1.9,0-1.8-1.8-2.6-3.4c-0.7-1.3-2.9-3.2-14.9-4.1l-1-2.4h19.1
			V71.9h-42.9l-1.4-3h44.3V57.2l18.2,2c1.7,0.9-0.4,3.8-3,4.9v4.7h23.2l8.3-8.9c0,0,9.9,7.4,11.4,8.9c1.6,1.5,0,3,0,3
			S633.9,71.8,633.9,71.8z"/>
		<path class="st2" d="M679.9,34.8c0-0.5-0.3-0.9-0.7-1.1l0,0h-0.1l-15.8-7.9l-4.4,6.3L643.8,32l17.7-15.6l5-0.6
			c0.7,0,1.2-0.6,1.2-1.2c0-0.5-0.3-1-0.8-1.1L648.6,7c-2.9,7.3-6.4,16.2-10.7,25.1h-46.5l-0.1,3l68.4,0.2l-4.5,14.4l1.9,0.5
			l17.5-13.7l4.2-0.3l0,0C679.4,36,679.9,35.4,679.9,34.8"/>
		<path class="st2" d="M660.1,49.6L660.1,49.6L645,39.7l-4.5,4.7h-46l1.4,3h43.8l-8.4,13.5c1.4,0.3,0.2,2.8,2.6,3.2l20.9-12.6
			l4.5,0.3l0,0c0.1,0,0.1,0,0.2,0c0.7,0,1.2-0.6,1.2-1.2C660.7,50.2,660.5,49.8,660.1,49.6"/>
		<path class="st2" d="M246.9,81.9c-7.4-3.3-13.3-7.5-17.5-12.5h19.1v4.5l14.8-2.2V41.2l3.4-1.6c0.6-0.2,1-0.8,1-1.4
			c0-0.6-0.3-1.1-0.8-1.4l-14.3-8.1l-4.8,6.2h-19.2V24h44.3c0,0,1.4-1.7,0-3.1s-11.2-7-11.2-7l-6.3,7h-26.8v-7.2l4.3-1.4l0,0
			c0.5-0.1,0.9-0.6,0.9-1.2c0-0.6-0.5-1.1-1.1-1.2l0,0l-19.4-3v14H169l1.3,3.1h42.9v10.9h-20.1L179,29.5v44.4l14.8-2.2v-2.3h15
			c-11.6,14.3-25.2,23.1-39.1,31l0,0c-0.3,0.2-0.5,0.5-0.5,0.8c0,0.5,0.4,0.9,0.9,0.9c0.1,0,0.2,0,0.3-0.1l0,0
			c12.5-4.1,27.1-8,42.8-20.5v23.9l15.2-2.1V73.6c2.3,4.8,4.9,7.9,7.9,11.2c6.6,7.7,15.9,12.5,27.9,17c1.9-6,4.5-10.7,9.1-12.1
			l0.7-1.2C264.5,86.7,255.3,85.9,246.9,81.9 M213.2,66.4h-19.4V53.1h19.4V66.4z M213.2,50.1h-19.4V37.8h19.4V50.1z M228.4,37.8h20
			v12.3h-20V37.8z M228.4,53.1h20v13.3h-20V53.1z"/>
		<path class="st2" d="M397.4,38.8L397.4,38.8l-14.7-8.4l-4.8,6.2h-45.4l-14.7-5.4v38.6l15.2-2.2v-2.5h14.7v30.4h-19.1l1,2.4
			c12,0.9,14.2,2.8,14.9,4.1c0.8,1.6,0.8,3.4,2.7,3.4c3.6,0,15.7-2,15.7-8.1V65.1h15.7v4.3l15.2-2.2v-24l3.4-1.6
			c0.6-0.2,1-0.8,1-1.4C398.2,39.6,397.9,39.1,397.4,38.8 M378.6,62.1H333V39.6h45.6V62.1z"/>
		<path class="st2" d="M216.3,135.8c0.1,0,0.2-0.1,0.2-0.2v-0.8c0-5.6,0-6.7-0.1-7.8c-0.1-1.3-0.4-1.8-1.5-2.1
			c-0.3-0.1-0.9-0.1-1.4-0.1c-0.4,0-0.6-0.1-0.6-0.3c0-0.2,0.3-0.3,0.7-0.3h9.5c0.5,0,0.7,0.1,0.7,0.3c0,0.3-0.2,0.3-0.6,0.3
			c-0.3,0-0.6,0-1,0.1c-1,0.2-1.2,0.8-1.3,2.1c-0.1,1.2-0.1,20.7,0.1,22.3c0.1,1,0.3,1.8,1.4,2c0.5,0.1,1.3,0.1,1.8,0.1
			c0.4,0,0.6,0.1,0.6,0.3c0,0.3-0.3,0.4-0.7,0.4h-9.9c-0.5,0-0.7-0.1-0.7-0.4c0-0.2,0.1-0.3,0.6-0.3s1-0.1,1.3-0.1
			c0.7-0.2,0.9-1,1-2c0.2-1.6,0.2-4.5,0.2-7.9v-3.3c0-0.2-0.1-0.2-0.2-0.2h-13.5c-0.1,0-0.2,0-0.2,0.2v3.3c0,3.4,0,6.3,0.2,7.9
			c0.1,1,0.3,1.8,1.4,2c0.5,0.1,1.3,0.1,1.8,0.1c0.4,0,0.6,0.1,0.6,0.3c0,0.3-0.3,0.4-0.7,0.4h-9.9c-0.5,0-0.7-0.1-0.7-0.4
			c0-0.2,0.1-0.3,0.5-0.3c0.5,0,1-0.1,1.3-0.1c0.7-0.2,0.9-1,1-2c0.2-1.6,0.2-21.1,0.1-22.3c-0.1-1.3-0.3-1.8-1.5-2.1
			c-0.3-0.1-0.9-0.1-1.4-0.1c-0.4,0-0.6-0.1-0.6-0.3c0-0.2,0.2-0.3,0.7-0.3h9.5c0.5,0,0.7,0.1,0.7,0.3c0,0.3-0.2,0.3-0.6,0.3
			c-0.3,0-0.6,0-1,0.1c-1,0.2-1.2,0.8-1.3,2.1c-0.1,1.2-0.1,2.2-0.1,7.8v0.8c0,0.2,0.1,0.2,0.2,0.2H216.3L216.3,135.8z"/>
		<path class="st2" d="M259.4,118.6c-0.1-1.7-0.5-2.5-2-2.8c-0.4-0.1-1.2-0.2-1.8-0.2c-0.5,0-0.8-0.1-0.8-0.4s0.3-0.4,1-0.4h12.6
			c0.7,0,1,0.1,1,0.4s-0.3,0.4-0.8,0.4s-0.8,0.1-1.4,0.2c-1.3,0.2-1.6,1.1-1.7,2.8c-0.1,1.6-0.1,17.4-0.1,17.4
			c0,7.2,1.4,10.2,3.7,12.1c2.1,1.8,4.3,2,5.9,2c2.1,0,4.6-0.7,6.5-2.7c2.6-2.7,2.7-7.2,2.7-12.3c0,0,0-15.1-0.1-16.6
			c-0.1-1.7-0.5-2.5-2-2.8c-0.4-0.1-1.2-0.2-1.7-0.2s-0.8-0.1-0.8-0.4s0.3-0.4,1-0.4h10.8c0.7,0,1,0.1,1,0.4s-0.3,0.4-0.8,0.4
			s-0.8,0.1-1.4,0.2c-1.3,0.2-1.6,1.1-1.7,2.8c-0.1,1.6-0.1,15.8-0.1,15.8c0,5.5-0.5,11.3-4.5,14.9c-3.3,3-6.7,3.6-9.8,3.6
			c-2.5,0-7-0.1-10.4-3.4c-2.4-2.3-4.2-5.9-4.2-13.1C259.5,136.3,259.5,120.2,259.4,118.6"/>
		<path class="st2" d="M422.8,126.9c-0.1-1.3-0.4-1.9-1.2-2.1c-0.4-0.1-0.8-0.2-1.3-0.2c-0.4,0-0.6-0.1-0.6-0.4
			c0-0.2,0.3-0.3,0.9-0.3h8.9c0.5,0,0.8,0.1,0.8,0.3c0,0.3-0.2,0.4-0.6,0.4c-0.3,0-0.6,0-1,0.1c-0.9,0.2-1.2,0.8-1.3,2.1
			c-0.1,1.2-0.1,20.9,0.1,22.5c0.1,1,0.3,1.7,1.4,1.8c0.5,0.1,1.3,0.1,1.8,0.1c0.4,0,0.6,0.1,0.6,0.3c0,0.3-0.3,0.4-0.7,0.4h-9.9
			c-0.5,0-0.7-0.1-0.7-0.4c0-0.2,0.1-0.3,0.6-0.3s0.9-0.1,1.3-0.1c0.7-0.2,0.9-0.8,1-1.9C422.9,147.8,422.9,128.1,422.8,126.9"/>
		<path class="st2" d="M469,142.5c0-2-0.4-2.8-0.8-3.9c-0.2-0.6-5-8.8-6.2-10.7c-0.9-1.4-1.8-2.3-2.4-2.7c-0.5-0.3-1.1-0.5-1.5-0.5
			c-0.3,0-0.5-0.1-0.5-0.3c0-0.2,0.3-0.3,0.7-0.3h8.2c0.4,0,0.5,0.1,0.5,0.3c0,0.2-0.2,0.3-0.8,0.4c-0.3,0.1-0.5,0.4-0.5,0.7
			c0,0.3,0.2,0.8,0.4,1.3c0.5,1.1,5.4,10,6,11.1c0.4-0.9,4.8-9,5.3-10.2c0.3-0.8,0.5-1.4,0.5-1.9c0-0.4-0.1-0.8-0.7-0.9
			c-0.3-0.1-0.6-0.1-0.6-0.4c0-0.2,0.2-0.3,0.6-0.3h7.1c0.4,0,0.6,0.1,0.6,0.3c0,0.3-0.3,0.4-0.7,0.4c-0.3,0-1,0.2-1.6,0.4
			c-0.7,0.4-1.1,0.8-1.9,1.8c-1.2,1.5-6.1,10.2-6.7,11.8c-0.5,1.3-0.5,2.5-0.5,3.7c0,0,0,5.2,0.1,6.7c0.1,1.1,0.4,1.9,1.4,2
			c0.5,0.1,1.3,0.1,1.8,0.1c0.4,0,0.6,0.1,0.6,0.3c0,0.3-0.3,0.4-0.7,0.4h-9.8c-0.5,0-0.8-0.1-0.8-0.4c0-0.2,0.2-0.3,0.6-0.3
			c0.5,0,0.9-0.1,1.2-0.1c0.7-0.2,1-1,1.1-2C469,147.7,469,142.5,469,142.5"/>
		<path class="st2" d="M490.7,138.1c0-6.3,4-14.5,14.5-14.5c8.8,0,14.2,5.4,14.2,13.9s-5.6,15.2-14.6,15.2
			C494.8,152.6,490.7,144.6,490.7,138.1 M514.6,138.8c0-8.3-4.8-13.5-10.6-13.5c-4.1,0-8.4,2.4-8.4,11.6c0,7.7,4.3,13.8,11.1,13.8
			C509.2,150.7,514.6,149.5,514.6,138.8"/>
		<path class="st2" d="M571.4,138.1c0-6.3,4-14.5,14.6-14.5c8.8,0,14.2,5.4,14.2,13.9s-5.6,15.2-14.6,15.2
			C575.5,152.6,571.4,144.6,571.4,138.1 M595.2,138.8c0-8.3-4.8-13.5-10.6-13.5c-4.1,0-8.4,2.4-8.4,11.6c0,7.7,4.3,13.8,11.1,13.8
			C589.8,150.7,595.2,149.5,595.2,138.8"/>
		<path class="st2" d="M625.7,124.7c0.4,0,1,0.2,1.5,0.5c0.7,0.4,1.6,1.3,2.4,2.7c1.2,1.9,6,10.1,6.2,10.7c0.5,1.1,0.8,1.9,0.8,3.9
			c0,0,0,5.2-0.1,6.7c-0.1,1.1-0.4,1.9-1.1,2c-0.3,0.1-0.7,0.1-1.2,0.1c-0.4,0-0.6,0.1-0.6,0.3c0,0.3,0.3,0.4,0.8,0.4h9.8
			c0.4,0,0.7-0.1,0.7-0.4c0-0.2-0.2-0.3-0.6-0.3c-0.5,0-1.3-0.1-1.7-0.1c-1.1-0.2-1.4-1-1.4-2c-0.1-1.6-0.1-6.7-0.1-6.7
			c0-1.2,0-2.4,0.5-3.7c0.6-1.6,5.6-10.3,6.7-11.8c0.8-1,1.2-1.5,1.9-1.8c0.5-0.3,1.2-0.4,1.6-0.4c0.4,0,0.7-0.1,0.7-0.4
			c0-0.2-0.2-0.3-0.6-0.3h-7.1c-0.4,0-0.6,0.1-0.6,0.3c0,0.2,0.3,0.3,0.6,0.4c0.6,0.1,0.8,0.6,0.8,0.9c0,0.5-0.2,1.1-0.5,1.9
			c-0.5,1.2-4.9,9.3-5.3,10.2c-0.6-1.1-5.5-10-6-11.1c-0.3-0.5-0.4-0.9-0.4-1.3c0-0.3,0.2-0.6,0.5-0.7c0.5-0.1,0.8-0.2,0.8-0.4
			c0-0.2-0.2-0.3-0.5-0.3H618c-0.4,0-0.6,0.1-0.6,0.3c0,0.2,0.1,0.3,0.4,0.4c0.4,0.1,0.5,0.3,0.5,0.7c0,0.6-0.8,1.6-1.8,2.8
			c-1,1.3-6.2,6.8-7.4,8.2H609v-1.6c0-5.6,0-6.7,0.1-7.8c0.1-1.3,0.4-1.9,1.3-2.1c0.4-0.1,0.6-0.1,1-0.1c0.3,0,0.5-0.1,0.5-0.3
			c0-0.2-0.2-0.3-0.7-0.3H602c-0.5,0-0.8,0.1-0.8,0.3c0,0.3,0.2,0.3,0.6,0.3c0.5,0,1.1,0,1.4,0.1c1.1,0.3,1.4,0.8,1.5,2.1
			c0.1,1.2,0.1,20.7-0.1,22.3c-0.1,1.1-0.3,1.9-1,2c-0.3,0.1-0.7,0.1-1.3,0.1c-0.4,0-0.6,0.1-0.6,0.3c0,0.3,0.2,0.4,0.7,0.4h9.5
			c0.4,0,0.7-0.1,0.7-0.4c0-0.2-0.2-0.3-0.5-0.3c-0.5,0-1.2-0.1-1.7-0.1c-0.9-0.2-1.2-1-1.3-2c-0.1-1.6-0.1-4.5-0.1-7.9V138h0.2
			l0.4,0.6c0.7,1.1,7.7,9.6,9.2,11.1c1.5,1.4,2.5,2.2,4.4,2.4c0.7,0.1,1.4,0.1,2.4,0.1h3.1c0.7,0,0.9-0.1,0.9-0.4
			c0-0.2-0.2-0.3-0.5-0.3c-0.4,0-1.1-0.1-2.2-0.5c-1.9-0.8-3.5-2.5-5-4c-1.4-1.4-8.3-9.2-9.6-10.9c1.2-1.3,6.5-6.9,7.6-8
			c1.5-1.6,2.7-2.3,3.8-2.8C624.4,124.9,625.3,124.7,625.7,124.7"/>
		<path class="st2" d="M649.6,138.1c0-6.3,4-14.5,14.6-14.5c8.8,0,14.2,5.4,14.2,13.9s-5.6,15.2-14.6,15.2
			C653.7,152.6,649.6,144.6,649.6,138.1 M673.5,138.8c0-8.3-4.8-13.5-10.6-13.5c-4.1,0-8.4,2.4-8.4,11.6c0,7.7,4.3,13.8,11.1,13.8
			C668,150.7,673.5,149.5,673.5,138.8"/>
		<path class="st2" d="M408.3,155.3c-3.1-0.2-6-1.1-8.5-3.6c-2.4-2.4-6.5-8.2-8.8-12.6c3.6-3,4.7-5.6,4.7-8.3c0-2.5-1.4-4.4-2.4-5.1
			c-1.9-1.4-4.3-1.6-6.5-1.6H377c-0.5,0-0.8,0.1-0.8,0.3c0,0.3,0.2,0.3,0.6,0.3c0.5,0,1.1,0,1.4,0.1c1.1,0.3,1.4,0.8,1.5,2.1
			c0.1,1.2,0.1,2.2,0.1,7.8v6.5c0,3.4,0,6.3-0.2,7.9c-0.1,1.1-0.3,1.9-1,2c-0.3,0.1-0.7,0.1-1.3,0.1c-0.4,0-0.6,0.1-0.6,0.3
			c0,0.3,0.2,0.4,0.7,0.4h9.5c0.5,0,0.7-0.1,0.7-0.4c0-0.2-0.1-0.3-0.4-0.3c-0.4,0-1.2-0.1-1.7-0.1c-1.1-0.2-1.3-1-1.4-2
			c-0.2-1.6-0.2-4.5-0.2-7.9v-0.5c0-0.2,0.1-0.3,0.3-0.3l3.1,0.1c0.3,0,0.5,0,0.6,0.3c0.4,0.8,2.2,5,3.8,7.5
			c1.6,2.5,3.1,4.5,4.7,5.8c1.9,1.5,3.9,2.1,6.3,2.3c3.1,0.3,5.2,0,5.8-0.2c0.5-0.1,1.1-0.3,1.1-0.7
			C409.5,155.2,408.9,155.3,408.3,155.3 M389.4,138.1c-0.6,0.5-1.1,0.6-2.5,0.6c-0.9,0-1.9-0.1-2.7-0.4c-0.2-0.1-0.3-0.3-0.3-0.7
			v-11.3c0-0.3,0.1-0.4,0.3-0.5c0.4-0.1,1-0.1,1.9-0.1c2.1,0,5.4,1.5,5.4,6.8C391.5,135.6,390.4,137.3,389.4,138.1"/>
		<path class="st2" d="M192.6,123.8c-0.2,0-0.4,0.1-1,0.3h-19.9c-0.9-0.1-1.2-0.5-1.5-0.5c-0.2,0-0.3,0.2-0.4,0.7
			c-0.1,0.4-0.8,4.4-0.8,4.4l0,0v0.1c0,0.2,0.2,0.4,0.4,0.4s0.3-0.1,0.4-0.2l0,0c0.1-0.3,0.3-0.9,0.6-1.5c0.5-0.8,1.4-1,3.4-1.1h5.2
			c0,0,0,21.4-0.2,22.9c-0.1,1.1-0.3,1.9-1,2c-0.3,0.1-0.7,0.1-1.3,0.1c-0.4,0-0.6,0.1-0.6,0.3c0,0.3,0.3,0.4,0.7,0.4h10
			c0.4,0,0.7-0.1,0.7-0.4c0-0.2-0.2-0.3-0.6-0.3c-0.5,0-1.3-0.1-1.8-0.1c-1.1-0.2-1.3-1-1.4-2c-0.2-1.6-0.2-23-0.2-23h4.4
			c3.1,0.1,4.1,1.1,4.1,2.1l0.1,0.8c0,0.2,0.2,0.4,0.4,0.4s0.4-0.2,0.4-0.4c0,0,0-4,0-4.5C192.9,124,192.8,123.8,192.6,123.8"/>
		<path class="st2" d="M455.9,123.8c-0.2,0-0.4,0.1-1,0.3H435c-0.9-0.1-1.2-0.5-1.5-0.5c-0.2,0-0.3,0.2-0.4,0.7
			c-0.1,0.4-0.8,4.4-0.8,4.4v0.1c0,0.2,0.2,0.4,0.4,0.4c0.1,0,0.3-0.1,0.3-0.2l0,0l0,0c0.1-0.3,0.3-0.9,0.6-1.5
			c0.5-0.8,1.4-1,3.4-1.1h5.3c0,0,0,21.4-0.2,22.9c-0.1,1.1-0.3,1.9-1,2c-0.3,0.1-0.7,0.1-1.3,0.1c-0.4,0-0.6,0.1-0.6,0.3
			c0,0.3,0.2,0.4,0.7,0.4h10c0.4,0,0.7-0.1,0.7-0.4c0-0.2-0.2-0.3-0.6-0.3c-0.5,0-1.3-0.1-1.8-0.1c-1.1-0.2-1.3-1-1.4-2
			c-0.2-1.6-0.2-23-0.2-23h4.4c3.1,0.1,4.1,1.1,4.1,2.1l0.1,0.8c0,0.2,0.2,0.4,0.4,0.4c0.2,0,0.4-0.2,0.4-0.4c0,0,0.1-4,0.1-4.5
			C456.2,124,456.2,123.8,455.9,123.8"/>
		<path class="st2" d="M576.1,114.4c-0.2,0-0.6,0.2-1.3,0.4h-26.6c-1.2-0.1-1.7-0.7-2-0.7s-0.4,0.3-0.5,0.9
			c-0.1,0.5-1.1,5.9-1.1,5.9l0,0v0.1c0,0.3,0.2,0.5,0.5,0.5c0.2,0,0.4-0.1,0.4-0.3l0,0l0,0l0,0c0.1-0.4,0.4-1.2,0.8-2
			c0.7-1.1,1.8-1.3,4.6-1.4h7c0,0,0,28.5-0.2,30.6c-0.1,1.4-0.4,2.5-1.4,2.7c-0.4,0.1-1,0.2-1.7,0.2c-0.6,0-0.7,0.2-0.7,0.4
			c0,0.4,0.3,0.5,0.9,0.5h13.3c0.5,0,0.9-0.1,0.9-0.5c0-0.2-0.2-0.4-0.8-0.4c-0.7,0-1.7-0.1-2.4-0.2c-1.4-0.2-1.7-1.3-1.8-2.7
			c-0.2-2.1-0.2-30.7-0.2-30.7h5.9c4.2,0.1,5.4,1.4,5.5,2.7l0.1,1c0,0.3,0.2,0.5,0.5,0.5s0.5-0.2,0.5-0.5c0,0,0-5.4,0.1-6
			C576.5,114.7,576.5,114.4,576.1,114.4"/>
		<path class="st2" d="M244.4,146.8c0-0.2-0.2-0.4-0.4-0.4s-0.3,0.1-0.4,0.3c-0.3,1.5-1.2,2.5-2.1,2.9c-0.9,0.4-2.4,0.4-3.3,0.4
			c-3.6,0-3.7-0.5-3.8-3c0-1.1,0-8.7,0-8.7c0-0.2,0-0.4,0.2-0.4c0.8,0,4.3,0,5,0.1c1.3,0.1,1.8,0.7,2,1.4c0.1,0.5,0.1,0.9,0.1,1.3
			c0,0.2,0.2,0.4,0.4,0.4s0.4-0.1,0.4-0.3l0,0l0.5-5.4l0,0c0-0.2-0.2-0.4-0.4-0.4c-0.1,0-0.2,0.1-0.3,0.2c0,0,0,0-0.1,0.1l0,0
			c0,0-0.1,0.1-0.2,0.3c-0.3,0.4-0.9,0.5-1.7,0.6s-4.9,0.1-5.6,0.1c-0.2,0-0.2-0.2-0.2-0.4v-9.4c0-0.3,0.1-0.4,0.2-0.4
			c0.7,0,4.4,0.1,5,0.1c1.8,0.2,2.1,0.7,2.4,1.3c0.2,0.4,0.2,1.2,0.2,1.5c0,0.2,0.2,0.4,0.4,0.4s0.4-0.1,0.4-0.3
			c0.1-0.5,0.4-4.7,0.4-4.9c0-0.2,0-0.3-0.2-0.3s-0.4,0.1-0.6,0.2c-0.3,0.1-0.9,0.1-1.5,0.1c-0.7,0-12.9,0-13.9,0
			c-0.5,0-0.8,0.1-0.8,0.3c0,0.3,0.2,0.3,0.6,0.3c0.5,0,1.1,0,1.4,0.1c1.2,0.3,1.4,0.8,1.5,2.1c0.1,1.2,0.1,20.7-0.1,22.3
			c-0.1,1.1-0.3,1.9-1,2c-0.3,0.1-0.7,0.1-1.3,0.1c-0.4,0-0.6,0.1-0.6,0.3c0,0.3,0.3,0.4,0.7,0.4h14.2c1.3,0,1.7,0.1,1.9-0.8
			C243.9,150.5,244.4,146.9,244.4,146.8L244.4,146.8L244.4,146.8"/>
		<path class="st2" d="M357.5,124.7c0.5,0,1.1,0,1.4,0.1c1.2,0.3,1.4,0.8,1.5,2.1c0,1.2,0,20.7-0.1,22.3c-0.1,1.1-0.3,1.9-1,2
			c-0.3,0.1-0.8,0.1-1.3,0.1c-0.4,0-0.6,0.1-0.6,0.3c0,0.3,0.2,0.4,0.7,0.4h14.2c1.3,0,1.7,0.1,1.9-0.8c0.1-0.8,0.6-4.4,0.6-4.4l0,0
			c0,0,0,0,0-0.1c0-0.2-0.2-0.4-0.4-0.4c-0.2,0-0.3,0.1-0.4,0.3c-0.3,1.5-1.2,2.5-2.1,2.9s-2.4,0.4-3.3,0.4c-3.6,0-3.7-0.5-3.7-3
			c0-1.1,0-8.7,0-8.7c0-0.2,0-0.4,0.2-0.4c0.8,0,4.3,0,5,0.1c1.3,0.1,1.8,0.7,2,1.4c0.1,0.5,0.1,0.9,0,1.3c0,0.2,0.2,0.4,0.4,0.4
			c0.2,0,0.4-0.1,0.4-0.3l0,0l0,0l0.5-5.4l0,0l0,0c0-0.2-0.2-0.4-0.4-0.4c-0.1,0-0.2,0.1-0.3,0.2c0,0,0,0,0,0.1l0,0
			c0,0-0.1,0.1-0.2,0.3c-0.3,0.4-0.8,0.5-1.7,0.6c-0.8,0.1-4.9,0.1-5.6,0.1c-0.2,0-0.2-0.2-0.2-0.4v-9.4c0-0.3,0.1-0.4,0.2-0.4
			c0.7,0,4.4,0.1,5,0.1c1.8,0.2,2.1,0.7,2.4,1.3c0.2,0.4,0.2,1.2,0.2,1.5c0,0.2,0.2,0.4,0.4,0.4c0.2,0,0.3-0.1,0.4-0.3
			c0.1-0.5,0.4-4.7,0.4-4.9c0-0.2,0-0.3-0.2-0.3s-0.4,0.1-0.6,0.2c-0.3,0.1-0.9,0.1-1.5,0.1c-0.7,0-20.3,0-21.3,0
			c-0.7,0-1,0.1-1,0.4s0.3,0.3,0.6,0.3c0.4,0,1,0,1.4,0.2c0.3,0.1,0.5,0.4,0.5,0.7c0,0.3-0.1,0.9-0.3,1.4
			c-0.9,2.4-5.4,14.4-6.9,18.5h-0.1l-6.1-16.8c-0.5-1.3-0.8-2.4-0.8-2.8s0.1-0.6,0.3-0.8c0.3-0.2,0.8-0.3,1.4-0.3
			c0.3,0,0.5-0.1,0.5-0.3c0-0.2-0.4-0.3-0.8-0.3h-27.5c-0.5,0-0.9,0-0.9,0.3c0,0.2,0.1,0.3,0.6,0.3s1.3,0,1.9,0.2
			c0.8,0.4,1.2,1.1,1.2,3.3l0.3,16.6h-0.2c-0.6-0.6-18.3-20.5-18.7-21c-0.6-0.7-0.9-1.1-1.3-1.1s-0.5,0.5-0.5,1.2l-0.3,22.6
			c0,3.2-0.2,4.3-1.1,4.6c-0.5,0.1-1.1,0.2-1.6,0.2c-0.4,0-0.6,0.1-0.6,0.3c0,0.3,0.3,0.4,0.8,0.4h8.2c0.5,0,0.8-0.1,0.8-0.4
			c0-0.2-0.2-0.3-0.6-0.3c-0.6,0-1.2,0-1.8-0.3c-0.7-0.3-1.2-1.2-1.2-4.1l-0.4-16.2h0.1c0.6,0.7,16.6,19.1,18.8,21.4
			c0.4,0.4,0.8,0.8,1.2,0.8c0.3,0,0.4-0.3,0.4-1.2L317,128c0-2.1,0.3-2.9,1.3-3.1c0.4-0.1,0.9-0.1,1.3-0.1s1.2,0,1.6,0.2
			c0.8,0.2,1.1,0.8,1.2,2.1c0,1.2,0,20.9-0.1,22.5c-0.1,1.1-0.3,1.7-1,1.9c-0.3,0.1-0.7,0.1-1.3,0.1c-0.4,0-0.6,0.1-0.6,0.3
			c0,0.3,0.3,0.4,0.7,0.4h10c0.4,0,0.7-0.1,0.7-0.4c0-0.2-0.2-0.3-0.6-0.3c-0.5,0-1.3-0.1-1.8-0.1c-1.1-0.2-1.3-0.8-1.4-1.8
			c-0.1-1.6-0.1-21.3-0.1-22.5c0.1-1.3,0.3-1.9,1.3-2.1c0.4-0.1,0.7-0.1,1.1-0.1c0.3,0,0.7,0,1.2,0.2c1.3,0.3,1.9,0.8,2.7,2.8
			l8.9,22.6c0.7,1.7,0.9,2.2,1.3,2.2c0.5,0,0.7-0.6,1.6-2.7c0.8-1.8,7.5-17.9,8.9-21.4c0.9-2.4,1.5-3,1.9-3.3
			C356.4,124.7,357.2,124.7,357.5,124.7"/>
		<path class="st2" d="M528,138c0.8,0,4.3,0,5,0.1c1.3,0.1,1.8,0.7,2,1.5c0.1,0.5,0.1,0.9,0,1.3c0,0.2,0.2,0.4,0.4,0.4
			s0.4-0.1,0.4-0.3l0,0l0.5-5.4l0,0l0,0c0-0.2-0.2-0.4-0.4-0.4c-0.1,0-0.3,0.1-0.3,0.2c0,0,0,0,0,0.1l0,0c0,0-0.1,0.1-0.2,0.3
			c-0.3,0.4-0.8,0.5-1.7,0.6c-0.8,0.1-4.9,0.1-5.7,0.1c-0.2,0-0.2-0.1-0.2-0.4v-9.2c0-0.4,0.1-0.5,0.3-0.5l5.4,0.1
			c1.4,0,2,0.6,2.2,1.1s0.2,1.3,0.2,1.7c0,0.2,0.2,0.4,0.4,0.4s0.3-0.1,0.4-0.3l0,0v-0.1c0,0,0.5-4.6,0.5-4.8c0-0.2-0.1-0.3-0.2-0.3
			c-0.2,0-0.4,0.2-0.6,0.2c-0.4,0.1-0.8,0.1-1.5,0.1c-0.8,0-13.5,0-14.4,0c-0.5,0-0.8,0.1-0.8,0.4c0,0.2,0.2,0.3,0.6,0.3
			c0.5,0,1.1,0,1.4,0.1c1.2,0.3,1.4,0.8,1.5,2.1c0.1,1.2,0.1,20.7-0.1,22.3c-0.1,1.1-0.3,1.9-1,2c-0.3,0.1-0.8,0.1-1.3,0.1
			c-0.4,0-0.5,0.1-0.5,0.3c0,0.3,0.2,0.4,0.7,0.4h9.8c0.5,0,0.8-0.1,0.8-0.4c0-0.2-0.1-0.3-0.6-0.3s-1.3-0.1-1.8-0.1
			c-1.1-0.2-1.3-1-1.4-2c-0.2-1.6-0.2-10.9-0.2-10.9C527.7,138.1,527.8,138,528,138"/>
		<path class="st2" d="M411.5,135.2l-1-0.8c-2.9-2.3-3.7-3.6-3.7-5.3c0-2.2,1.6-3.8,4.2-3.8c2.3,0,3.3,1.1,3.8,1.8
			c0.7,1,0.9,2.1,0.9,2.5c0,0.1,0,0.3,0,0.4c0,0.1,0,0.1,0,0.1l0,0c0,0,0,0.1,0.1,0.1l0,0c0.1,0.1,0.1,0.1,0.2,0.1
			c0.2,0,0.4-0.2,0.4-0.4l0.1-4.9c0-0.1,0-0.2,0-0.3c0-0.3-0.2-0.4-0.5-0.4c-0.9-0.3-2.4-0.6-4.7-0.6c-4.9,0-8.1,2.9-8.1,7
			c0,3,1.3,5.6,5.2,8.8l1.6,1.3c2.9,2.4,3.5,4.1,3.5,5.9c0,2-1.6,4.2-4.7,4.2c-2.2,0-4.3-1-5-3.7c-0.2-0.6-0.3-1.4-0.3-1.9
			c0-0.1,0-0.2,0-0.3l0,0c0-0.2-0.2-0.4-0.4-0.4c-0.2,0-0.4,0.2-0.4,0.4l-0.2,5.5c0,0.8,0.1,1,0.7,1.3c1.5,0.7,3.1,1,5.1,1
			c1.9,0,3.8-0.3,5.6-1.5c2.6-1.7,3.3-4.3,3.3-6.5C417.3,141.1,415.7,138.6,411.5,135.2"/>
	</g>
</g>
</svg>
