<?xml version="1.0" encoding="utf-8"?>
<!-- Generator: Adobe Illustrator 24.3.0, SVG Export Plug-In . SVG Version: 6.00 Build 0)  -->
<svg version="1.1" id="Layer_1" xmlns="http://www.w3.org/2000/svg" xmlns:xlink="http://www.w3.org/1999/xlink" x="0px" y="0px"
	 viewBox="0 0 262 189.5" style="enable-background:new 0 0 262 189.5;" xml:space="preserve">
<style type="text/css">
	.st0{fill:#FFFFFF;}
</style>
<path class="st0" d="M82.3,99.5L82.3,99.5L82.3,99.5L82.3,99.5l0.1-3.9l0,0l0,0l0,0l0,0v-0.1v-0.1l0,0l0,0l0,0
	c-0.1-0.1-0.1-0.2-0.1-0.2l0,0h-0.1l0,0v-0.3H81v0.2l0,0h0l0,0c0,0.1,0,0.2-0.1,0.2l0,0l0,0l0,0v0.1v0.1l0,0l0,0l0,0v3.9v0.1l0,0
	v0.1H81l0,0v0.1L82.3,99.5c-0.1,0-0.1-0.2,0-0.2V99.5z"/>
<path class="st0" d="M84.6,99.5L84.6,99.5L84.6,99.5L84.6,99.5l0.1-3.9l0,0l0,0l0,0l0,0v-0.1v-0.1l0,0l0,0l0,0
	c-0.1-0.1-0.1-0.2-0.1-0.2l0,0h-0.1l0,0v-0.3h-1.2v0.2l0,0l0,0l0,0c0,0.1,0,0.2-0.1,0.2l0,0l0,0l0,0v0.1v0.1l0,0l0,0l0,0v3.9
	l0.1,0.1l0,0v0.1h0.1l0,0v0.1L84.6,99.5c0,0,0-0.2,0.1-0.2L84.6,99.5z"/>
<path class="st0" d="M86.8,99.5L86.8,99.5L86.8,99.5L86.8,99.5l0.1-3.9l0,0l0,0l0,0l0,0v-0.1v-0.1l0,0l0,0l0,0
	c-0.1-0.1-0.1-0.2-0.1-0.2l0,0h-0.1l0,0v-0.3h-1.2v0.2l0,0l0,0l0,0c0,0.1,0,0.2-0.1,0.2l0,0l0,0l0,0v0.1v0.1l0,0l0,0l0,0v3.9v0.1
	l0,0v0.1h0.1l0,0v0.1L86.8,99.5c-0.1,0-0.1-0.2-0.1-0.2L86.8,99.5z"/>
<path class="st0" d="M89.1,99.5L89.1,99.5L89.1,99.5L89.1,99.5l0.1-3.9l0,0l0,0l0,0l0,0v-0.1v-0.1l0,0l0,0l0,0
	c-0.1-0.1-0.1-0.2-0.1-0.2l0,0l0,0l0,0v-0.3h-1.2v0.2l0,0l0,0l0,0c0,0.1,0,0.2-0.1,0.2l0,0l0,0l0,0v0.1v0.1l0,0l0,0l0,0v3.9v0.1l0,0
	v0.1h0.1l0,0v0.1L89.1,99.5c-0.1,0-0.1-0.2,0-0.2V99.5z"/>
<path class="st0" d="M32,65.5V124h71.4c-0.5-0.4-1.1-0.8-1.5-1.3c-4.1-4-4.2-8.7-4.3-13V85.1h13.2V111c0,1.8,0,3.6,1.5,5
	c1.1,1.1,2.6,1.6,4.2,1.5c1.5,0.1,3-0.5,4.2-1.5c1.5-1.5,1.6-3.3,1.6-5V85h13.3v22.1c0,4.8,0,10.9-4.9,15.6c-0.5,0.5-1,0.9-1.5,1.3
	H149c-5.8-4.2-8.6-11.2-8.6-18c0-11.2,7.5-22.5,21.6-22.5c6.2-0.1,12.3,2.3,16.7,6.7c1.4,1.4,2.6,3.1,3.5,4.9l-11,5.5
	c-1.1-2.5-3.1-6.9-8.6-6.9c-2.1,0-4.1,0.8-5.6,2.2c-3.1,3-3.1,7.7-3.1,9.4c0,6.2,2.3,12,8.8,12c6.1,0,8-5.4,8.4-6.8l11.2,5.4
	c-1,2.2-2.4,4.2-4.1,5.9c-0.9,0.8-1.8,1.6-2.8,2.3h12.1V85h13.1v30.7h17.1v8.3H230V65.5H32z M80.7,90.9L80.7,90.9L80.7,90.9
	L80.7,90.9L80.7,90.9L80.7,90.9l0.2-0.1l0,0v-0.1l0,0H81c0,0,0.1,0,0.1-0.1c0-0.7,0.1-1.3,0.5-1.9c0.3-0.5,0.8-0.9,1.3-1.1
	c0-0.1,0.2-0.2,0.3-0.2c0.1,0,0.1,0,0.1-0.1l0,0c0,0,0-0.1-0.1-0.1s0,0,0,0v-0.3l0,0h0.1l0,0v-0.1c0,0,0,0,0-0.1v-0.8l0,0l0,0l0,0
	v-0.2l0,0l0,0c0,0,0,0,0-0.1l0,0l0,0l0,0v-0.1h0.1l0,0c0.1-0.1,0.2-0.2,0.3-0.3l0,0l0,0l0,0l0,0l0,0c0,0,0-0.1,0.1-0.1l0,0l0.1,0.1
	l0,0l0,0l0,0l0,0l0,0c0.1,0.1,0.2,0.2,0.3,0.3l0,0h0.1v0.1l0,0h0.3l0,0v0.1l0,0l0,0v0.1l0,0l0,0l0,0v0.8c0,0,0,0,0,0.1v0.2l0,0h0.1
	l0,0V87l0,0c0,0-0.1,0-0.1,0.1l0,0c0,0,0,0,0.1,0.1s0.3,0.1,0.3,0.2c0.5,0.2,1,0.6,1.3,1.1c0.4,0.6,0.5,1.2,0.5,1.9v0.1h0.1l0,0v0.1
	l0,0H87l0,0v0.1l0,0h0.1l0,0v0.1l0,0c-0.1,0-0.1,0.1-0.1,0.1c0,0.1-0.1,0.1-0.1,0.1v0.8c0,0.1,0.1,0.1,0.1,0.2l0,0v0.4l-3-0.7l0,0
	l-3.2,0.7V92l0,0c0.1,0,0.1-0.1,0.1-0.2v-0.5c0,0-0.1,0-0.1-0.1s-0.1-0.1-0.1-0.1l0,0C80.8,91,80.7,90.9,80.7,90.9z M91.2,101.9
	H76.7V101h0.5v-1h0.5v-0.4l0,0v-0.1l0,0h0.1v-0.1l0.1-0.1v-3.8l0,0l0,0l0,0l0,0v-0.1v-0.1l0,0l0,0l0,0c-0.1-0.1-0.1-0.2-0.1-0.2l0,0
	l0,0l0,0v-0.4h-0.3l0,0l-0.1-0.6c0-0.1-0.1-0.1-0.2-0.1l0,0L77,93.7l0,0l6.9-1.5l6.9,1.5l0,0L90.7,94l0,0c-0.1,0-0.1,0-0.2,0.1
	l-0.1,0.6l0,0h-0.3v0.2l0,0H90l0,0c0,0.1,0,0.2-0.1,0.2l0,0l0,0l0,0v0.1v0.1l0,0l0,0l0,0v3.9v0.1l0,0v0.1H90l0,0v0.1l0,0v0.4h0.5
	v0.9H91v0.9L91.2,101.9z"/>
<path class="st0" d="M80.1,99.5L80.1,99.5L80.1,99.5L80.1,99.5L80.1,99.5L80.1,99.5l0.1-3.9l0,0l0,0l0,0l0,0v-0.1v-0.1l0,0l0,0l0,0
	c-0.1-0.1-0.1-0.2-0.1-0.2l0,0H80l0,0v-0.3h-1.2v0.2l0,0h-0.1l0,0c0,0.1,0,0.2-0.1,0.2l0,0l0,0l0,0v0.1v0.1l0,0l0,0l0,0v3.9v0.1l0,0
	v0.1h0.1l0,0v0.1L80.1,99.5C80,99.5,80,99.5,80.1,99.5z"/>
</svg>
