<?xml version="1.0" encoding="utf-8"?>
<!-- Generator: Adobe Illustrator 24.3.0, SVG Export Plug-In . SVG Version: 6.00 Build 0)  -->
<svg version="1.1" id="Layer_1" xmlns="http://www.w3.org/2000/svg" xmlns:xlink="http://www.w3.org/1999/xlink" x="0px" y="0px"
	 viewBox="0 0 800 600" style="enable-background:new 0 0 800 600;" xml:space="preserve">
<style type="text/css">
	.st0{fill:#FFFFFF;}
	.st1{fill:#FFFFFF;stroke:#001C54;stroke-width:1.057;stroke-miterlimit:3.8637;}
</style>
<g>
	<path class="st0" d="M140.6,290.2c0-3.1-1-5.5-3.3-6.9c-1.4-0.8-4.2-1.1-6.6-1.1h-17.1v34.5h18.6c4.3,0,7.7,1,8,4.8h0.4
		L140.6,290.2z"/>
	<path class="st1" d="M140.6,290.2c0-3.1-1-5.5-3.3-6.9c-1.4-0.8-4.2-1.1-6.6-1.1h-17.1v34.5h18.6c4.3,0,7.7,1,8,4.8h0.4
		L140.6,290.2z"/>
</g>
<g>
	<path class="st0" d="M140.6,290.2c0-3.1,1-5.5,3.3-6.9c1.4-0.8,4.8-1.1,7.1-1.1h17.2v34.5h-18.7c-4.3,0-8.3,1-8.5,4.8h-0.4
		L140.6,290.2z"/>
	<path class="st1" d="M140.6,290.2c0-3.1,1-5.5,3.3-6.9c1.4-0.8,4.8-1.1,7.1-1.1h17.2v34.5h-18.7c-4.3,0-8.3,1-8.5,4.8h-0.4
		L140.6,290.2z"/>
</g>
<path class="st0" d="M171.8,284.8v36.5h-26.4l-0.3,0.8c-0.5,1.1-1.3,2.2-4.2,2.2s-3.7-1.1-4.2-2.2l-0.3-0.8H110v-36.5h-2.4v1.1
	l-2.3-0.7c-0.3-0.9-1.1-1.6-2.1-1.6c-1.2,0-2.2,1-2.2,2.2s1,2.2,2.2,2.2c0.5,0,1-0.2,1.4-0.5l3,0.9v2.9l-2.3-0.4
	c-0.3-0.8-1.1-1.3-2-1.3c-1.2,0-2.2,1-2.2,2.2s1,2.2,2.2,2.2c0.6,0,1.2-0.3,1.6-0.7l2.7,0.5v3l-2.3-0.1c-0.4-0.6-1.1-1.1-1.9-1.1
	c-1.2,0-2.2,1-2.2,2.2s1,2.2,2.2,2.2c0.7,0,1.4-0.4,1.8-0.9l2.4,0.1v3.2l-2.4,0.1c-0.4-0.6-1-0.9-1.8-0.9c-1.2,0-2.2,1-2.2,2.2
	s1,2.2,2.2,2.2c0.8,0,1.5-0.4,1.8-1l2.3-0.1v3l-2.6,0.4c-0.4-0.4-1-0.7-1.6-0.7c-1.2,0-2.2,1-2.2,2.2s1,2.2,2.2,2.2
	c0.9,0,1.7-0.5,2-1.3l2.2-0.4v2.9l-2.9,0.9c-0.4-0.3-0.9-0.5-1.4-0.5c-1.2,0-2.2,1-2.2,2.2s1,2.2,2.2,2.2c1,0,1.8-0.7,2.1-1.6
	l2.2-0.7v2.8l-3.2,1.4c-0.3-0.2-0.7-0.4-1.2-0.4c-1.2,0-2.2,1-2.2,2.2s1,2.2,2.2,2.2c1.1,0,2-0.8,2.1-1.8l2.2-1v2.6H135
	c1.1,1.9,3,2.9,5.9,2.9s4.8-1,5.9-2.9h27.3v-38.9L171.8,284.8L171.8,284.8z"/>
<path class="st0" d="M122.9,272.7c-5.5,0-10,0.9-10,1.9c0,1.1,4.5,1.9,10,1.9c5.5,0,10-0.9,10-1.9
	C132.9,273.5,128.5,272.7,122.9,272.7z"/>
<path class="st0" d="M136.7,260.7l-5.8,4.1l-0.1,0.4l1.4,0.6c0.3,0.1,0.3,0.4,0.1,0.5l-3.6,3.1h-0.3l-2.6-3.8
	c-0.2-0.2-0.1-0.5,0.2-0.5l1.7-0.3v-0.4l-4.5-6.3h-0.7l-4.5,6.3v0.4l1.7,0.3c0.3,0.1,0.4,0.3,0.2,0.5l-2.6,3.8H117l-3.4-3.1
	c-0.1-0.1-0.1-0.3,0.1-0.5l1.4-0.6l-0.1-0.4l-6-4.1l-0.5,0.2l3.5,10.8c1.8-0.8,5.9-1.4,10.7-1.4c4.8,0,8.9,0.6,10.7,1.4l3.5-10.8
	L136.7,260.7z"/>
<path class="st0" d="M140.9,344.9c-5.5,0-10,0.9-10,1.9c0,1.1,4.5,1.9,10,1.9s10-0.9,10-1.9C150.8,345.8,146.4,344.9,140.9,344.9z"
	/>
<path class="st0" d="M154.6,332.9l-5.8,4.1v0.4l1.4,0.6c0.3,0.1,0.3,0.4,0.1,0.5l-3.6,3.1h-0.3l-2.6-3.8c-0.2-0.2-0.1-0.5,0.2-0.5
	l1.7-0.3v-0.4l-4.5-6.3h-0.7l-4.5,6.3v0.4l1.7,0.3c0.3,0.1,0.4,0.3,0.2,0.5l-2.6,3.8H135l-3.4-3.1c-0.1-0.1-0.1-0.4,0.1-0.5l1.4-0.6
	V337l-6-4.1l-0.5,0.2l3.5,10.8c1.8-0.8,5.9-1.4,10.7-1.4s8.9,0.6,10.7,1.4l3.5-10.8L154.6,332.9z"/>
<path class="st0" d="M158.7,272.7c-5.5,0-10,0.9-10,1.9c0,1.1,4.5,1.9,10,1.9s10-0.9,10-1.9C168.7,273.5,164.2,272.7,158.7,272.7z"
	/>
<path class="st0" d="M172.5,260.7l-5.8,4.1l-0.1,0.4l1.4,0.6c0.3,0.1,0.3,0.4,0.1,0.5l-3.6,3.1h-0.3l-2.6-3.8
	c-0.2-0.2-0.1-0.5,0.2-0.5l1.7-0.3v-0.4l-4.5-6.3h-0.7l-4.5,6.3v0.4l1.7,0.3c0.3,0.1,0.4,0.3,0.2,0.5l-2.6,3.8h-0.3l-3.4-3.1
	c-0.1-0.1-0.1-0.3,0.1-0.5l1.4-0.6l-0.1-0.4l-6-4.1l-0.5,0.2l3.5,10.8c1.8-0.8,5.9-1.4,10.7-1.4s8.9,0.6,10.7,1.4l3.5-10.8
	L172.5,260.7z"/>
<path class="st0" d="M134,372.1c0,1.1-0.9,2-2,2s-2-0.9-2-2s0.9-2,2-2S134,371,134,372.1z"/>
<path class="st0" d="M154.2,375.4c0,1.1-0.9,2-2,2s-2-0.9-2-2s0.9-2,2-2S154.2,374.3,154.2,375.4z"/>
<path class="st0" d="M142.8,231.7c0,1.1-0.9,2-2,2s-2-0.9-2-2s0.9-2,2-2C141.9,229.7,142.8,230.6,142.8,231.7z"/>
<path class="st0" d="M190.1,250.3c0,1.1-1,1.9-2.1,1.9s-2-1-1.9-2.1c0-1.1,1-1.9,2.1-1.9C189.3,248.3,190.1,249.2,190.1,250.3z"/>
<path class="st0" d="M90.4,335.7c0.8,1.1,1.2,2.3,1.1,3.5c0,1.4-0.5,2.5-3,4.2l-7.2,5.1l-1.3-1.9c0,0,7.4-5.2,7.5-5.3
	c1.3-0.9,1.8-1.5,1.8-2.5c0-0.6-0.2-1.3-0.7-2c-0.7-1-1.6-1.4-2.5-1.4c-0.7,0-1.5,0.5-2.9,1.5l-6.7,4.6l-1.3-1.9l6.4-4.4
	c1.8-1.3,3.2-2.1,4.5-2.1C88.1,333.2,89.5,334.4,90.4,335.7z"/>
<polygon class="st0" points="67.4,321.7 81.1,316.9 81.8,319 74,328.5 83.9,324.6 84.6,326.6 71.1,331.8 70.4,329.7 78.2,320.2 
	68.1,323.7 "/>
<rect x="65.5" y="309.7" transform="matrix(0.9892 -0.1469 0.1469 0.9892 -44.873 14.0592)" class="st0" width="14.5" height="2.3"/>
<polygon class="st0" points="64.9,293.6 65,291.2 79.3,297 79.2,299.3 64.5,303.7 64.5,301.3 76.4,298 "/>
<path class="st0" d="M78,261.2c-2,0-3,1.2-4.3,3.5l-1.7,3l12.7,6.9l1.1-2l-5.3-2.9l0.3-0.6c0.9-1.6,1.2-1.9,3.5-1.7l4.1,0.4l1.2-2.1
	l-4.8-0.4c-1-0.1-1.7-0.2-2.3,0c-0.2,0.1-0.4,0.2-0.7,0.4c0.1-0.3,0.2-0.5,0.2-0.8c0-0.4-0.1-0.8-0.2-1.2c-0.3-0.8-0.9-1.5-1.8-2
	C79.4,261.4,78.7,261.2,78,261.2z M75.4,265.6c0.8-1.5,1.5-2.1,2.3-2.1c0.3,0,0.8,0.1,1.2,0.3c0.5,0.3,1,0.8,1.1,1.3
	c0.1,0.2,0.1,0.4,0.1,0.6c0,0.9-0.5,1.7-1,2.6l-0.3,0.5l-4.1-2.2L75.4,265.6z"/>
<rect x="98" y="238.6" transform="matrix(0.7961 -0.6052 0.6052 0.7961 -128.553 110.1409)" class="st0" width="2.3" height="14.5"/>
<polygon class="st0" points="101.8,235.1 111.1,230.3 112,232 108.4,233.9 114.1,245 112.1,246.1 106.3,235 102.7,236.9 "/>
<polygon class="st0" points="125.1,225.9 127.5,225.2 125.6,234.9 127.1,240.4 124.9,241 123.4,235.6 116.5,228.4 118.9,227.7 
	123.8,232.8 "/>
<polygon class="st0" points="169.2,245.6 176.5,233.2 183.4,237.3 182.4,239 177.5,236.1 175.5,239.5 180.1,242.2 179.1,243.9 
	174.5,241.2 171.2,246.8 "/>
<polygon class="st0" points="206.3,277.9 211.6,271.6 212.4,274 208.5,278.5 214.3,279.8 215.1,282.2 207.1,280.3 201.5,287 
	200.7,284.6 204.9,279.6 198.6,278.2 197.8,275.8 "/>
<polygon class="st0" points="202.2,292.1 216.6,290.9 217.3,298.9 215.3,299 214.8,293.3 210.8,293.7 211.3,299 209.4,299.2 
	208.9,293.8 202.4,294.3 "/>
<path class="st0" d="M208.6,304.9c-1.7,0-3.2,0.5-4.4,1.3c-2.2,1.6-2.6,3.9-2.6,5.2c0,4.9,4.6,6.8,8,6.8c1.7,0,3.2-0.5,4.4-1.3
	c2.4-1.8,2.6-4.4,2.6-5.3C216.6,307.5,212.6,304.9,208.6,304.9z M209.7,316c-2.8,0-6.1-1.5-6.1-4.4c0-1,0.4-2.4,1.6-3.3
	c0.9-0.6,2-1,3.2-1c1.4,0,4,0.4,5.4,2.3c0.5,0.6,0.7,1.4,0.7,2.2c0,1.1-0.5,2.4-1.6,3.3C212.1,315.7,211,316,209.7,316z"/>
<path class="st0" d="M200.2,256.8c-1.5,0-3,0.5-4.5,1.4c-2.8,1.8-3.8,4.3-3.8,6.1c0,1.2,0.3,2.4,1,3.4c1.5,2.4,3.9,3,5.4,3
	s3.1-0.5,4.6-1.4c1.8-1.1,3.8-3.2,3.8-6.1c0-1.2-0.3-2.4-1-3.4C204.3,257.9,202.4,256.8,200.2,256.8z M197.9,268.6
	c-1.3,0-2.5-0.5-3.3-1.8c-0.4-0.6-0.6-1.4-0.6-2.1c0-1.6,1-3.3,2.9-4.5c1.3-0.8,2.5-1.2,3.6-1.2c1.4,0,2.5,0.6,3.3,1.8
	c0.4,0.7,0.7,1.5,0.7,2.2c0,1.6-1,3.2-2.8,4.3C200.4,268.2,199.1,268.6,197.9,268.6z"/>
<path class="st0" d="M160.7,227c-3,0-5.6,2-6.7,5.6c-0.2,0.8-0.4,1.6-0.4,2.4c0,1.4,0.2,2.6,0.8,3.7c1.3,2.4,3.8,3.3,5.6,3.3
	c1.1,0,2.1-0.2,3-0.7c2.4-1.3,4.1-4.4,4.1-7.4c0-1.3-0.3-2.5-0.8-3.5C165.2,228.2,163,227,160.7,227z M160,239.9
	c-1,0-2.6-0.5-3.4-2.1c-0.4-0.7-0.6-1.7-0.6-2.6c0-2.6,1.7-6.2,4.9-6.2c1.8,0,4,1.3,4,4.6C164.9,235.7,163.4,239.9,160,239.9z"/>
<polygon class="st0" points="80.7,279.5 82.6,280 80.4,288 66.4,284.1 68.8,276.1 70.7,276.6 69,282.4 72.8,283.5 74.3,278.2 
	76.2,278.7 74.7,284 79.1,285.2 "/>
<path class="st0" d="M84.3,249.3c2-2.3,4.1-2.1,4.1-2.1l0.4,1.9c0,0-1.6,0-2.8,1.4c-0.5,0.6-0.8,1.2-0.8,1.8c0,0.5,0.2,0.9,0.6,1.2
	c1,0.9,2.7-0.1,3.8-0.5c0.8-0.3,2-0.8,3.2-0.8c0.9,0,1.8,0.2,2.6,1c1,0.9,1.4,1.9,1.4,3.1s-0.5,2.3-1.4,3.4
	c-1.8,2.1-4.3,2.3-4.3,2.3l-0.5-1.9c1.5-0.3,2.6-0.9,3.2-1.7c0.5-0.6,0.8-1.3,0.8-1.8s-0.2-1.1-0.7-1.5c-0.4-0.3-0.8-0.4-1.3-0.4
	c-0.9,0-2,0.5-3,0.9c-1.8,0.7-3.6,1.3-5.3-0.2c-0.8-0.8-1.3-1.7-1.3-2.8C83,251.5,83.4,250.3,84.3,249.3z"/>
<path class="st0" d="M198.4,323.6l5.5,2.5l-0.3,0.6c-0.7,1.7-1,2-3.3,2h-4.1l-1,2.2h4.8c1,0,1.7,0,2.3-0.2c0.2-0.1,0.4-0.2,0.6-0.4
	c0,0.1-0.1,0.2-0.1,0.4c0,0.5,0.1,1.1,0.3,1.5c0.7,1.5,2.4,2.3,3.7,2.3c2.3,0,3.2-1.4,4.3-3.9c0-0.1,1.3-3.1,1.3-3.1l-13.1-5.9
	L198.4,323.6z M206.9,332.2c-0.7,0-1.8-0.4-2.2-1.5c-0.1-0.3-0.1-0.6-0.1-0.8c0-0.8,0.4-1.6,0.8-2.5l0.2-0.6l4.2,1.9l-0.5,1.1
	C208.5,331.7,208,332.2,206.9,332.2z"/>
<path class="st0" d="M190.8,337.3c-1.5,1.9-2.6,3.6-2.6,5.7c0,1.8,0.8,3.9,2.9,5.6c1.4,1.1,3,1.7,4.6,1.7c2,0,3.6-0.6,6.1-3.7
	l2.3-2.9l-11.3-9L190.8,337.3z M195.9,348.2c-1.1,0-2.2-0.4-3.4-1.3c-1.1-0.9-2.3-2.3-2.3-4.1c0-1.3,0.7-2.5,1.7-3.8l1-1.2l8.3,6.6
	l-0.6,0.8C199,347.1,197.9,348.2,195.9,348.2z"/>
<path class="st0" d="M223.7,300.8c0-45.6-37.2-82.7-82.8-82.7c-45.7,0-82.8,37.1-82.8,82.7c0,27.4,13.5,52.8,36.1,68.3
	c2.2,8.3,9.8,14.4,18.8,14.4c2.4,0,4.8-0.5,7-1.3c3,1,6.2,1.8,9.3,2.5c-0.9,2.5-2.2,4.9-3.4,7c0,0,0,0,0.1,0h-0.1l1.7,1.7
	c0.4-0.2,0.9-0.4,1.5-0.4c1.7,0,3.1,1.4,3.1,3.1s-1.4,3.1-3.1,3.1c-1.5,0-2.8-1-3.5-2c0,0-0.4,1.4-0.4,3.2c0,5.9,6.5,12.7,15.5,15.6
	c9-2.8,15.5-9.6,15.5-15.6c0-2-0.4-3.2-0.4-3.2c-0.7,0.8-1.8,2-3.5,2s-3.1-1.4-3.1-3.1s1.4-3.1,3.1-3.1c0.6,0,1.1,0.2,1.6,0.5
	l1.7-1.7h0.1c-0.9-2.3-1.6-4.3-2.1-6.3c14.9-2,27.5-8.3,37.4-18.8l0,0C211.8,350.8,223.7,326.8,223.7,300.8z M113,381.2
	c-9.4,0-17.1-7.7-17.1-17.1c0-3,0.8-5.7,2.1-8.2c0.9,0.8,1.8,1.6,2.8,2.5c-0.8,1.8-1.3,3.7-1.3,5.8c0,5.1,2.6,9.4,7.5,12.3
	c2.8,1.7,6,3.2,9.4,4.5C115.3,381.1,114.2,381.2,113,381.2z M140.9,356.3c-3.5,0-7-0.3-10.5-1c-3.3-6.5-10.1-10.7-17.4-10.7
	c-1.8,0-3.5,0.3-5.2,0.7c-14.1-10.4-22.5-27.1-22.5-44.6c0-30.6,24.9-55.5,55.5-55.5s55.5,24.9,55.5,55.5
	C196.4,331.4,171.5,356.3,140.9,356.3z M153.2,357.3c-1.7,2.4-2.7,5.7-2.9,9c-5.3-1.4-10-3.2-14.2-5.1c0.8-1.5,3.1-2.6,4.8-2.6
	C145.1,358.6,149.2,358.1,153.2,357.3z M135.6,358.4c-0.7,0.5-1.3,1.2-1.7,1.8c-2.1-1-4.7-2.3-6.5-3.3
	C129.9,357.5,133.1,358.1,135.6,358.4z M113,347c5.7,0,11.1,2.9,14.2,7.6c-2.7-0.7-5.4-1.6-8.1-2.7l0,0H119
	c-1.8-0.9-3.8-1.3-5.9-1.3c-4.6,0-8.6,2.2-11.1,5.6c-1-0.6-2.1-1.2-3.1-1.8C102.1,349.9,107.2,347,113,347z M152.3,390.6
	c-3.1,0-5.6,2.2-5.6,5.5c0,3.2,2.5,5.5,5.6,5.5c0.5,0,0.9-0.1,1.3-0.2c-0.6,4.6-6,9.7-12.9,12c-6.8-2.3-12.2-7.5-12.9-12
	c0.4,0.1,0.9,0.2,1.3,0.2c3.3,0,5.6-2.3,5.6-5.5c0-3-2.4-5.4-5.4-5.5c0.9-1.7,1.8-3.5,2.5-5.5c3.8,0.7,7.5,1,11,1
	c2.9,0,5.6-0.2,8.3-0.4c0.4,1.6,0.9,3.2,1.5,4.9C152.5,390.6,152.4,390.6,152.3,390.6z M142.8,383.8c-11.1,0-25-3.8-34.5-9.4
	c-2.9-1.7-6.3-4.9-6.3-10.3c0-1.5,0.3-2.9,0.8-4.1c3.6,2.9,7.2,5.7,9.5,7c0.5,0.3,0.8,0.4,1.5,0.4c1.5,0,2.7-1.2,2.7-2.7
	c0-1.1-0.6-2.1-1.6-2.5c-2-0.9-6.1-2.6-10.5-4.9c2.1-2.7,5.3-4.5,8.9-4.5c1.7,0,3.3,0.4,4.8,1.1l3,1.8c9.7,5.9,34.6,21.1,64.6,12.7
	C174.2,378.7,160.2,383.8,142.8,383.8z M189.4,364.8c-13.5,4.8-26,4.4-36.7,2c0.4-4.8,2.3-9.9,5.4-10.9
	c23.6-7.3,40.8-29.3,40.8-55.2c0-31.9-26-57.8-57.9-57.8c-32,0-57.9,25.9-57.9,57.8c0,17.7,8.3,34.6,22.2,45.5
	c-3.3,1.5-6.1,3.8-8.2,6.7c-1.1-0.7-2.1-1.5-3-2.2l-0.5,0.5c0.6,0.8,1.6,1.8,2.8,2.9c-1.7,2.9-2.7,6.3-2.7,9.9c0,0.6,0,1.1,0.1,1.7
	c-20.8-15.1-33.1-39.2-33.1-64.9c0-44.3,36.1-80.4,80.4-80.4s80.4,36,80.4,80.4C221.2,326.2,209.6,349.5,189.4,364.8z"/>
<path class="st0" d="M327.3,348c0,22.1-17.1,38.2-38.4,38.2c-21.7,0-38.4-16.2-38.4-37.4c0-22.1,17.1-38.2,38.4-38.2
	C310.6,310.5,327.3,326.8,327.3,348z M315.1,348.4c0-20.1-9.8-34.2-26.2-34.2c-17.9,0-26.2,16.9-26.2,34.2
	c0,20.1,9.8,34.1,26.2,34.1C306.8,382.5,315.1,365.6,315.1,348.4z"/>
<path class="st0" d="M561.8,348c0,22.1-17.1,38.2-38.4,38.2c-21.7,0-38.4-16.2-38.4-37.4c0-22.1,17.1-38.2,38.4-38.2
	C545.2,310.5,561.8,326.8,561.8,348z M549.6,348.4c0-20.1-9.8-34.2-26.2-34.2c-17.9,0-26.2,16.9-26.2,34.2
	c0,20.1,9.8,34.1,26.2,34.1C541.3,382.5,549.6,365.6,549.6,348.4z"/>
<path class="st0" d="M591.5,348.7h9.1c13.8,0,16.9-8.7,16.9-17.1c0-6.3-2.9-12.2-9.4-15c-3.4-1.4-6.7-1.4-11.2-1.4h-5.5v33.5H591.5z
	 M608.4,360.5c-4.3-6.1-5.9-8.3-11.2-8.3h-5.7V377c0,2,0.8,3,3.1,3.4l8.3,1.8v2.7h-32.7v-2.7l7.5-1.8c2.2-0.6,3-1.4,3-3.4v-57.3
	c0-2-0.8-2.8-3-3.5l-7.5-1.8v-2.6h31.9c6.7,0,11.4,0.6,15.2,2c7.9,3.1,12.4,10.6,12.4,17.7c0,9-6.7,16.5-17.9,19.1v0.4
	c2.2,1,3.5,2.4,11.4,12.8l10,13.2c1.4,2,3.3,3.2,5.5,3.7l7.3,1.6v2.7h-17.5c-2,0-3.1-0.6-4.9-3.1L608.4,360.5z"/>
<path class="st0" d="M465.1,336.8h3v24.4h-3l-1.8-7.3c-0.6-2.6-2.2-3.7-4.7-3.7h-17.7V377c0,2,0.8,3,3.1,3.4l8.3,1.8v2.7h-32.7v-2.7
	l7.5-1.8c2.2-0.6,3.1-1.4,3.1-3.4v-57.3c0-2-0.8-2.8-3.1-3.4l-7.5-1.8v-2.7h55.3v18.3h-3.1l-3.4-11c-0.8-2.8-2-3.9-4.5-3.9h-23v31.5
	h17.7c2.4,0,3.9-1,4.7-3.7L465.1,336.8z"/>
<path class="st0" d="M651.8,384.9v-2.7l7.5-1.8c2.2-0.6,3.1-1.4,3.1-3.4v-57.3c0-2-0.8-2.8-3.1-3.4l-7.5-1.8v-2.7h34.4
	c9.3,0,16.1,1.2,21.5,3.7c13.8,6.3,20.1,19.9,20.1,33.3c0,13-4.9,25.2-17.3,31.7c-5.7,3.1-13.6,4.5-24,4.5h-34.7V384.9z
	 M673.2,315.2v63c0,2.7,0.6,3.3,3.3,3.3h8.9c8.5,0,14.8-1.2,19.3-4.5c7.5-5.5,11-15.4,11-28c0-12.4-3.5-24.6-13.6-30.5
	c-4.3-2.5-9.8-3.3-18.3-3.3H673.2z"/>
<path class="st0" d="M356,382.3v2.7h-25.8v-2.7l6.5-1.6c2.4-0.6,4.1-1.4,5.7-3.3l22.4-28l-22.4-29.7c-1.4-2-3.2-3-5.5-3.7l-6.1-1.6
	v-2.7h32.1v2.7l-6.9,1.4c-2.4,0.4-1.8,1.4-0.6,3.1l16.5,23.6h0.4l16.9-23.6c1.2-1.6,1.6-2.2-0.6-2.8l-6.5-1.6v-2.7h25.8v2.7
	l-6.5,1.6c-2.4,0.6-4.1,1.4-5.7,3.2l-21.1,26.6L398,377c1.4,2,3.3,3,5.5,3.7l6.1,1.6v2.7h-32.1v-2.7l6.9-1.4c2.4-0.4,2-1.2,0.8-2.9
	l-17.9-25.2h-0.4l-18.1,25c-1.2,1.6-1.6,2.2,0.6,2.8L356,382.3z"/>
<path class="st0" d="M279,277.3c-2,2-5.1,3.4-9.3,3.4c-3.7,0-7.1-1.2-9.4-3.5c-3.2-3.2-3-7.2-3-11.5v-20.3h4.1v21.9
	c0,2.8-0.1,5.5,2.1,7.6c1.5,1.5,3.8,2.3,6.4,2.3s4.6-0.9,5.9-2.2c2.4-2.4,2.2-5,2.2-11.2v-18.3h4.1v17.3
	C282.1,269.2,282.3,274,279,277.3z"/>
<polygon class="st0" points="315.8,280 299.1,251.6 299.2,280 295.4,280 295.4,245.4 299.7,245.4 316.4,274 316.3,245.4 
	320.1,245.4 320.1,280 "/>
<rect x="334.6" y="245.4" class="st0" width="4.2" height="34.7"/>
<polygon class="st0" points="364.7,280 359.9,280 347.9,245.4 352.3,245.4 362.4,276 372.8,245.4 376.8,245.4 "/>
<polygon class="st0" points="386.3,280 386.3,245.4 405.1,245.4 405.1,248.8 390.4,248.8 390.4,260.3 404.2,260.3 404.2,263.7 
	390.4,263.7 390.4,276.5 405.5,276.5 405.5,280 "/>
<path class="st0" d="M431.9,250.6c-2-2-4.6-1.9-7.4-1.9h-3.8v13h1.4c3.5,0,7.3,0.2,9.6-2.2c1.1-1.1,1.8-2.8,1.8-4.5
	C433.5,253,432.7,251.4,431.9,250.6z M435.7,280l-4-9c-2.5-5.5-3.6-6.1-8.6-6.1h-2.4V280h-4.1v-34.7h7.5c4.6,0,8.1,0,10.8,2.7
	c1.7,1.7,2.7,4,2.7,6.9c0,2.4-0.7,4.4-2.2,6c-1.2,1.3-3.3,2.5-5.6,2.7c1.2,0.1,2.2,0.7,2.9,1.4c0.9,0.9,1.6,2.4,2.6,4.6L440,280
	H435.7z"/>
<rect x="480.5" y="245.4" class="st0" width="4.2" height="34.7"/>
<polygon class="st0" points="508.5,248.8 508.5,280 504.3,280 504.3,248.8 494,248.8 494,245.4 518.7,245.4 518.7,248.8 "/>
<polygon class="st0" points="538.7,266.3 538.7,280 534.6,280 534.6,266.3 523.6,245.4 528.3,245.4 536.9,261.6 545.2,245.4 
	549.7,245.4 "/>
<path class="st0" d="M588.6,248.3c-6.8,0-11.2,5.7-11.2,14.4c0,8.6,4.9,14.5,11.4,14.5c7.2,0,11.3-6.2,11.3-14.8
	C600.1,253.9,595.3,248.3,588.6,248.3z M588.6,280.7c-9,0-15.5-7.4-15.5-17.8c0-10.7,6.5-18.1,15.9-18.1c9.1,0,15.5,7.4,15.5,17.8
	C604.4,273.3,597.9,280.7,588.6,280.7z"/>
<polygon class="st0" points="619.9,248.8 619.9,260.3 633.3,260.3 633.3,263.6 619.9,263.6 619.9,280 615.8,280 615.8,245.4 
	634.2,245.4 634.2,248.8 "/>
<path class="st0" d="M448.4,253.8c0-5.3,4.3-9.1,10.5-9.1c6.3,0,9.4,3.3,9.7,3.6l-2,2.5c-0.8-0.6-3.6-2.6-7.4-2.6
	c-4.4,0-6.9,2.3-6.9,5.4c0,1.5,0.6,2.6,1.6,3.5c1.2,1.1,2.9,1.9,4.8,2.7c2.3,1.1,5.5,2.3,7.6,4.5c1.5,1.5,2.6,3.5,2.6,6.2
	c0,5.8-4,10.2-11.2,10.2c-6.1,0-10-3.4-10.4-3.7l1.9-2.8c1,0.7,4.8,3,8.4,3c5.2,0,7.2-2.9,7.2-6.3c0-1.6-0.7-2.9-1.8-3.9
	c-1.6-1.6-4.1-2.6-6.4-3.7s-4.6-2.2-6.2-3.9C449.5,258.4,448.4,256.6,448.4,253.8z"/>
</svg>
